%TF.GenerationSoftware,KiCad,Pcbnew,9.0.0*%
%TF.CreationDate,2025-07-11T11:02:10-04:00*%
%TF.ProjectId,jammerBT_v3,6a616d6d-6572-4425-945f-76332e6b6963,rev?*%
%TF.SameCoordinates,Original*%
%TF.FileFunction,Drillmap*%
%TF.FilePolarity,Positive*%
%FSLAX45Y45*%
G04 Gerber Fmt 4.5, Leading zero omitted, Abs format (unit mm)*
G04 Created by KiCad (PCBNEW 9.0.0) date 2025-07-11 11:02:10*
%MOMM*%
%LPD*%
G01*
G04 APERTURE LIST*
%ADD10C,0.100000*%
%ADD11C,0.200000*%
%ADD12C,0.130000*%
%ADD13C,0.320000*%
G04 APERTURE END LIST*
D10*
X14558500Y-4195500D02*
X23004500Y-4195500D01*
X23004500Y-13746000D01*
X14558500Y-13746000D01*
X14558500Y-4195500D01*
D11*
D10*
X15650000Y-9107500D02*
X15690000Y-9147500D01*
X15690000Y-9107500D02*
X15650000Y-9147500D01*
X16370000Y-8292500D02*
X16410000Y-8332500D01*
X16410000Y-8292500D02*
X16370000Y-8332500D01*
X16562000Y-11820500D02*
X16602000Y-11860500D01*
X16602000Y-11820500D02*
X16562000Y-11860500D01*
X16681967Y-8810533D02*
X16721967Y-8850533D01*
X16721967Y-8810533D02*
X16681967Y-8850533D01*
X17177500Y-6620000D02*
X17217500Y-6660000D01*
X17217500Y-6620000D02*
X17177500Y-6660000D01*
X18334000Y-6629000D02*
X18374000Y-6669000D01*
X18374000Y-6629000D02*
X18334000Y-6669000D01*
X19057500Y-11705000D02*
X19097500Y-11745000D01*
X19097500Y-11705000D02*
X19057500Y-11745000D01*
X19592000Y-12696000D02*
X19632000Y-12736000D01*
X19632000Y-12696000D02*
X19592000Y-12736000D01*
X20642500Y-8887500D02*
X20682500Y-8927500D01*
X20682500Y-8887500D02*
X20642500Y-8927500D01*
X21215000Y-8430000D02*
X21255000Y-8470000D01*
X21255000Y-8430000D02*
X21215000Y-8470000D01*
X15771000Y-10317500D02*
G75*
G02*
X15681000Y-10317500I-45000J0D01*
G01*
X15681000Y-10317500D02*
G75*
G02*
X15771000Y-10317500I45000J0D01*
G01*
X15986900Y-10317500D02*
G75*
G02*
X15896900Y-10317500I-45000J0D01*
G01*
X15896900Y-10317500D02*
G75*
G02*
X15986900Y-10317500I45000J0D01*
G01*
X16202800Y-10317500D02*
G75*
G02*
X16112800Y-10317500I-45000J0D01*
G01*
X16112800Y-10317500D02*
G75*
G02*
X16202800Y-10317500I45000J0D01*
G01*
X16418700Y-10317500D02*
G75*
G02*
X16328700Y-10317500I-45000J0D01*
G01*
X16328700Y-10317500D02*
G75*
G02*
X16418700Y-10317500I45000J0D01*
G01*
X15610500Y-7670000D02*
X15610500Y-7770000D01*
X15560500Y-7720000D02*
X15660500Y-7720000D01*
X15610500Y-7924000D02*
X15610500Y-8024000D01*
X15560500Y-7974000D02*
X15660500Y-7974000D01*
X15864500Y-7670000D02*
X15864500Y-7770000D01*
X15814500Y-7720000D02*
X15914500Y-7720000D01*
X15864500Y-7924000D02*
X15864500Y-8024000D01*
X15814500Y-7974000D02*
X15914500Y-7974000D01*
X16118500Y-7670000D02*
X16118500Y-7770000D01*
X16068500Y-7720000D02*
X16168500Y-7720000D01*
X16118500Y-7924000D02*
X16118500Y-8024000D01*
X16068500Y-7974000D02*
X16168500Y-7974000D01*
X16372500Y-7670000D02*
X16372500Y-7770000D01*
X16322500Y-7720000D02*
X16422500Y-7720000D01*
X16372500Y-7924000D02*
X16372500Y-8024000D01*
X16322500Y-7974000D02*
X16422500Y-7974000D01*
X17488000Y-7568000D02*
X17488000Y-7668000D01*
X17438000Y-7618000D02*
X17538000Y-7618000D01*
X17488000Y-7822000D02*
X17488000Y-7922000D01*
X17438000Y-7872000D02*
X17538000Y-7872000D01*
X17488000Y-8076000D02*
X17488000Y-8176000D01*
X17438000Y-8126000D02*
X17538000Y-8126000D01*
X17488000Y-8330000D02*
X17488000Y-8430000D01*
X17438000Y-8380000D02*
X17538000Y-8380000D01*
X17488000Y-8584000D02*
X17488000Y-8684000D01*
X17438000Y-8634000D02*
X17538000Y-8634000D01*
X17488000Y-8838000D02*
X17488000Y-8938000D01*
X17438000Y-8888000D02*
X17538000Y-8888000D01*
X17488000Y-9092000D02*
X17488000Y-9192000D01*
X17438000Y-9142000D02*
X17538000Y-9142000D01*
X17488000Y-9346000D02*
X17488000Y-9446000D01*
X17438000Y-9396000D02*
X17538000Y-9396000D01*
X17488000Y-9600000D02*
X17488000Y-9700000D01*
X17438000Y-9650000D02*
X17538000Y-9650000D01*
X17488000Y-9854000D02*
X17488000Y-9954000D01*
X17438000Y-9904000D02*
X17538000Y-9904000D01*
X17488000Y-10108000D02*
X17488000Y-10208000D01*
X17438000Y-10158000D02*
X17538000Y-10158000D01*
X17488000Y-10362000D02*
X17488000Y-10462000D01*
X17438000Y-10412000D02*
X17538000Y-10412000D01*
X17488000Y-10616000D02*
X17488000Y-10716000D01*
X17438000Y-10666000D02*
X17538000Y-10666000D01*
X17488000Y-10870000D02*
X17488000Y-10970000D01*
X17438000Y-10920000D02*
X17538000Y-10920000D01*
X17488000Y-11124000D02*
X17488000Y-11224000D01*
X17438000Y-11174000D02*
X17538000Y-11174000D01*
X17488000Y-11378000D02*
X17488000Y-11478000D01*
X17438000Y-11428000D02*
X17538000Y-11428000D01*
X17488000Y-11632000D02*
X17488000Y-11732000D01*
X17438000Y-11682000D02*
X17538000Y-11682000D01*
X17488000Y-11886000D02*
X17488000Y-11986000D01*
X17438000Y-11936000D02*
X17538000Y-11936000D01*
X17488000Y-12140000D02*
X17488000Y-12240000D01*
X17438000Y-12190000D02*
X17538000Y-12190000D01*
X20092000Y-7568000D02*
X20092000Y-7668000D01*
X20042000Y-7618000D02*
X20142000Y-7618000D01*
X20092000Y-7822000D02*
X20092000Y-7922000D01*
X20042000Y-7872000D02*
X20142000Y-7872000D01*
X20092000Y-8076000D02*
X20092000Y-8176000D01*
X20042000Y-8126000D02*
X20142000Y-8126000D01*
X20092000Y-8330000D02*
X20092000Y-8430000D01*
X20042000Y-8380000D02*
X20142000Y-8380000D01*
X20092000Y-8584000D02*
X20092000Y-8684000D01*
X20042000Y-8634000D02*
X20142000Y-8634000D01*
X20092000Y-8838000D02*
X20092000Y-8938000D01*
X20042000Y-8888000D02*
X20142000Y-8888000D01*
X20092000Y-9092000D02*
X20092000Y-9192000D01*
X20042000Y-9142000D02*
X20142000Y-9142000D01*
X20092000Y-9346000D02*
X20092000Y-9446000D01*
X20042000Y-9396000D02*
X20142000Y-9396000D01*
X20092000Y-9600000D02*
X20092000Y-9700000D01*
X20042000Y-9650000D02*
X20142000Y-9650000D01*
X20092000Y-9854000D02*
X20092000Y-9954000D01*
X20042000Y-9904000D02*
X20142000Y-9904000D01*
X20092000Y-10108000D02*
X20092000Y-10208000D01*
X20042000Y-10158000D02*
X20142000Y-10158000D01*
X20092000Y-10362000D02*
X20092000Y-10462000D01*
X20042000Y-10412000D02*
X20142000Y-10412000D01*
X20092000Y-10616000D02*
X20092000Y-10716000D01*
X20042000Y-10666000D02*
X20142000Y-10666000D01*
X20092000Y-10870000D02*
X20092000Y-10970000D01*
X20042000Y-10920000D02*
X20142000Y-10920000D01*
X20092000Y-11124000D02*
X20092000Y-11224000D01*
X20042000Y-11174000D02*
X20142000Y-11174000D01*
X20092000Y-11378000D02*
X20092000Y-11478000D01*
X20042000Y-11428000D02*
X20142000Y-11428000D01*
X20092000Y-11632000D02*
X20092000Y-11732000D01*
X20042000Y-11682000D02*
X20142000Y-11682000D01*
X20092000Y-11886000D02*
X20092000Y-11986000D01*
X20042000Y-11936000D02*
X20142000Y-11936000D01*
X20092000Y-12140000D02*
X20092000Y-12240000D01*
X20042000Y-12190000D02*
X20142000Y-12190000D01*
X20871000Y-7670000D02*
X20871000Y-7770000D01*
X20821000Y-7720000D02*
X20921000Y-7720000D01*
X20871000Y-7924000D02*
X20871000Y-8024000D01*
X20821000Y-7974000D02*
X20921000Y-7974000D01*
X21125000Y-7670000D02*
X21125000Y-7770000D01*
X21075000Y-7720000D02*
X21175000Y-7720000D01*
X21125000Y-7924000D02*
X21125000Y-8024000D01*
X21075000Y-7974000D02*
X21175000Y-7974000D01*
X21379000Y-7670000D02*
X21379000Y-7770000D01*
X21329000Y-7720000D02*
X21429000Y-7720000D01*
X21379000Y-7924000D02*
X21379000Y-8024000D01*
X21329000Y-7974000D02*
X21429000Y-7974000D01*
X21633000Y-7670000D02*
X21633000Y-7770000D01*
X21583000Y-7720000D02*
X21683000Y-7720000D01*
X21633000Y-7924000D02*
X21633000Y-8024000D01*
X21583000Y-7974000D02*
X21683000Y-7974000D01*
D12*
X22270962Y-9382462D02*
X22270962Y-9290538D01*
X22179038Y-9290538D01*
X22179038Y-9382462D01*
X22270962Y-9382462D01*
D10*
X22165000Y-9401500D02*
X22285000Y-9401500D01*
X22285000Y-9271500D02*
G75*
G02*
X22285000Y-9401500I0J-65000D01*
G01*
X22285000Y-9271500D02*
X22165000Y-9271500D01*
X22165000Y-9271500D02*
G75*
G03*
X22165000Y-9401500I0J-65000D01*
G01*
D12*
X22270962Y-9852462D02*
X22270962Y-9760538D01*
X22179038Y-9760538D01*
X22179038Y-9852462D01*
X22270962Y-9852462D01*
D10*
X22165000Y-9871500D02*
X22285000Y-9871500D01*
X22285000Y-9741500D02*
G75*
G02*
X22285000Y-9871500I0J-65000D01*
G01*
X22285000Y-9741500D02*
X22165000Y-9741500D01*
X22165000Y-9741500D02*
G75*
G03*
X22165000Y-9871500I0J-65000D01*
G01*
D13*
X18780000Y-8362000D02*
X18940000Y-8202000D01*
X18780000Y-8042000D01*
X18620000Y-8202000D01*
X18780000Y-8362000D01*
X18784000Y-10077500D02*
X18944000Y-9917500D01*
X18784000Y-9757500D01*
X18624000Y-9917500D01*
X18784000Y-10077500D01*
D11*
X14814277Y-14062484D02*
X14814277Y-13862484D01*
X14814277Y-13862484D02*
X14861896Y-13862484D01*
X14861896Y-13862484D02*
X14890467Y-13872008D01*
X14890467Y-13872008D02*
X14909515Y-13891055D01*
X14909515Y-13891055D02*
X14919039Y-13910103D01*
X14919039Y-13910103D02*
X14928562Y-13948198D01*
X14928562Y-13948198D02*
X14928562Y-13976769D01*
X14928562Y-13976769D02*
X14919039Y-14014865D01*
X14919039Y-14014865D02*
X14909515Y-14033912D01*
X14909515Y-14033912D02*
X14890467Y-14052960D01*
X14890467Y-14052960D02*
X14861896Y-14062484D01*
X14861896Y-14062484D02*
X14814277Y-14062484D01*
X15014277Y-14062484D02*
X15014277Y-13929150D01*
X15014277Y-13967246D02*
X15023801Y-13948198D01*
X15023801Y-13948198D02*
X15033324Y-13938674D01*
X15033324Y-13938674D02*
X15052372Y-13929150D01*
X15052372Y-13929150D02*
X15071420Y-13929150D01*
X15138086Y-14062484D02*
X15138086Y-13929150D01*
X15138086Y-13862484D02*
X15128562Y-13872008D01*
X15128562Y-13872008D02*
X15138086Y-13881531D01*
X15138086Y-13881531D02*
X15147610Y-13872008D01*
X15147610Y-13872008D02*
X15138086Y-13862484D01*
X15138086Y-13862484D02*
X15138086Y-13881531D01*
X15261896Y-14062484D02*
X15242848Y-14052960D01*
X15242848Y-14052960D02*
X15233324Y-14033912D01*
X15233324Y-14033912D02*
X15233324Y-13862484D01*
X15366658Y-14062484D02*
X15347610Y-14052960D01*
X15347610Y-14052960D02*
X15338086Y-14033912D01*
X15338086Y-14033912D02*
X15338086Y-13862484D01*
X15595229Y-14062484D02*
X15595229Y-13862484D01*
X15595229Y-13862484D02*
X15661896Y-14005341D01*
X15661896Y-14005341D02*
X15728562Y-13862484D01*
X15728562Y-13862484D02*
X15728562Y-14062484D01*
X15909515Y-14062484D02*
X15909515Y-13957722D01*
X15909515Y-13957722D02*
X15899991Y-13938674D01*
X15899991Y-13938674D02*
X15880943Y-13929150D01*
X15880943Y-13929150D02*
X15842848Y-13929150D01*
X15842848Y-13929150D02*
X15823801Y-13938674D01*
X15909515Y-14052960D02*
X15890467Y-14062484D01*
X15890467Y-14062484D02*
X15842848Y-14062484D01*
X15842848Y-14062484D02*
X15823801Y-14052960D01*
X15823801Y-14052960D02*
X15814277Y-14033912D01*
X15814277Y-14033912D02*
X15814277Y-14014865D01*
X15814277Y-14014865D02*
X15823801Y-13995817D01*
X15823801Y-13995817D02*
X15842848Y-13986293D01*
X15842848Y-13986293D02*
X15890467Y-13986293D01*
X15890467Y-13986293D02*
X15909515Y-13976769D01*
X16004753Y-13929150D02*
X16004753Y-14129150D01*
X16004753Y-13938674D02*
X16023801Y-13929150D01*
X16023801Y-13929150D02*
X16061896Y-13929150D01*
X16061896Y-13929150D02*
X16080943Y-13938674D01*
X16080943Y-13938674D02*
X16090467Y-13948198D01*
X16090467Y-13948198D02*
X16099991Y-13967246D01*
X16099991Y-13967246D02*
X16099991Y-14024388D01*
X16099991Y-14024388D02*
X16090467Y-14043436D01*
X16090467Y-14043436D02*
X16080943Y-14052960D01*
X16080943Y-14052960D02*
X16061896Y-14062484D01*
X16061896Y-14062484D02*
X16023801Y-14062484D01*
X16023801Y-14062484D02*
X16004753Y-14052960D01*
X16185705Y-14043436D02*
X16195229Y-14052960D01*
X16195229Y-14052960D02*
X16185705Y-14062484D01*
X16185705Y-14062484D02*
X16176182Y-14052960D01*
X16176182Y-14052960D02*
X16185705Y-14043436D01*
X16185705Y-14043436D02*
X16185705Y-14062484D01*
X16185705Y-13938674D02*
X16195229Y-13948198D01*
X16195229Y-13948198D02*
X16185705Y-13957722D01*
X16185705Y-13957722D02*
X16176182Y-13948198D01*
X16176182Y-13948198D02*
X16185705Y-13938674D01*
X16185705Y-13938674D02*
X16185705Y-13957722D01*
D10*
X14513500Y-14371000D02*
X14553500Y-14411000D01*
X14553500Y-14371000D02*
X14513500Y-14411000D01*
D11*
X14852372Y-14282484D02*
X14871420Y-14282484D01*
X14871420Y-14282484D02*
X14890467Y-14292008D01*
X14890467Y-14292008D02*
X14899991Y-14301531D01*
X14899991Y-14301531D02*
X14909515Y-14320579D01*
X14909515Y-14320579D02*
X14919039Y-14358674D01*
X14919039Y-14358674D02*
X14919039Y-14406293D01*
X14919039Y-14406293D02*
X14909515Y-14444388D01*
X14909515Y-14444388D02*
X14899991Y-14463436D01*
X14899991Y-14463436D02*
X14890467Y-14472960D01*
X14890467Y-14472960D02*
X14871420Y-14482484D01*
X14871420Y-14482484D02*
X14852372Y-14482484D01*
X14852372Y-14482484D02*
X14833324Y-14472960D01*
X14833324Y-14472960D02*
X14823801Y-14463436D01*
X14823801Y-14463436D02*
X14814277Y-14444388D01*
X14814277Y-14444388D02*
X14804753Y-14406293D01*
X14804753Y-14406293D02*
X14804753Y-14358674D01*
X14804753Y-14358674D02*
X14814277Y-14320579D01*
X14814277Y-14320579D02*
X14823801Y-14301531D01*
X14823801Y-14301531D02*
X14833324Y-14292008D01*
X14833324Y-14292008D02*
X14852372Y-14282484D01*
X15004753Y-14463436D02*
X15014277Y-14472960D01*
X15014277Y-14472960D02*
X15004753Y-14482484D01*
X15004753Y-14482484D02*
X14995229Y-14472960D01*
X14995229Y-14472960D02*
X15004753Y-14463436D01*
X15004753Y-14463436D02*
X15004753Y-14482484D01*
X15185705Y-14349150D02*
X15185705Y-14482484D01*
X15138086Y-14272960D02*
X15090467Y-14415817D01*
X15090467Y-14415817D02*
X15214277Y-14415817D01*
X15328562Y-14282484D02*
X15347610Y-14282484D01*
X15347610Y-14282484D02*
X15366658Y-14292008D01*
X15366658Y-14292008D02*
X15376182Y-14301531D01*
X15376182Y-14301531D02*
X15385705Y-14320579D01*
X15385705Y-14320579D02*
X15395229Y-14358674D01*
X15395229Y-14358674D02*
X15395229Y-14406293D01*
X15395229Y-14406293D02*
X15385705Y-14444388D01*
X15385705Y-14444388D02*
X15376182Y-14463436D01*
X15376182Y-14463436D02*
X15366658Y-14472960D01*
X15366658Y-14472960D02*
X15347610Y-14482484D01*
X15347610Y-14482484D02*
X15328562Y-14482484D01*
X15328562Y-14482484D02*
X15309515Y-14472960D01*
X15309515Y-14472960D02*
X15299991Y-14463436D01*
X15299991Y-14463436D02*
X15290467Y-14444388D01*
X15290467Y-14444388D02*
X15280943Y-14406293D01*
X15280943Y-14406293D02*
X15280943Y-14358674D01*
X15280943Y-14358674D02*
X15290467Y-14320579D01*
X15290467Y-14320579D02*
X15299991Y-14301531D01*
X15299991Y-14301531D02*
X15309515Y-14292008D01*
X15309515Y-14292008D02*
X15328562Y-14282484D01*
X15519039Y-14282484D02*
X15538086Y-14282484D01*
X15538086Y-14282484D02*
X15557134Y-14292008D01*
X15557134Y-14292008D02*
X15566658Y-14301531D01*
X15566658Y-14301531D02*
X15576182Y-14320579D01*
X15576182Y-14320579D02*
X15585705Y-14358674D01*
X15585705Y-14358674D02*
X15585705Y-14406293D01*
X15585705Y-14406293D02*
X15576182Y-14444388D01*
X15576182Y-14444388D02*
X15566658Y-14463436D01*
X15566658Y-14463436D02*
X15557134Y-14472960D01*
X15557134Y-14472960D02*
X15538086Y-14482484D01*
X15538086Y-14482484D02*
X15519039Y-14482484D01*
X15519039Y-14482484D02*
X15499991Y-14472960D01*
X15499991Y-14472960D02*
X15490467Y-14463436D01*
X15490467Y-14463436D02*
X15480943Y-14444388D01*
X15480943Y-14444388D02*
X15471420Y-14406293D01*
X15471420Y-14406293D02*
X15471420Y-14358674D01*
X15471420Y-14358674D02*
X15480943Y-14320579D01*
X15480943Y-14320579D02*
X15490467Y-14301531D01*
X15490467Y-14301531D02*
X15499991Y-14292008D01*
X15499991Y-14292008D02*
X15519039Y-14282484D01*
X15671420Y-14482484D02*
X15671420Y-14349150D01*
X15671420Y-14368198D02*
X15680943Y-14358674D01*
X15680943Y-14358674D02*
X15699991Y-14349150D01*
X15699991Y-14349150D02*
X15728563Y-14349150D01*
X15728563Y-14349150D02*
X15747610Y-14358674D01*
X15747610Y-14358674D02*
X15757134Y-14377722D01*
X15757134Y-14377722D02*
X15757134Y-14482484D01*
X15757134Y-14377722D02*
X15766658Y-14358674D01*
X15766658Y-14358674D02*
X15785705Y-14349150D01*
X15785705Y-14349150D02*
X15814277Y-14349150D01*
X15814277Y-14349150D02*
X15833324Y-14358674D01*
X15833324Y-14358674D02*
X15842848Y-14377722D01*
X15842848Y-14377722D02*
X15842848Y-14482484D01*
X15938086Y-14482484D02*
X15938086Y-14349150D01*
X15938086Y-14368198D02*
X15947610Y-14358674D01*
X15947610Y-14358674D02*
X15966658Y-14349150D01*
X15966658Y-14349150D02*
X15995229Y-14349150D01*
X15995229Y-14349150D02*
X16014277Y-14358674D01*
X16014277Y-14358674D02*
X16023801Y-14377722D01*
X16023801Y-14377722D02*
X16023801Y-14482484D01*
X16023801Y-14377722D02*
X16033324Y-14358674D01*
X16033324Y-14358674D02*
X16052372Y-14349150D01*
X16052372Y-14349150D02*
X16080943Y-14349150D01*
X16080943Y-14349150D02*
X16099991Y-14358674D01*
X16099991Y-14358674D02*
X16109515Y-14377722D01*
X16109515Y-14377722D02*
X16109515Y-14482484D01*
X16499991Y-14272960D02*
X16328563Y-14530103D01*
X16757134Y-14282484D02*
X16776182Y-14282484D01*
X16776182Y-14282484D02*
X16795229Y-14292008D01*
X16795229Y-14292008D02*
X16804753Y-14301531D01*
X16804753Y-14301531D02*
X16814277Y-14320579D01*
X16814277Y-14320579D02*
X16823801Y-14358674D01*
X16823801Y-14358674D02*
X16823801Y-14406293D01*
X16823801Y-14406293D02*
X16814277Y-14444388D01*
X16814277Y-14444388D02*
X16804753Y-14463436D01*
X16804753Y-14463436D02*
X16795229Y-14472960D01*
X16795229Y-14472960D02*
X16776182Y-14482484D01*
X16776182Y-14482484D02*
X16757134Y-14482484D01*
X16757134Y-14482484D02*
X16738086Y-14472960D01*
X16738086Y-14472960D02*
X16728563Y-14463436D01*
X16728563Y-14463436D02*
X16719039Y-14444388D01*
X16719039Y-14444388D02*
X16709515Y-14406293D01*
X16709515Y-14406293D02*
X16709515Y-14358674D01*
X16709515Y-14358674D02*
X16719039Y-14320579D01*
X16719039Y-14320579D02*
X16728563Y-14301531D01*
X16728563Y-14301531D02*
X16738086Y-14292008D01*
X16738086Y-14292008D02*
X16757134Y-14282484D01*
X16909515Y-14463436D02*
X16919039Y-14472960D01*
X16919039Y-14472960D02*
X16909515Y-14482484D01*
X16909515Y-14482484D02*
X16899991Y-14472960D01*
X16899991Y-14472960D02*
X16909515Y-14463436D01*
X16909515Y-14463436D02*
X16909515Y-14482484D01*
X17042848Y-14282484D02*
X17061896Y-14282484D01*
X17061896Y-14282484D02*
X17080944Y-14292008D01*
X17080944Y-14292008D02*
X17090468Y-14301531D01*
X17090468Y-14301531D02*
X17099991Y-14320579D01*
X17099991Y-14320579D02*
X17109515Y-14358674D01*
X17109515Y-14358674D02*
X17109515Y-14406293D01*
X17109515Y-14406293D02*
X17099991Y-14444388D01*
X17099991Y-14444388D02*
X17090468Y-14463436D01*
X17090468Y-14463436D02*
X17080944Y-14472960D01*
X17080944Y-14472960D02*
X17061896Y-14482484D01*
X17061896Y-14482484D02*
X17042848Y-14482484D01*
X17042848Y-14482484D02*
X17023801Y-14472960D01*
X17023801Y-14472960D02*
X17014277Y-14463436D01*
X17014277Y-14463436D02*
X17004753Y-14444388D01*
X17004753Y-14444388D02*
X16995229Y-14406293D01*
X16995229Y-14406293D02*
X16995229Y-14358674D01*
X16995229Y-14358674D02*
X17004753Y-14320579D01*
X17004753Y-14320579D02*
X17014277Y-14301531D01*
X17014277Y-14301531D02*
X17023801Y-14292008D01*
X17023801Y-14292008D02*
X17042848Y-14282484D01*
X17299991Y-14482484D02*
X17185706Y-14482484D01*
X17242848Y-14482484D02*
X17242848Y-14282484D01*
X17242848Y-14282484D02*
X17223801Y-14311055D01*
X17223801Y-14311055D02*
X17204753Y-14330103D01*
X17204753Y-14330103D02*
X17185706Y-14339627D01*
X17480944Y-14282484D02*
X17385706Y-14282484D01*
X17385706Y-14282484D02*
X17376182Y-14377722D01*
X17376182Y-14377722D02*
X17385706Y-14368198D01*
X17385706Y-14368198D02*
X17404753Y-14358674D01*
X17404753Y-14358674D02*
X17452372Y-14358674D01*
X17452372Y-14358674D02*
X17471420Y-14368198D01*
X17471420Y-14368198D02*
X17480944Y-14377722D01*
X17480944Y-14377722D02*
X17490468Y-14396769D01*
X17490468Y-14396769D02*
X17490468Y-14444388D01*
X17490468Y-14444388D02*
X17480944Y-14463436D01*
X17480944Y-14463436D02*
X17471420Y-14472960D01*
X17471420Y-14472960D02*
X17452372Y-14482484D01*
X17452372Y-14482484D02*
X17404753Y-14482484D01*
X17404753Y-14482484D02*
X17385706Y-14472960D01*
X17385706Y-14472960D02*
X17376182Y-14463436D01*
X17557134Y-14282484D02*
X17690468Y-14282484D01*
X17690468Y-14282484D02*
X17604753Y-14482484D01*
X17757134Y-14282484D02*
X17757134Y-14320579D01*
X17833325Y-14282484D02*
X17833325Y-14320579D01*
X18128563Y-14558674D02*
X18119039Y-14549150D01*
X18119039Y-14549150D02*
X18099991Y-14520579D01*
X18099991Y-14520579D02*
X18090468Y-14501531D01*
X18090468Y-14501531D02*
X18080944Y-14472960D01*
X18080944Y-14472960D02*
X18071420Y-14425341D01*
X18071420Y-14425341D02*
X18071420Y-14387246D01*
X18071420Y-14387246D02*
X18080944Y-14339627D01*
X18080944Y-14339627D02*
X18090468Y-14311055D01*
X18090468Y-14311055D02*
X18099991Y-14292008D01*
X18099991Y-14292008D02*
X18119039Y-14263436D01*
X18119039Y-14263436D02*
X18128563Y-14253912D01*
X18309515Y-14482484D02*
X18195230Y-14482484D01*
X18252372Y-14482484D02*
X18252372Y-14282484D01*
X18252372Y-14282484D02*
X18233325Y-14311055D01*
X18233325Y-14311055D02*
X18214277Y-14330103D01*
X18214277Y-14330103D02*
X18195230Y-14339627D01*
X18433325Y-14282484D02*
X18452372Y-14282484D01*
X18452372Y-14282484D02*
X18471420Y-14292008D01*
X18471420Y-14292008D02*
X18480944Y-14301531D01*
X18480944Y-14301531D02*
X18490468Y-14320579D01*
X18490468Y-14320579D02*
X18499991Y-14358674D01*
X18499991Y-14358674D02*
X18499991Y-14406293D01*
X18499991Y-14406293D02*
X18490468Y-14444388D01*
X18490468Y-14444388D02*
X18480944Y-14463436D01*
X18480944Y-14463436D02*
X18471420Y-14472960D01*
X18471420Y-14472960D02*
X18452372Y-14482484D01*
X18452372Y-14482484D02*
X18433325Y-14482484D01*
X18433325Y-14482484D02*
X18414277Y-14472960D01*
X18414277Y-14472960D02*
X18404753Y-14463436D01*
X18404753Y-14463436D02*
X18395230Y-14444388D01*
X18395230Y-14444388D02*
X18385706Y-14406293D01*
X18385706Y-14406293D02*
X18385706Y-14358674D01*
X18385706Y-14358674D02*
X18395230Y-14320579D01*
X18395230Y-14320579D02*
X18404753Y-14301531D01*
X18404753Y-14301531D02*
X18414277Y-14292008D01*
X18414277Y-14292008D02*
X18433325Y-14282484D01*
X18738087Y-14482484D02*
X18738087Y-14282484D01*
X18823801Y-14482484D02*
X18823801Y-14377722D01*
X18823801Y-14377722D02*
X18814277Y-14358674D01*
X18814277Y-14358674D02*
X18795230Y-14349150D01*
X18795230Y-14349150D02*
X18766658Y-14349150D01*
X18766658Y-14349150D02*
X18747611Y-14358674D01*
X18747611Y-14358674D02*
X18738087Y-14368198D01*
X18947611Y-14482484D02*
X18928563Y-14472960D01*
X18928563Y-14472960D02*
X18919039Y-14463436D01*
X18919039Y-14463436D02*
X18909515Y-14444388D01*
X18909515Y-14444388D02*
X18909515Y-14387246D01*
X18909515Y-14387246D02*
X18919039Y-14368198D01*
X18919039Y-14368198D02*
X18928563Y-14358674D01*
X18928563Y-14358674D02*
X18947611Y-14349150D01*
X18947611Y-14349150D02*
X18976182Y-14349150D01*
X18976182Y-14349150D02*
X18995230Y-14358674D01*
X18995230Y-14358674D02*
X19004753Y-14368198D01*
X19004753Y-14368198D02*
X19014277Y-14387246D01*
X19014277Y-14387246D02*
X19014277Y-14444388D01*
X19014277Y-14444388D02*
X19004753Y-14463436D01*
X19004753Y-14463436D02*
X18995230Y-14472960D01*
X18995230Y-14472960D02*
X18976182Y-14482484D01*
X18976182Y-14482484D02*
X18947611Y-14482484D01*
X19128563Y-14482484D02*
X19109515Y-14472960D01*
X19109515Y-14472960D02*
X19099992Y-14453912D01*
X19099992Y-14453912D02*
X19099992Y-14282484D01*
X19280944Y-14472960D02*
X19261896Y-14482484D01*
X19261896Y-14482484D02*
X19223801Y-14482484D01*
X19223801Y-14482484D02*
X19204753Y-14472960D01*
X19204753Y-14472960D02*
X19195230Y-14453912D01*
X19195230Y-14453912D02*
X19195230Y-14377722D01*
X19195230Y-14377722D02*
X19204753Y-14358674D01*
X19204753Y-14358674D02*
X19223801Y-14349150D01*
X19223801Y-14349150D02*
X19261896Y-14349150D01*
X19261896Y-14349150D02*
X19280944Y-14358674D01*
X19280944Y-14358674D02*
X19290468Y-14377722D01*
X19290468Y-14377722D02*
X19290468Y-14396769D01*
X19290468Y-14396769D02*
X19195230Y-14415817D01*
X19366658Y-14472960D02*
X19385706Y-14482484D01*
X19385706Y-14482484D02*
X19423801Y-14482484D01*
X19423801Y-14482484D02*
X19442849Y-14472960D01*
X19442849Y-14472960D02*
X19452373Y-14453912D01*
X19452373Y-14453912D02*
X19452373Y-14444388D01*
X19452373Y-14444388D02*
X19442849Y-14425341D01*
X19442849Y-14425341D02*
X19423801Y-14415817D01*
X19423801Y-14415817D02*
X19395230Y-14415817D01*
X19395230Y-14415817D02*
X19376182Y-14406293D01*
X19376182Y-14406293D02*
X19366658Y-14387246D01*
X19366658Y-14387246D02*
X19366658Y-14377722D01*
X19366658Y-14377722D02*
X19376182Y-14358674D01*
X19376182Y-14358674D02*
X19395230Y-14349150D01*
X19395230Y-14349150D02*
X19423801Y-14349150D01*
X19423801Y-14349150D02*
X19442849Y-14358674D01*
X19519039Y-14558674D02*
X19528563Y-14549150D01*
X19528563Y-14549150D02*
X19547611Y-14520579D01*
X19547611Y-14520579D02*
X19557134Y-14501531D01*
X19557134Y-14501531D02*
X19566658Y-14472960D01*
X19566658Y-14472960D02*
X19576182Y-14425341D01*
X19576182Y-14425341D02*
X19576182Y-14387246D01*
X19576182Y-14387246D02*
X19566658Y-14339627D01*
X19566658Y-14339627D02*
X19557134Y-14311055D01*
X19557134Y-14311055D02*
X19547611Y-14292008D01*
X19547611Y-14292008D02*
X19528563Y-14263436D01*
X19528563Y-14263436D02*
X19519039Y-14253912D01*
D10*
X14553500Y-14655000D02*
G75*
G02*
X14463500Y-14655000I-45000J0D01*
G01*
X14463500Y-14655000D02*
G75*
G02*
X14553500Y-14655000I45000J0D01*
G01*
D11*
X14852372Y-14546484D02*
X14871420Y-14546484D01*
X14871420Y-14546484D02*
X14890467Y-14556008D01*
X14890467Y-14556008D02*
X14899991Y-14565531D01*
X14899991Y-14565531D02*
X14909515Y-14584579D01*
X14909515Y-14584579D02*
X14919039Y-14622674D01*
X14919039Y-14622674D02*
X14919039Y-14670293D01*
X14919039Y-14670293D02*
X14909515Y-14708388D01*
X14909515Y-14708388D02*
X14899991Y-14727436D01*
X14899991Y-14727436D02*
X14890467Y-14736960D01*
X14890467Y-14736960D02*
X14871420Y-14746484D01*
X14871420Y-14746484D02*
X14852372Y-14746484D01*
X14852372Y-14746484D02*
X14833324Y-14736960D01*
X14833324Y-14736960D02*
X14823801Y-14727436D01*
X14823801Y-14727436D02*
X14814277Y-14708388D01*
X14814277Y-14708388D02*
X14804753Y-14670293D01*
X14804753Y-14670293D02*
X14804753Y-14622674D01*
X14804753Y-14622674D02*
X14814277Y-14584579D01*
X14814277Y-14584579D02*
X14823801Y-14565531D01*
X14823801Y-14565531D02*
X14833324Y-14556008D01*
X14833324Y-14556008D02*
X14852372Y-14546484D01*
X15004753Y-14727436D02*
X15014277Y-14736960D01*
X15014277Y-14736960D02*
X15004753Y-14746484D01*
X15004753Y-14746484D02*
X14995229Y-14736960D01*
X14995229Y-14736960D02*
X15004753Y-14727436D01*
X15004753Y-14727436D02*
X15004753Y-14746484D01*
X15109515Y-14746484D02*
X15147610Y-14746484D01*
X15147610Y-14746484D02*
X15166658Y-14736960D01*
X15166658Y-14736960D02*
X15176182Y-14727436D01*
X15176182Y-14727436D02*
X15195229Y-14698865D01*
X15195229Y-14698865D02*
X15204753Y-14660769D01*
X15204753Y-14660769D02*
X15204753Y-14584579D01*
X15204753Y-14584579D02*
X15195229Y-14565531D01*
X15195229Y-14565531D02*
X15185705Y-14556008D01*
X15185705Y-14556008D02*
X15166658Y-14546484D01*
X15166658Y-14546484D02*
X15128562Y-14546484D01*
X15128562Y-14546484D02*
X15109515Y-14556008D01*
X15109515Y-14556008D02*
X15099991Y-14565531D01*
X15099991Y-14565531D02*
X15090467Y-14584579D01*
X15090467Y-14584579D02*
X15090467Y-14632198D01*
X15090467Y-14632198D02*
X15099991Y-14651246D01*
X15099991Y-14651246D02*
X15109515Y-14660769D01*
X15109515Y-14660769D02*
X15128562Y-14670293D01*
X15128562Y-14670293D02*
X15166658Y-14670293D01*
X15166658Y-14670293D02*
X15185705Y-14660769D01*
X15185705Y-14660769D02*
X15195229Y-14651246D01*
X15195229Y-14651246D02*
X15204753Y-14632198D01*
X15328562Y-14546484D02*
X15347610Y-14546484D01*
X15347610Y-14546484D02*
X15366658Y-14556008D01*
X15366658Y-14556008D02*
X15376182Y-14565531D01*
X15376182Y-14565531D02*
X15385705Y-14584579D01*
X15385705Y-14584579D02*
X15395229Y-14622674D01*
X15395229Y-14622674D02*
X15395229Y-14670293D01*
X15395229Y-14670293D02*
X15385705Y-14708388D01*
X15385705Y-14708388D02*
X15376182Y-14727436D01*
X15376182Y-14727436D02*
X15366658Y-14736960D01*
X15366658Y-14736960D02*
X15347610Y-14746484D01*
X15347610Y-14746484D02*
X15328562Y-14746484D01*
X15328562Y-14746484D02*
X15309515Y-14736960D01*
X15309515Y-14736960D02*
X15299991Y-14727436D01*
X15299991Y-14727436D02*
X15290467Y-14708388D01*
X15290467Y-14708388D02*
X15280943Y-14670293D01*
X15280943Y-14670293D02*
X15280943Y-14622674D01*
X15280943Y-14622674D02*
X15290467Y-14584579D01*
X15290467Y-14584579D02*
X15299991Y-14565531D01*
X15299991Y-14565531D02*
X15309515Y-14556008D01*
X15309515Y-14556008D02*
X15328562Y-14546484D01*
X15519039Y-14546484D02*
X15538086Y-14546484D01*
X15538086Y-14546484D02*
X15557134Y-14556008D01*
X15557134Y-14556008D02*
X15566658Y-14565531D01*
X15566658Y-14565531D02*
X15576182Y-14584579D01*
X15576182Y-14584579D02*
X15585705Y-14622674D01*
X15585705Y-14622674D02*
X15585705Y-14670293D01*
X15585705Y-14670293D02*
X15576182Y-14708388D01*
X15576182Y-14708388D02*
X15566658Y-14727436D01*
X15566658Y-14727436D02*
X15557134Y-14736960D01*
X15557134Y-14736960D02*
X15538086Y-14746484D01*
X15538086Y-14746484D02*
X15519039Y-14746484D01*
X15519039Y-14746484D02*
X15499991Y-14736960D01*
X15499991Y-14736960D02*
X15490467Y-14727436D01*
X15490467Y-14727436D02*
X15480943Y-14708388D01*
X15480943Y-14708388D02*
X15471420Y-14670293D01*
X15471420Y-14670293D02*
X15471420Y-14622674D01*
X15471420Y-14622674D02*
X15480943Y-14584579D01*
X15480943Y-14584579D02*
X15490467Y-14565531D01*
X15490467Y-14565531D02*
X15499991Y-14556008D01*
X15499991Y-14556008D02*
X15519039Y-14546484D01*
X15671420Y-14746484D02*
X15671420Y-14613150D01*
X15671420Y-14632198D02*
X15680943Y-14622674D01*
X15680943Y-14622674D02*
X15699991Y-14613150D01*
X15699991Y-14613150D02*
X15728563Y-14613150D01*
X15728563Y-14613150D02*
X15747610Y-14622674D01*
X15747610Y-14622674D02*
X15757134Y-14641722D01*
X15757134Y-14641722D02*
X15757134Y-14746484D01*
X15757134Y-14641722D02*
X15766658Y-14622674D01*
X15766658Y-14622674D02*
X15785705Y-14613150D01*
X15785705Y-14613150D02*
X15814277Y-14613150D01*
X15814277Y-14613150D02*
X15833324Y-14622674D01*
X15833324Y-14622674D02*
X15842848Y-14641722D01*
X15842848Y-14641722D02*
X15842848Y-14746484D01*
X15938086Y-14746484D02*
X15938086Y-14613150D01*
X15938086Y-14632198D02*
X15947610Y-14622674D01*
X15947610Y-14622674D02*
X15966658Y-14613150D01*
X15966658Y-14613150D02*
X15995229Y-14613150D01*
X15995229Y-14613150D02*
X16014277Y-14622674D01*
X16014277Y-14622674D02*
X16023801Y-14641722D01*
X16023801Y-14641722D02*
X16023801Y-14746484D01*
X16023801Y-14641722D02*
X16033324Y-14622674D01*
X16033324Y-14622674D02*
X16052372Y-14613150D01*
X16052372Y-14613150D02*
X16080943Y-14613150D01*
X16080943Y-14613150D02*
X16099991Y-14622674D01*
X16099991Y-14622674D02*
X16109515Y-14641722D01*
X16109515Y-14641722D02*
X16109515Y-14746484D01*
X16499991Y-14536960D02*
X16328563Y-14794103D01*
X16757134Y-14546484D02*
X16776182Y-14546484D01*
X16776182Y-14546484D02*
X16795229Y-14556008D01*
X16795229Y-14556008D02*
X16804753Y-14565531D01*
X16804753Y-14565531D02*
X16814277Y-14584579D01*
X16814277Y-14584579D02*
X16823801Y-14622674D01*
X16823801Y-14622674D02*
X16823801Y-14670293D01*
X16823801Y-14670293D02*
X16814277Y-14708388D01*
X16814277Y-14708388D02*
X16804753Y-14727436D01*
X16804753Y-14727436D02*
X16795229Y-14736960D01*
X16795229Y-14736960D02*
X16776182Y-14746484D01*
X16776182Y-14746484D02*
X16757134Y-14746484D01*
X16757134Y-14746484D02*
X16738086Y-14736960D01*
X16738086Y-14736960D02*
X16728563Y-14727436D01*
X16728563Y-14727436D02*
X16719039Y-14708388D01*
X16719039Y-14708388D02*
X16709515Y-14670293D01*
X16709515Y-14670293D02*
X16709515Y-14622674D01*
X16709515Y-14622674D02*
X16719039Y-14584579D01*
X16719039Y-14584579D02*
X16728563Y-14565531D01*
X16728563Y-14565531D02*
X16738086Y-14556008D01*
X16738086Y-14556008D02*
X16757134Y-14546484D01*
X16909515Y-14727436D02*
X16919039Y-14736960D01*
X16919039Y-14736960D02*
X16909515Y-14746484D01*
X16909515Y-14746484D02*
X16899991Y-14736960D01*
X16899991Y-14736960D02*
X16909515Y-14727436D01*
X16909515Y-14727436D02*
X16909515Y-14746484D01*
X17042848Y-14546484D02*
X17061896Y-14546484D01*
X17061896Y-14546484D02*
X17080944Y-14556008D01*
X17080944Y-14556008D02*
X17090468Y-14565531D01*
X17090468Y-14565531D02*
X17099991Y-14584579D01*
X17099991Y-14584579D02*
X17109515Y-14622674D01*
X17109515Y-14622674D02*
X17109515Y-14670293D01*
X17109515Y-14670293D02*
X17099991Y-14708388D01*
X17099991Y-14708388D02*
X17090468Y-14727436D01*
X17090468Y-14727436D02*
X17080944Y-14736960D01*
X17080944Y-14736960D02*
X17061896Y-14746484D01*
X17061896Y-14746484D02*
X17042848Y-14746484D01*
X17042848Y-14746484D02*
X17023801Y-14736960D01*
X17023801Y-14736960D02*
X17014277Y-14727436D01*
X17014277Y-14727436D02*
X17004753Y-14708388D01*
X17004753Y-14708388D02*
X16995229Y-14670293D01*
X16995229Y-14670293D02*
X16995229Y-14622674D01*
X16995229Y-14622674D02*
X17004753Y-14584579D01*
X17004753Y-14584579D02*
X17014277Y-14565531D01*
X17014277Y-14565531D02*
X17023801Y-14556008D01*
X17023801Y-14556008D02*
X17042848Y-14546484D01*
X17176182Y-14546484D02*
X17299991Y-14546484D01*
X17299991Y-14546484D02*
X17233325Y-14622674D01*
X17233325Y-14622674D02*
X17261896Y-14622674D01*
X17261896Y-14622674D02*
X17280944Y-14632198D01*
X17280944Y-14632198D02*
X17290468Y-14641722D01*
X17290468Y-14641722D02*
X17299991Y-14660769D01*
X17299991Y-14660769D02*
X17299991Y-14708388D01*
X17299991Y-14708388D02*
X17290468Y-14727436D01*
X17290468Y-14727436D02*
X17280944Y-14736960D01*
X17280944Y-14736960D02*
X17261896Y-14746484D01*
X17261896Y-14746484D02*
X17204753Y-14746484D01*
X17204753Y-14746484D02*
X17185706Y-14736960D01*
X17185706Y-14736960D02*
X17176182Y-14727436D01*
X17480944Y-14546484D02*
X17385706Y-14546484D01*
X17385706Y-14546484D02*
X17376182Y-14641722D01*
X17376182Y-14641722D02*
X17385706Y-14632198D01*
X17385706Y-14632198D02*
X17404753Y-14622674D01*
X17404753Y-14622674D02*
X17452372Y-14622674D01*
X17452372Y-14622674D02*
X17471420Y-14632198D01*
X17471420Y-14632198D02*
X17480944Y-14641722D01*
X17480944Y-14641722D02*
X17490468Y-14660769D01*
X17490468Y-14660769D02*
X17490468Y-14708388D01*
X17490468Y-14708388D02*
X17480944Y-14727436D01*
X17480944Y-14727436D02*
X17471420Y-14736960D01*
X17471420Y-14736960D02*
X17452372Y-14746484D01*
X17452372Y-14746484D02*
X17404753Y-14746484D01*
X17404753Y-14746484D02*
X17385706Y-14736960D01*
X17385706Y-14736960D02*
X17376182Y-14727436D01*
X17661896Y-14613150D02*
X17661896Y-14746484D01*
X17614277Y-14536960D02*
X17566658Y-14679817D01*
X17566658Y-14679817D02*
X17690468Y-14679817D01*
X17757134Y-14546484D02*
X17757134Y-14584579D01*
X17833325Y-14546484D02*
X17833325Y-14584579D01*
X18128563Y-14822674D02*
X18119039Y-14813150D01*
X18119039Y-14813150D02*
X18099991Y-14784579D01*
X18099991Y-14784579D02*
X18090468Y-14765531D01*
X18090468Y-14765531D02*
X18080944Y-14736960D01*
X18080944Y-14736960D02*
X18071420Y-14689341D01*
X18071420Y-14689341D02*
X18071420Y-14651246D01*
X18071420Y-14651246D02*
X18080944Y-14603627D01*
X18080944Y-14603627D02*
X18090468Y-14575055D01*
X18090468Y-14575055D02*
X18099991Y-14556008D01*
X18099991Y-14556008D02*
X18119039Y-14527436D01*
X18119039Y-14527436D02*
X18128563Y-14517912D01*
X18290468Y-14613150D02*
X18290468Y-14746484D01*
X18242849Y-14536960D02*
X18195230Y-14679817D01*
X18195230Y-14679817D02*
X18319039Y-14679817D01*
X18547611Y-14746484D02*
X18547611Y-14546484D01*
X18633325Y-14746484D02*
X18633325Y-14641722D01*
X18633325Y-14641722D02*
X18623801Y-14622674D01*
X18623801Y-14622674D02*
X18604753Y-14613150D01*
X18604753Y-14613150D02*
X18576182Y-14613150D01*
X18576182Y-14613150D02*
X18557134Y-14622674D01*
X18557134Y-14622674D02*
X18547611Y-14632198D01*
X18757134Y-14746484D02*
X18738087Y-14736960D01*
X18738087Y-14736960D02*
X18728563Y-14727436D01*
X18728563Y-14727436D02*
X18719039Y-14708388D01*
X18719039Y-14708388D02*
X18719039Y-14651246D01*
X18719039Y-14651246D02*
X18728563Y-14632198D01*
X18728563Y-14632198D02*
X18738087Y-14622674D01*
X18738087Y-14622674D02*
X18757134Y-14613150D01*
X18757134Y-14613150D02*
X18785706Y-14613150D01*
X18785706Y-14613150D02*
X18804753Y-14622674D01*
X18804753Y-14622674D02*
X18814277Y-14632198D01*
X18814277Y-14632198D02*
X18823801Y-14651246D01*
X18823801Y-14651246D02*
X18823801Y-14708388D01*
X18823801Y-14708388D02*
X18814277Y-14727436D01*
X18814277Y-14727436D02*
X18804753Y-14736960D01*
X18804753Y-14736960D02*
X18785706Y-14746484D01*
X18785706Y-14746484D02*
X18757134Y-14746484D01*
X18938087Y-14746484D02*
X18919039Y-14736960D01*
X18919039Y-14736960D02*
X18909515Y-14717912D01*
X18909515Y-14717912D02*
X18909515Y-14546484D01*
X19090468Y-14736960D02*
X19071420Y-14746484D01*
X19071420Y-14746484D02*
X19033325Y-14746484D01*
X19033325Y-14746484D02*
X19014277Y-14736960D01*
X19014277Y-14736960D02*
X19004753Y-14717912D01*
X19004753Y-14717912D02*
X19004753Y-14641722D01*
X19004753Y-14641722D02*
X19014277Y-14622674D01*
X19014277Y-14622674D02*
X19033325Y-14613150D01*
X19033325Y-14613150D02*
X19071420Y-14613150D01*
X19071420Y-14613150D02*
X19090468Y-14622674D01*
X19090468Y-14622674D02*
X19099992Y-14641722D01*
X19099992Y-14641722D02*
X19099992Y-14660769D01*
X19099992Y-14660769D02*
X19004753Y-14679817D01*
X19176182Y-14736960D02*
X19195230Y-14746484D01*
X19195230Y-14746484D02*
X19233325Y-14746484D01*
X19233325Y-14746484D02*
X19252373Y-14736960D01*
X19252373Y-14736960D02*
X19261896Y-14717912D01*
X19261896Y-14717912D02*
X19261896Y-14708388D01*
X19261896Y-14708388D02*
X19252373Y-14689341D01*
X19252373Y-14689341D02*
X19233325Y-14679817D01*
X19233325Y-14679817D02*
X19204753Y-14679817D01*
X19204753Y-14679817D02*
X19185706Y-14670293D01*
X19185706Y-14670293D02*
X19176182Y-14651246D01*
X19176182Y-14651246D02*
X19176182Y-14641722D01*
X19176182Y-14641722D02*
X19185706Y-14622674D01*
X19185706Y-14622674D02*
X19204753Y-14613150D01*
X19204753Y-14613150D02*
X19233325Y-14613150D01*
X19233325Y-14613150D02*
X19252373Y-14622674D01*
X19328563Y-14822674D02*
X19338087Y-14813150D01*
X19338087Y-14813150D02*
X19357134Y-14784579D01*
X19357134Y-14784579D02*
X19366658Y-14765531D01*
X19366658Y-14765531D02*
X19376182Y-14736960D01*
X19376182Y-14736960D02*
X19385706Y-14689341D01*
X19385706Y-14689341D02*
X19385706Y-14651246D01*
X19385706Y-14651246D02*
X19376182Y-14603627D01*
X19376182Y-14603627D02*
X19366658Y-14575055D01*
X19366658Y-14575055D02*
X19357134Y-14556008D01*
X19357134Y-14556008D02*
X19338087Y-14527436D01*
X19338087Y-14527436D02*
X19328563Y-14517912D01*
D10*
X14503500Y-14869000D02*
X14503500Y-14969000D01*
X14453500Y-14919000D02*
X14553500Y-14919000D01*
D11*
X14919039Y-15010484D02*
X14804753Y-15010484D01*
X14861896Y-15010484D02*
X14861896Y-14810484D01*
X14861896Y-14810484D02*
X14842848Y-14839055D01*
X14842848Y-14839055D02*
X14823801Y-14858103D01*
X14823801Y-14858103D02*
X14804753Y-14867627D01*
X15004753Y-14991436D02*
X15014277Y-15000960D01*
X15014277Y-15000960D02*
X15004753Y-15010484D01*
X15004753Y-15010484D02*
X14995229Y-15000960D01*
X14995229Y-15000960D02*
X15004753Y-14991436D01*
X15004753Y-14991436D02*
X15004753Y-15010484D01*
X15138086Y-14810484D02*
X15157134Y-14810484D01*
X15157134Y-14810484D02*
X15176182Y-14820008D01*
X15176182Y-14820008D02*
X15185705Y-14829531D01*
X15185705Y-14829531D02*
X15195229Y-14848579D01*
X15195229Y-14848579D02*
X15204753Y-14886674D01*
X15204753Y-14886674D02*
X15204753Y-14934293D01*
X15204753Y-14934293D02*
X15195229Y-14972388D01*
X15195229Y-14972388D02*
X15185705Y-14991436D01*
X15185705Y-14991436D02*
X15176182Y-15000960D01*
X15176182Y-15000960D02*
X15157134Y-15010484D01*
X15157134Y-15010484D02*
X15138086Y-15010484D01*
X15138086Y-15010484D02*
X15119039Y-15000960D01*
X15119039Y-15000960D02*
X15109515Y-14991436D01*
X15109515Y-14991436D02*
X15099991Y-14972388D01*
X15099991Y-14972388D02*
X15090467Y-14934293D01*
X15090467Y-14934293D02*
X15090467Y-14886674D01*
X15090467Y-14886674D02*
X15099991Y-14848579D01*
X15099991Y-14848579D02*
X15109515Y-14829531D01*
X15109515Y-14829531D02*
X15119039Y-14820008D01*
X15119039Y-14820008D02*
X15138086Y-14810484D01*
X15328562Y-14810484D02*
X15347610Y-14810484D01*
X15347610Y-14810484D02*
X15366658Y-14820008D01*
X15366658Y-14820008D02*
X15376182Y-14829531D01*
X15376182Y-14829531D02*
X15385705Y-14848579D01*
X15385705Y-14848579D02*
X15395229Y-14886674D01*
X15395229Y-14886674D02*
X15395229Y-14934293D01*
X15395229Y-14934293D02*
X15385705Y-14972388D01*
X15385705Y-14972388D02*
X15376182Y-14991436D01*
X15376182Y-14991436D02*
X15366658Y-15000960D01*
X15366658Y-15000960D02*
X15347610Y-15010484D01*
X15347610Y-15010484D02*
X15328562Y-15010484D01*
X15328562Y-15010484D02*
X15309515Y-15000960D01*
X15309515Y-15000960D02*
X15299991Y-14991436D01*
X15299991Y-14991436D02*
X15290467Y-14972388D01*
X15290467Y-14972388D02*
X15280943Y-14934293D01*
X15280943Y-14934293D02*
X15280943Y-14886674D01*
X15280943Y-14886674D02*
X15290467Y-14848579D01*
X15290467Y-14848579D02*
X15299991Y-14829531D01*
X15299991Y-14829531D02*
X15309515Y-14820008D01*
X15309515Y-14820008D02*
X15328562Y-14810484D01*
X15519039Y-14810484D02*
X15538086Y-14810484D01*
X15538086Y-14810484D02*
X15557134Y-14820008D01*
X15557134Y-14820008D02*
X15566658Y-14829531D01*
X15566658Y-14829531D02*
X15576182Y-14848579D01*
X15576182Y-14848579D02*
X15585705Y-14886674D01*
X15585705Y-14886674D02*
X15585705Y-14934293D01*
X15585705Y-14934293D02*
X15576182Y-14972388D01*
X15576182Y-14972388D02*
X15566658Y-14991436D01*
X15566658Y-14991436D02*
X15557134Y-15000960D01*
X15557134Y-15000960D02*
X15538086Y-15010484D01*
X15538086Y-15010484D02*
X15519039Y-15010484D01*
X15519039Y-15010484D02*
X15499991Y-15000960D01*
X15499991Y-15000960D02*
X15490467Y-14991436D01*
X15490467Y-14991436D02*
X15480943Y-14972388D01*
X15480943Y-14972388D02*
X15471420Y-14934293D01*
X15471420Y-14934293D02*
X15471420Y-14886674D01*
X15471420Y-14886674D02*
X15480943Y-14848579D01*
X15480943Y-14848579D02*
X15490467Y-14829531D01*
X15490467Y-14829531D02*
X15499991Y-14820008D01*
X15499991Y-14820008D02*
X15519039Y-14810484D01*
X15671420Y-15010484D02*
X15671420Y-14877150D01*
X15671420Y-14896198D02*
X15680943Y-14886674D01*
X15680943Y-14886674D02*
X15699991Y-14877150D01*
X15699991Y-14877150D02*
X15728563Y-14877150D01*
X15728563Y-14877150D02*
X15747610Y-14886674D01*
X15747610Y-14886674D02*
X15757134Y-14905722D01*
X15757134Y-14905722D02*
X15757134Y-15010484D01*
X15757134Y-14905722D02*
X15766658Y-14886674D01*
X15766658Y-14886674D02*
X15785705Y-14877150D01*
X15785705Y-14877150D02*
X15814277Y-14877150D01*
X15814277Y-14877150D02*
X15833324Y-14886674D01*
X15833324Y-14886674D02*
X15842848Y-14905722D01*
X15842848Y-14905722D02*
X15842848Y-15010484D01*
X15938086Y-15010484D02*
X15938086Y-14877150D01*
X15938086Y-14896198D02*
X15947610Y-14886674D01*
X15947610Y-14886674D02*
X15966658Y-14877150D01*
X15966658Y-14877150D02*
X15995229Y-14877150D01*
X15995229Y-14877150D02*
X16014277Y-14886674D01*
X16014277Y-14886674D02*
X16023801Y-14905722D01*
X16023801Y-14905722D02*
X16023801Y-15010484D01*
X16023801Y-14905722D02*
X16033324Y-14886674D01*
X16033324Y-14886674D02*
X16052372Y-14877150D01*
X16052372Y-14877150D02*
X16080943Y-14877150D01*
X16080943Y-14877150D02*
X16099991Y-14886674D01*
X16099991Y-14886674D02*
X16109515Y-14905722D01*
X16109515Y-14905722D02*
X16109515Y-15010484D01*
X16499991Y-14800960D02*
X16328563Y-15058103D01*
X16757134Y-14810484D02*
X16776182Y-14810484D01*
X16776182Y-14810484D02*
X16795229Y-14820008D01*
X16795229Y-14820008D02*
X16804753Y-14829531D01*
X16804753Y-14829531D02*
X16814277Y-14848579D01*
X16814277Y-14848579D02*
X16823801Y-14886674D01*
X16823801Y-14886674D02*
X16823801Y-14934293D01*
X16823801Y-14934293D02*
X16814277Y-14972388D01*
X16814277Y-14972388D02*
X16804753Y-14991436D01*
X16804753Y-14991436D02*
X16795229Y-15000960D01*
X16795229Y-15000960D02*
X16776182Y-15010484D01*
X16776182Y-15010484D02*
X16757134Y-15010484D01*
X16757134Y-15010484D02*
X16738086Y-15000960D01*
X16738086Y-15000960D02*
X16728563Y-14991436D01*
X16728563Y-14991436D02*
X16719039Y-14972388D01*
X16719039Y-14972388D02*
X16709515Y-14934293D01*
X16709515Y-14934293D02*
X16709515Y-14886674D01*
X16709515Y-14886674D02*
X16719039Y-14848579D01*
X16719039Y-14848579D02*
X16728563Y-14829531D01*
X16728563Y-14829531D02*
X16738086Y-14820008D01*
X16738086Y-14820008D02*
X16757134Y-14810484D01*
X16909515Y-14991436D02*
X16919039Y-15000960D01*
X16919039Y-15000960D02*
X16909515Y-15010484D01*
X16909515Y-15010484D02*
X16899991Y-15000960D01*
X16899991Y-15000960D02*
X16909515Y-14991436D01*
X16909515Y-14991436D02*
X16909515Y-15010484D01*
X17042848Y-14810484D02*
X17061896Y-14810484D01*
X17061896Y-14810484D02*
X17080944Y-14820008D01*
X17080944Y-14820008D02*
X17090468Y-14829531D01*
X17090468Y-14829531D02*
X17099991Y-14848579D01*
X17099991Y-14848579D02*
X17109515Y-14886674D01*
X17109515Y-14886674D02*
X17109515Y-14934293D01*
X17109515Y-14934293D02*
X17099991Y-14972388D01*
X17099991Y-14972388D02*
X17090468Y-14991436D01*
X17090468Y-14991436D02*
X17080944Y-15000960D01*
X17080944Y-15000960D02*
X17061896Y-15010484D01*
X17061896Y-15010484D02*
X17042848Y-15010484D01*
X17042848Y-15010484D02*
X17023801Y-15000960D01*
X17023801Y-15000960D02*
X17014277Y-14991436D01*
X17014277Y-14991436D02*
X17004753Y-14972388D01*
X17004753Y-14972388D02*
X16995229Y-14934293D01*
X16995229Y-14934293D02*
X16995229Y-14886674D01*
X16995229Y-14886674D02*
X17004753Y-14848579D01*
X17004753Y-14848579D02*
X17014277Y-14829531D01*
X17014277Y-14829531D02*
X17023801Y-14820008D01*
X17023801Y-14820008D02*
X17042848Y-14810484D01*
X17176182Y-14810484D02*
X17299991Y-14810484D01*
X17299991Y-14810484D02*
X17233325Y-14886674D01*
X17233325Y-14886674D02*
X17261896Y-14886674D01*
X17261896Y-14886674D02*
X17280944Y-14896198D01*
X17280944Y-14896198D02*
X17290468Y-14905722D01*
X17290468Y-14905722D02*
X17299991Y-14924769D01*
X17299991Y-14924769D02*
X17299991Y-14972388D01*
X17299991Y-14972388D02*
X17290468Y-14991436D01*
X17290468Y-14991436D02*
X17280944Y-15000960D01*
X17280944Y-15000960D02*
X17261896Y-15010484D01*
X17261896Y-15010484D02*
X17204753Y-15010484D01*
X17204753Y-15010484D02*
X17185706Y-15000960D01*
X17185706Y-15000960D02*
X17176182Y-14991436D01*
X17395229Y-15010484D02*
X17433325Y-15010484D01*
X17433325Y-15010484D02*
X17452372Y-15000960D01*
X17452372Y-15000960D02*
X17461896Y-14991436D01*
X17461896Y-14991436D02*
X17480944Y-14962865D01*
X17480944Y-14962865D02*
X17490468Y-14924769D01*
X17490468Y-14924769D02*
X17490468Y-14848579D01*
X17490468Y-14848579D02*
X17480944Y-14829531D01*
X17480944Y-14829531D02*
X17471420Y-14820008D01*
X17471420Y-14820008D02*
X17452372Y-14810484D01*
X17452372Y-14810484D02*
X17414277Y-14810484D01*
X17414277Y-14810484D02*
X17395229Y-14820008D01*
X17395229Y-14820008D02*
X17385706Y-14829531D01*
X17385706Y-14829531D02*
X17376182Y-14848579D01*
X17376182Y-14848579D02*
X17376182Y-14896198D01*
X17376182Y-14896198D02*
X17385706Y-14915246D01*
X17385706Y-14915246D02*
X17395229Y-14924769D01*
X17395229Y-14924769D02*
X17414277Y-14934293D01*
X17414277Y-14934293D02*
X17452372Y-14934293D01*
X17452372Y-14934293D02*
X17471420Y-14924769D01*
X17471420Y-14924769D02*
X17480944Y-14915246D01*
X17480944Y-14915246D02*
X17490468Y-14896198D01*
X17661896Y-14877150D02*
X17661896Y-15010484D01*
X17614277Y-14800960D02*
X17566658Y-14943817D01*
X17566658Y-14943817D02*
X17690468Y-14943817D01*
X17757134Y-14810484D02*
X17757134Y-14848579D01*
X17833325Y-14810484D02*
X17833325Y-14848579D01*
X18128563Y-15086674D02*
X18119039Y-15077150D01*
X18119039Y-15077150D02*
X18099991Y-15048579D01*
X18099991Y-15048579D02*
X18090468Y-15029531D01*
X18090468Y-15029531D02*
X18080944Y-15000960D01*
X18080944Y-15000960D02*
X18071420Y-14953341D01*
X18071420Y-14953341D02*
X18071420Y-14915246D01*
X18071420Y-14915246D02*
X18080944Y-14867627D01*
X18080944Y-14867627D02*
X18090468Y-14839055D01*
X18090468Y-14839055D02*
X18099991Y-14820008D01*
X18099991Y-14820008D02*
X18119039Y-14791436D01*
X18119039Y-14791436D02*
X18128563Y-14781912D01*
X18299991Y-14810484D02*
X18204753Y-14810484D01*
X18204753Y-14810484D02*
X18195230Y-14905722D01*
X18195230Y-14905722D02*
X18204753Y-14896198D01*
X18204753Y-14896198D02*
X18223801Y-14886674D01*
X18223801Y-14886674D02*
X18271420Y-14886674D01*
X18271420Y-14886674D02*
X18290468Y-14896198D01*
X18290468Y-14896198D02*
X18299991Y-14905722D01*
X18299991Y-14905722D02*
X18309515Y-14924769D01*
X18309515Y-14924769D02*
X18309515Y-14972388D01*
X18309515Y-14972388D02*
X18299991Y-14991436D01*
X18299991Y-14991436D02*
X18290468Y-15000960D01*
X18290468Y-15000960D02*
X18271420Y-15010484D01*
X18271420Y-15010484D02*
X18223801Y-15010484D01*
X18223801Y-15010484D02*
X18204753Y-15000960D01*
X18204753Y-15000960D02*
X18195230Y-14991436D01*
X18480944Y-14877150D02*
X18480944Y-15010484D01*
X18433325Y-14800960D02*
X18385706Y-14943817D01*
X18385706Y-14943817D02*
X18509515Y-14943817D01*
X18738087Y-15010484D02*
X18738087Y-14810484D01*
X18823801Y-15010484D02*
X18823801Y-14905722D01*
X18823801Y-14905722D02*
X18814277Y-14886674D01*
X18814277Y-14886674D02*
X18795230Y-14877150D01*
X18795230Y-14877150D02*
X18766658Y-14877150D01*
X18766658Y-14877150D02*
X18747611Y-14886674D01*
X18747611Y-14886674D02*
X18738087Y-14896198D01*
X18947611Y-15010484D02*
X18928563Y-15000960D01*
X18928563Y-15000960D02*
X18919039Y-14991436D01*
X18919039Y-14991436D02*
X18909515Y-14972388D01*
X18909515Y-14972388D02*
X18909515Y-14915246D01*
X18909515Y-14915246D02*
X18919039Y-14896198D01*
X18919039Y-14896198D02*
X18928563Y-14886674D01*
X18928563Y-14886674D02*
X18947611Y-14877150D01*
X18947611Y-14877150D02*
X18976182Y-14877150D01*
X18976182Y-14877150D02*
X18995230Y-14886674D01*
X18995230Y-14886674D02*
X19004753Y-14896198D01*
X19004753Y-14896198D02*
X19014277Y-14915246D01*
X19014277Y-14915246D02*
X19014277Y-14972388D01*
X19014277Y-14972388D02*
X19004753Y-14991436D01*
X19004753Y-14991436D02*
X18995230Y-15000960D01*
X18995230Y-15000960D02*
X18976182Y-15010484D01*
X18976182Y-15010484D02*
X18947611Y-15010484D01*
X19128563Y-15010484D02*
X19109515Y-15000960D01*
X19109515Y-15000960D02*
X19099992Y-14981912D01*
X19099992Y-14981912D02*
X19099992Y-14810484D01*
X19280944Y-15000960D02*
X19261896Y-15010484D01*
X19261896Y-15010484D02*
X19223801Y-15010484D01*
X19223801Y-15010484D02*
X19204753Y-15000960D01*
X19204753Y-15000960D02*
X19195230Y-14981912D01*
X19195230Y-14981912D02*
X19195230Y-14905722D01*
X19195230Y-14905722D02*
X19204753Y-14886674D01*
X19204753Y-14886674D02*
X19223801Y-14877150D01*
X19223801Y-14877150D02*
X19261896Y-14877150D01*
X19261896Y-14877150D02*
X19280944Y-14886674D01*
X19280944Y-14886674D02*
X19290468Y-14905722D01*
X19290468Y-14905722D02*
X19290468Y-14924769D01*
X19290468Y-14924769D02*
X19195230Y-14943817D01*
X19366658Y-15000960D02*
X19385706Y-15010484D01*
X19385706Y-15010484D02*
X19423801Y-15010484D01*
X19423801Y-15010484D02*
X19442849Y-15000960D01*
X19442849Y-15000960D02*
X19452373Y-14981912D01*
X19452373Y-14981912D02*
X19452373Y-14972388D01*
X19452373Y-14972388D02*
X19442849Y-14953341D01*
X19442849Y-14953341D02*
X19423801Y-14943817D01*
X19423801Y-14943817D02*
X19395230Y-14943817D01*
X19395230Y-14943817D02*
X19376182Y-14934293D01*
X19376182Y-14934293D02*
X19366658Y-14915246D01*
X19366658Y-14915246D02*
X19366658Y-14905722D01*
X19366658Y-14905722D02*
X19376182Y-14886674D01*
X19376182Y-14886674D02*
X19395230Y-14877150D01*
X19395230Y-14877150D02*
X19423801Y-14877150D01*
X19423801Y-14877150D02*
X19442849Y-14886674D01*
X19519039Y-15086674D02*
X19528563Y-15077150D01*
X19528563Y-15077150D02*
X19547611Y-15048579D01*
X19547611Y-15048579D02*
X19557134Y-15029531D01*
X19557134Y-15029531D02*
X19566658Y-15000960D01*
X19566658Y-15000960D02*
X19576182Y-14953341D01*
X19576182Y-14953341D02*
X19576182Y-14915246D01*
X19576182Y-14915246D02*
X19566658Y-14867627D01*
X19566658Y-14867627D02*
X19557134Y-14839055D01*
X19557134Y-14839055D02*
X19547611Y-14820008D01*
X19547611Y-14820008D02*
X19528563Y-14791436D01*
X19528563Y-14791436D02*
X19519039Y-14781912D01*
D12*
X14534462Y-15228962D02*
X14534462Y-15137038D01*
X14442538Y-15137038D01*
X14442538Y-15228962D01*
X14534462Y-15228962D01*
D11*
X14919039Y-15274484D02*
X14804753Y-15274484D01*
X14861896Y-15274484D02*
X14861896Y-15074484D01*
X14861896Y-15074484D02*
X14842848Y-15103055D01*
X14842848Y-15103055D02*
X14823801Y-15122103D01*
X14823801Y-15122103D02*
X14804753Y-15131627D01*
X15004753Y-15255436D02*
X15014277Y-15264960D01*
X15014277Y-15264960D02*
X15004753Y-15274484D01*
X15004753Y-15274484D02*
X14995229Y-15264960D01*
X14995229Y-15264960D02*
X15004753Y-15255436D01*
X15004753Y-15255436D02*
X15004753Y-15274484D01*
X15080943Y-15074484D02*
X15204753Y-15074484D01*
X15204753Y-15074484D02*
X15138086Y-15150674D01*
X15138086Y-15150674D02*
X15166658Y-15150674D01*
X15166658Y-15150674D02*
X15185705Y-15160198D01*
X15185705Y-15160198D02*
X15195229Y-15169722D01*
X15195229Y-15169722D02*
X15204753Y-15188769D01*
X15204753Y-15188769D02*
X15204753Y-15236388D01*
X15204753Y-15236388D02*
X15195229Y-15255436D01*
X15195229Y-15255436D02*
X15185705Y-15264960D01*
X15185705Y-15264960D02*
X15166658Y-15274484D01*
X15166658Y-15274484D02*
X15109515Y-15274484D01*
X15109515Y-15274484D02*
X15090467Y-15264960D01*
X15090467Y-15264960D02*
X15080943Y-15255436D01*
X15328562Y-15074484D02*
X15347610Y-15074484D01*
X15347610Y-15074484D02*
X15366658Y-15084008D01*
X15366658Y-15084008D02*
X15376182Y-15093531D01*
X15376182Y-15093531D02*
X15385705Y-15112579D01*
X15385705Y-15112579D02*
X15395229Y-15150674D01*
X15395229Y-15150674D02*
X15395229Y-15198293D01*
X15395229Y-15198293D02*
X15385705Y-15236388D01*
X15385705Y-15236388D02*
X15376182Y-15255436D01*
X15376182Y-15255436D02*
X15366658Y-15264960D01*
X15366658Y-15264960D02*
X15347610Y-15274484D01*
X15347610Y-15274484D02*
X15328562Y-15274484D01*
X15328562Y-15274484D02*
X15309515Y-15264960D01*
X15309515Y-15264960D02*
X15299991Y-15255436D01*
X15299991Y-15255436D02*
X15290467Y-15236388D01*
X15290467Y-15236388D02*
X15280943Y-15198293D01*
X15280943Y-15198293D02*
X15280943Y-15150674D01*
X15280943Y-15150674D02*
X15290467Y-15112579D01*
X15290467Y-15112579D02*
X15299991Y-15093531D01*
X15299991Y-15093531D02*
X15309515Y-15084008D01*
X15309515Y-15084008D02*
X15328562Y-15074484D01*
X15519039Y-15074484D02*
X15538086Y-15074484D01*
X15538086Y-15074484D02*
X15557134Y-15084008D01*
X15557134Y-15084008D02*
X15566658Y-15093531D01*
X15566658Y-15093531D02*
X15576182Y-15112579D01*
X15576182Y-15112579D02*
X15585705Y-15150674D01*
X15585705Y-15150674D02*
X15585705Y-15198293D01*
X15585705Y-15198293D02*
X15576182Y-15236388D01*
X15576182Y-15236388D02*
X15566658Y-15255436D01*
X15566658Y-15255436D02*
X15557134Y-15264960D01*
X15557134Y-15264960D02*
X15538086Y-15274484D01*
X15538086Y-15274484D02*
X15519039Y-15274484D01*
X15519039Y-15274484D02*
X15499991Y-15264960D01*
X15499991Y-15264960D02*
X15490467Y-15255436D01*
X15490467Y-15255436D02*
X15480943Y-15236388D01*
X15480943Y-15236388D02*
X15471420Y-15198293D01*
X15471420Y-15198293D02*
X15471420Y-15150674D01*
X15471420Y-15150674D02*
X15480943Y-15112579D01*
X15480943Y-15112579D02*
X15490467Y-15093531D01*
X15490467Y-15093531D02*
X15499991Y-15084008D01*
X15499991Y-15084008D02*
X15519039Y-15074484D01*
X15671420Y-15274484D02*
X15671420Y-15141150D01*
X15671420Y-15160198D02*
X15680943Y-15150674D01*
X15680943Y-15150674D02*
X15699991Y-15141150D01*
X15699991Y-15141150D02*
X15728563Y-15141150D01*
X15728563Y-15141150D02*
X15747610Y-15150674D01*
X15747610Y-15150674D02*
X15757134Y-15169722D01*
X15757134Y-15169722D02*
X15757134Y-15274484D01*
X15757134Y-15169722D02*
X15766658Y-15150674D01*
X15766658Y-15150674D02*
X15785705Y-15141150D01*
X15785705Y-15141150D02*
X15814277Y-15141150D01*
X15814277Y-15141150D02*
X15833324Y-15150674D01*
X15833324Y-15150674D02*
X15842848Y-15169722D01*
X15842848Y-15169722D02*
X15842848Y-15274484D01*
X15938086Y-15274484D02*
X15938086Y-15141150D01*
X15938086Y-15160198D02*
X15947610Y-15150674D01*
X15947610Y-15150674D02*
X15966658Y-15141150D01*
X15966658Y-15141150D02*
X15995229Y-15141150D01*
X15995229Y-15141150D02*
X16014277Y-15150674D01*
X16014277Y-15150674D02*
X16023801Y-15169722D01*
X16023801Y-15169722D02*
X16023801Y-15274484D01*
X16023801Y-15169722D02*
X16033324Y-15150674D01*
X16033324Y-15150674D02*
X16052372Y-15141150D01*
X16052372Y-15141150D02*
X16080943Y-15141150D01*
X16080943Y-15141150D02*
X16099991Y-15150674D01*
X16099991Y-15150674D02*
X16109515Y-15169722D01*
X16109515Y-15169722D02*
X16109515Y-15274484D01*
X16499991Y-15064960D02*
X16328563Y-15322103D01*
X16757134Y-15074484D02*
X16776182Y-15074484D01*
X16776182Y-15074484D02*
X16795229Y-15084008D01*
X16795229Y-15084008D02*
X16804753Y-15093531D01*
X16804753Y-15093531D02*
X16814277Y-15112579D01*
X16814277Y-15112579D02*
X16823801Y-15150674D01*
X16823801Y-15150674D02*
X16823801Y-15198293D01*
X16823801Y-15198293D02*
X16814277Y-15236388D01*
X16814277Y-15236388D02*
X16804753Y-15255436D01*
X16804753Y-15255436D02*
X16795229Y-15264960D01*
X16795229Y-15264960D02*
X16776182Y-15274484D01*
X16776182Y-15274484D02*
X16757134Y-15274484D01*
X16757134Y-15274484D02*
X16738086Y-15264960D01*
X16738086Y-15264960D02*
X16728563Y-15255436D01*
X16728563Y-15255436D02*
X16719039Y-15236388D01*
X16719039Y-15236388D02*
X16709515Y-15198293D01*
X16709515Y-15198293D02*
X16709515Y-15150674D01*
X16709515Y-15150674D02*
X16719039Y-15112579D01*
X16719039Y-15112579D02*
X16728563Y-15093531D01*
X16728563Y-15093531D02*
X16738086Y-15084008D01*
X16738086Y-15084008D02*
X16757134Y-15074484D01*
X16909515Y-15255436D02*
X16919039Y-15264960D01*
X16919039Y-15264960D02*
X16909515Y-15274484D01*
X16909515Y-15274484D02*
X16899991Y-15264960D01*
X16899991Y-15264960D02*
X16909515Y-15255436D01*
X16909515Y-15255436D02*
X16909515Y-15274484D01*
X17042848Y-15074484D02*
X17061896Y-15074484D01*
X17061896Y-15074484D02*
X17080944Y-15084008D01*
X17080944Y-15084008D02*
X17090468Y-15093531D01*
X17090468Y-15093531D02*
X17099991Y-15112579D01*
X17099991Y-15112579D02*
X17109515Y-15150674D01*
X17109515Y-15150674D02*
X17109515Y-15198293D01*
X17109515Y-15198293D02*
X17099991Y-15236388D01*
X17099991Y-15236388D02*
X17090468Y-15255436D01*
X17090468Y-15255436D02*
X17080944Y-15264960D01*
X17080944Y-15264960D02*
X17061896Y-15274484D01*
X17061896Y-15274484D02*
X17042848Y-15274484D01*
X17042848Y-15274484D02*
X17023801Y-15264960D01*
X17023801Y-15264960D02*
X17014277Y-15255436D01*
X17014277Y-15255436D02*
X17004753Y-15236388D01*
X17004753Y-15236388D02*
X16995229Y-15198293D01*
X16995229Y-15198293D02*
X16995229Y-15150674D01*
X16995229Y-15150674D02*
X17004753Y-15112579D01*
X17004753Y-15112579D02*
X17014277Y-15093531D01*
X17014277Y-15093531D02*
X17023801Y-15084008D01*
X17023801Y-15084008D02*
X17042848Y-15074484D01*
X17290468Y-15074484D02*
X17195229Y-15074484D01*
X17195229Y-15074484D02*
X17185706Y-15169722D01*
X17185706Y-15169722D02*
X17195229Y-15160198D01*
X17195229Y-15160198D02*
X17214277Y-15150674D01*
X17214277Y-15150674D02*
X17261896Y-15150674D01*
X17261896Y-15150674D02*
X17280944Y-15160198D01*
X17280944Y-15160198D02*
X17290468Y-15169722D01*
X17290468Y-15169722D02*
X17299991Y-15188769D01*
X17299991Y-15188769D02*
X17299991Y-15236388D01*
X17299991Y-15236388D02*
X17290468Y-15255436D01*
X17290468Y-15255436D02*
X17280944Y-15264960D01*
X17280944Y-15264960D02*
X17261896Y-15274484D01*
X17261896Y-15274484D02*
X17214277Y-15274484D01*
X17214277Y-15274484D02*
X17195229Y-15264960D01*
X17195229Y-15264960D02*
X17185706Y-15255436D01*
X17490468Y-15274484D02*
X17376182Y-15274484D01*
X17433325Y-15274484D02*
X17433325Y-15074484D01*
X17433325Y-15074484D02*
X17414277Y-15103055D01*
X17414277Y-15103055D02*
X17395229Y-15122103D01*
X17395229Y-15122103D02*
X17376182Y-15131627D01*
X17566658Y-15093531D02*
X17576182Y-15084008D01*
X17576182Y-15084008D02*
X17595229Y-15074484D01*
X17595229Y-15074484D02*
X17642849Y-15074484D01*
X17642849Y-15074484D02*
X17661896Y-15084008D01*
X17661896Y-15084008D02*
X17671420Y-15093531D01*
X17671420Y-15093531D02*
X17680944Y-15112579D01*
X17680944Y-15112579D02*
X17680944Y-15131627D01*
X17680944Y-15131627D02*
X17671420Y-15160198D01*
X17671420Y-15160198D02*
X17557134Y-15274484D01*
X17557134Y-15274484D02*
X17680944Y-15274484D01*
X17757134Y-15074484D02*
X17757134Y-15112579D01*
X17833325Y-15074484D02*
X17833325Y-15112579D01*
X18128563Y-15350674D02*
X18119039Y-15341150D01*
X18119039Y-15341150D02*
X18099991Y-15312579D01*
X18099991Y-15312579D02*
X18090468Y-15293531D01*
X18090468Y-15293531D02*
X18080944Y-15264960D01*
X18080944Y-15264960D02*
X18071420Y-15217341D01*
X18071420Y-15217341D02*
X18071420Y-15179246D01*
X18071420Y-15179246D02*
X18080944Y-15131627D01*
X18080944Y-15131627D02*
X18090468Y-15103055D01*
X18090468Y-15103055D02*
X18099991Y-15084008D01*
X18099991Y-15084008D02*
X18119039Y-15055436D01*
X18119039Y-15055436D02*
X18128563Y-15045912D01*
X18242849Y-15074484D02*
X18261896Y-15074484D01*
X18261896Y-15074484D02*
X18280944Y-15084008D01*
X18280944Y-15084008D02*
X18290468Y-15093531D01*
X18290468Y-15093531D02*
X18299991Y-15112579D01*
X18299991Y-15112579D02*
X18309515Y-15150674D01*
X18309515Y-15150674D02*
X18309515Y-15198293D01*
X18309515Y-15198293D02*
X18299991Y-15236388D01*
X18299991Y-15236388D02*
X18290468Y-15255436D01*
X18290468Y-15255436D02*
X18280944Y-15264960D01*
X18280944Y-15264960D02*
X18261896Y-15274484D01*
X18261896Y-15274484D02*
X18242849Y-15274484D01*
X18242849Y-15274484D02*
X18223801Y-15264960D01*
X18223801Y-15264960D02*
X18214277Y-15255436D01*
X18214277Y-15255436D02*
X18204753Y-15236388D01*
X18204753Y-15236388D02*
X18195230Y-15198293D01*
X18195230Y-15198293D02*
X18195230Y-15150674D01*
X18195230Y-15150674D02*
X18204753Y-15112579D01*
X18204753Y-15112579D02*
X18214277Y-15093531D01*
X18214277Y-15093531D02*
X18223801Y-15084008D01*
X18223801Y-15084008D02*
X18242849Y-15074484D01*
X18547611Y-15274484D02*
X18547611Y-15074484D01*
X18633325Y-15274484D02*
X18633325Y-15169722D01*
X18633325Y-15169722D02*
X18623801Y-15150674D01*
X18623801Y-15150674D02*
X18604753Y-15141150D01*
X18604753Y-15141150D02*
X18576182Y-15141150D01*
X18576182Y-15141150D02*
X18557134Y-15150674D01*
X18557134Y-15150674D02*
X18547611Y-15160198D01*
X18757134Y-15274484D02*
X18738087Y-15264960D01*
X18738087Y-15264960D02*
X18728563Y-15255436D01*
X18728563Y-15255436D02*
X18719039Y-15236388D01*
X18719039Y-15236388D02*
X18719039Y-15179246D01*
X18719039Y-15179246D02*
X18728563Y-15160198D01*
X18728563Y-15160198D02*
X18738087Y-15150674D01*
X18738087Y-15150674D02*
X18757134Y-15141150D01*
X18757134Y-15141150D02*
X18785706Y-15141150D01*
X18785706Y-15141150D02*
X18804753Y-15150674D01*
X18804753Y-15150674D02*
X18814277Y-15160198D01*
X18814277Y-15160198D02*
X18823801Y-15179246D01*
X18823801Y-15179246D02*
X18823801Y-15236388D01*
X18823801Y-15236388D02*
X18814277Y-15255436D01*
X18814277Y-15255436D02*
X18804753Y-15264960D01*
X18804753Y-15264960D02*
X18785706Y-15274484D01*
X18785706Y-15274484D02*
X18757134Y-15274484D01*
X18938087Y-15274484D02*
X18919039Y-15264960D01*
X18919039Y-15264960D02*
X18909515Y-15245912D01*
X18909515Y-15245912D02*
X18909515Y-15074484D01*
X19090468Y-15264960D02*
X19071420Y-15274484D01*
X19071420Y-15274484D02*
X19033325Y-15274484D01*
X19033325Y-15274484D02*
X19014277Y-15264960D01*
X19014277Y-15264960D02*
X19004753Y-15245912D01*
X19004753Y-15245912D02*
X19004753Y-15169722D01*
X19004753Y-15169722D02*
X19014277Y-15150674D01*
X19014277Y-15150674D02*
X19033325Y-15141150D01*
X19033325Y-15141150D02*
X19071420Y-15141150D01*
X19071420Y-15141150D02*
X19090468Y-15150674D01*
X19090468Y-15150674D02*
X19099992Y-15169722D01*
X19099992Y-15169722D02*
X19099992Y-15188769D01*
X19099992Y-15188769D02*
X19004753Y-15207817D01*
X19176182Y-15264960D02*
X19195230Y-15274484D01*
X19195230Y-15274484D02*
X19233325Y-15274484D01*
X19233325Y-15274484D02*
X19252373Y-15264960D01*
X19252373Y-15264960D02*
X19261896Y-15245912D01*
X19261896Y-15245912D02*
X19261896Y-15236388D01*
X19261896Y-15236388D02*
X19252373Y-15217341D01*
X19252373Y-15217341D02*
X19233325Y-15207817D01*
X19233325Y-15207817D02*
X19204753Y-15207817D01*
X19204753Y-15207817D02*
X19185706Y-15198293D01*
X19185706Y-15198293D02*
X19176182Y-15179246D01*
X19176182Y-15179246D02*
X19176182Y-15169722D01*
X19176182Y-15169722D02*
X19185706Y-15150674D01*
X19185706Y-15150674D02*
X19204753Y-15141150D01*
X19204753Y-15141150D02*
X19233325Y-15141150D01*
X19233325Y-15141150D02*
X19252373Y-15150674D01*
X19499992Y-15198293D02*
X19652373Y-15198293D01*
X19576182Y-15274484D02*
X19576182Y-15122103D01*
X19890468Y-15093531D02*
X19899992Y-15084008D01*
X19899992Y-15084008D02*
X19919039Y-15074484D01*
X19919039Y-15074484D02*
X19966658Y-15074484D01*
X19966658Y-15074484D02*
X19985706Y-15084008D01*
X19985706Y-15084008D02*
X19995230Y-15093531D01*
X19995230Y-15093531D02*
X20004754Y-15112579D01*
X20004754Y-15112579D02*
X20004754Y-15131627D01*
X20004754Y-15131627D02*
X19995230Y-15160198D01*
X19995230Y-15160198D02*
X19880944Y-15274484D01*
X19880944Y-15274484D02*
X20004754Y-15274484D01*
X20233325Y-15264960D02*
X20252373Y-15274484D01*
X20252373Y-15274484D02*
X20290468Y-15274484D01*
X20290468Y-15274484D02*
X20309516Y-15264960D01*
X20309516Y-15264960D02*
X20319039Y-15245912D01*
X20319039Y-15245912D02*
X20319039Y-15236388D01*
X20319039Y-15236388D02*
X20309516Y-15217341D01*
X20309516Y-15217341D02*
X20290468Y-15207817D01*
X20290468Y-15207817D02*
X20261896Y-15207817D01*
X20261896Y-15207817D02*
X20242849Y-15198293D01*
X20242849Y-15198293D02*
X20233325Y-15179246D01*
X20233325Y-15179246D02*
X20233325Y-15169722D01*
X20233325Y-15169722D02*
X20242849Y-15150674D01*
X20242849Y-15150674D02*
X20261896Y-15141150D01*
X20261896Y-15141150D02*
X20290468Y-15141150D01*
X20290468Y-15141150D02*
X20309516Y-15150674D01*
X20433325Y-15274484D02*
X20414277Y-15264960D01*
X20414277Y-15264960D02*
X20404754Y-15245912D01*
X20404754Y-15245912D02*
X20404754Y-15074484D01*
X20538087Y-15274484D02*
X20519039Y-15264960D01*
X20519039Y-15264960D02*
X20509516Y-15255436D01*
X20509516Y-15255436D02*
X20499992Y-15236388D01*
X20499992Y-15236388D02*
X20499992Y-15179246D01*
X20499992Y-15179246D02*
X20509516Y-15160198D01*
X20509516Y-15160198D02*
X20519039Y-15150674D01*
X20519039Y-15150674D02*
X20538087Y-15141150D01*
X20538087Y-15141150D02*
X20566658Y-15141150D01*
X20566658Y-15141150D02*
X20585706Y-15150674D01*
X20585706Y-15150674D02*
X20595230Y-15160198D01*
X20595230Y-15160198D02*
X20604754Y-15179246D01*
X20604754Y-15179246D02*
X20604754Y-15236388D01*
X20604754Y-15236388D02*
X20595230Y-15255436D01*
X20595230Y-15255436D02*
X20585706Y-15264960D01*
X20585706Y-15264960D02*
X20566658Y-15274484D01*
X20566658Y-15274484D02*
X20538087Y-15274484D01*
X20661897Y-15141150D02*
X20738087Y-15141150D01*
X20690468Y-15074484D02*
X20690468Y-15245912D01*
X20690468Y-15245912D02*
X20699992Y-15264960D01*
X20699992Y-15264960D02*
X20719039Y-15274484D01*
X20719039Y-15274484D02*
X20738087Y-15274484D01*
X20795230Y-15264960D02*
X20814277Y-15274484D01*
X20814277Y-15274484D02*
X20852373Y-15274484D01*
X20852373Y-15274484D02*
X20871420Y-15264960D01*
X20871420Y-15264960D02*
X20880944Y-15245912D01*
X20880944Y-15245912D02*
X20880944Y-15236388D01*
X20880944Y-15236388D02*
X20871420Y-15217341D01*
X20871420Y-15217341D02*
X20852373Y-15207817D01*
X20852373Y-15207817D02*
X20823801Y-15207817D01*
X20823801Y-15207817D02*
X20804754Y-15198293D01*
X20804754Y-15198293D02*
X20795230Y-15179246D01*
X20795230Y-15179246D02*
X20795230Y-15169722D01*
X20795230Y-15169722D02*
X20804754Y-15150674D01*
X20804754Y-15150674D02*
X20823801Y-15141150D01*
X20823801Y-15141150D02*
X20852373Y-15141150D01*
X20852373Y-15141150D02*
X20871420Y-15150674D01*
X20947611Y-15350674D02*
X20957135Y-15341150D01*
X20957135Y-15341150D02*
X20976182Y-15312579D01*
X20976182Y-15312579D02*
X20985706Y-15293531D01*
X20985706Y-15293531D02*
X20995230Y-15264960D01*
X20995230Y-15264960D02*
X21004754Y-15217341D01*
X21004754Y-15217341D02*
X21004754Y-15179246D01*
X21004754Y-15179246D02*
X20995230Y-15131627D01*
X20995230Y-15131627D02*
X20985706Y-15103055D01*
X20985706Y-15103055D02*
X20976182Y-15084008D01*
X20976182Y-15084008D02*
X20957135Y-15055436D01*
X20957135Y-15055436D02*
X20947611Y-15045912D01*
X14453500Y-15547000D02*
X14553500Y-15447000D01*
X14453500Y-15347000D01*
X14353500Y-15447000D01*
X14453500Y-15547000D01*
X14795229Y-15338484D02*
X14919039Y-15338484D01*
X14919039Y-15338484D02*
X14852372Y-15414674D01*
X14852372Y-15414674D02*
X14880943Y-15414674D01*
X14880943Y-15414674D02*
X14899991Y-15424198D01*
X14899991Y-15424198D02*
X14909515Y-15433722D01*
X14909515Y-15433722D02*
X14919039Y-15452769D01*
X14919039Y-15452769D02*
X14919039Y-15500388D01*
X14919039Y-15500388D02*
X14909515Y-15519436D01*
X14909515Y-15519436D02*
X14899991Y-15528960D01*
X14899991Y-15528960D02*
X14880943Y-15538484D01*
X14880943Y-15538484D02*
X14823801Y-15538484D01*
X14823801Y-15538484D02*
X14804753Y-15528960D01*
X14804753Y-15528960D02*
X14795229Y-15519436D01*
X15004753Y-15519436D02*
X15014277Y-15528960D01*
X15014277Y-15528960D02*
X15004753Y-15538484D01*
X15004753Y-15538484D02*
X14995229Y-15528960D01*
X14995229Y-15528960D02*
X15004753Y-15519436D01*
X15004753Y-15519436D02*
X15004753Y-15538484D01*
X15090467Y-15357531D02*
X15099991Y-15348008D01*
X15099991Y-15348008D02*
X15119039Y-15338484D01*
X15119039Y-15338484D02*
X15166658Y-15338484D01*
X15166658Y-15338484D02*
X15185705Y-15348008D01*
X15185705Y-15348008D02*
X15195229Y-15357531D01*
X15195229Y-15357531D02*
X15204753Y-15376579D01*
X15204753Y-15376579D02*
X15204753Y-15395627D01*
X15204753Y-15395627D02*
X15195229Y-15424198D01*
X15195229Y-15424198D02*
X15080943Y-15538484D01*
X15080943Y-15538484D02*
X15204753Y-15538484D01*
X15328562Y-15338484D02*
X15347610Y-15338484D01*
X15347610Y-15338484D02*
X15366658Y-15348008D01*
X15366658Y-15348008D02*
X15376182Y-15357531D01*
X15376182Y-15357531D02*
X15385705Y-15376579D01*
X15385705Y-15376579D02*
X15395229Y-15414674D01*
X15395229Y-15414674D02*
X15395229Y-15462293D01*
X15395229Y-15462293D02*
X15385705Y-15500388D01*
X15385705Y-15500388D02*
X15376182Y-15519436D01*
X15376182Y-15519436D02*
X15366658Y-15528960D01*
X15366658Y-15528960D02*
X15347610Y-15538484D01*
X15347610Y-15538484D02*
X15328562Y-15538484D01*
X15328562Y-15538484D02*
X15309515Y-15528960D01*
X15309515Y-15528960D02*
X15299991Y-15519436D01*
X15299991Y-15519436D02*
X15290467Y-15500388D01*
X15290467Y-15500388D02*
X15280943Y-15462293D01*
X15280943Y-15462293D02*
X15280943Y-15414674D01*
X15280943Y-15414674D02*
X15290467Y-15376579D01*
X15290467Y-15376579D02*
X15299991Y-15357531D01*
X15299991Y-15357531D02*
X15309515Y-15348008D01*
X15309515Y-15348008D02*
X15328562Y-15338484D01*
X15519039Y-15338484D02*
X15538086Y-15338484D01*
X15538086Y-15338484D02*
X15557134Y-15348008D01*
X15557134Y-15348008D02*
X15566658Y-15357531D01*
X15566658Y-15357531D02*
X15576182Y-15376579D01*
X15576182Y-15376579D02*
X15585705Y-15414674D01*
X15585705Y-15414674D02*
X15585705Y-15462293D01*
X15585705Y-15462293D02*
X15576182Y-15500388D01*
X15576182Y-15500388D02*
X15566658Y-15519436D01*
X15566658Y-15519436D02*
X15557134Y-15528960D01*
X15557134Y-15528960D02*
X15538086Y-15538484D01*
X15538086Y-15538484D02*
X15519039Y-15538484D01*
X15519039Y-15538484D02*
X15499991Y-15528960D01*
X15499991Y-15528960D02*
X15490467Y-15519436D01*
X15490467Y-15519436D02*
X15480943Y-15500388D01*
X15480943Y-15500388D02*
X15471420Y-15462293D01*
X15471420Y-15462293D02*
X15471420Y-15414674D01*
X15471420Y-15414674D02*
X15480943Y-15376579D01*
X15480943Y-15376579D02*
X15490467Y-15357531D01*
X15490467Y-15357531D02*
X15499991Y-15348008D01*
X15499991Y-15348008D02*
X15519039Y-15338484D01*
X15671420Y-15538484D02*
X15671420Y-15405150D01*
X15671420Y-15424198D02*
X15680943Y-15414674D01*
X15680943Y-15414674D02*
X15699991Y-15405150D01*
X15699991Y-15405150D02*
X15728563Y-15405150D01*
X15728563Y-15405150D02*
X15747610Y-15414674D01*
X15747610Y-15414674D02*
X15757134Y-15433722D01*
X15757134Y-15433722D02*
X15757134Y-15538484D01*
X15757134Y-15433722D02*
X15766658Y-15414674D01*
X15766658Y-15414674D02*
X15785705Y-15405150D01*
X15785705Y-15405150D02*
X15814277Y-15405150D01*
X15814277Y-15405150D02*
X15833324Y-15414674D01*
X15833324Y-15414674D02*
X15842848Y-15433722D01*
X15842848Y-15433722D02*
X15842848Y-15538484D01*
X15938086Y-15538484D02*
X15938086Y-15405150D01*
X15938086Y-15424198D02*
X15947610Y-15414674D01*
X15947610Y-15414674D02*
X15966658Y-15405150D01*
X15966658Y-15405150D02*
X15995229Y-15405150D01*
X15995229Y-15405150D02*
X16014277Y-15414674D01*
X16014277Y-15414674D02*
X16023801Y-15433722D01*
X16023801Y-15433722D02*
X16023801Y-15538484D01*
X16023801Y-15433722D02*
X16033324Y-15414674D01*
X16033324Y-15414674D02*
X16052372Y-15405150D01*
X16052372Y-15405150D02*
X16080943Y-15405150D01*
X16080943Y-15405150D02*
X16099991Y-15414674D01*
X16099991Y-15414674D02*
X16109515Y-15433722D01*
X16109515Y-15433722D02*
X16109515Y-15538484D01*
X16499991Y-15328960D02*
X16328563Y-15586103D01*
X16757134Y-15338484D02*
X16776182Y-15338484D01*
X16776182Y-15338484D02*
X16795229Y-15348008D01*
X16795229Y-15348008D02*
X16804753Y-15357531D01*
X16804753Y-15357531D02*
X16814277Y-15376579D01*
X16814277Y-15376579D02*
X16823801Y-15414674D01*
X16823801Y-15414674D02*
X16823801Y-15462293D01*
X16823801Y-15462293D02*
X16814277Y-15500388D01*
X16814277Y-15500388D02*
X16804753Y-15519436D01*
X16804753Y-15519436D02*
X16795229Y-15528960D01*
X16795229Y-15528960D02*
X16776182Y-15538484D01*
X16776182Y-15538484D02*
X16757134Y-15538484D01*
X16757134Y-15538484D02*
X16738086Y-15528960D01*
X16738086Y-15528960D02*
X16728563Y-15519436D01*
X16728563Y-15519436D02*
X16719039Y-15500388D01*
X16719039Y-15500388D02*
X16709515Y-15462293D01*
X16709515Y-15462293D02*
X16709515Y-15414674D01*
X16709515Y-15414674D02*
X16719039Y-15376579D01*
X16719039Y-15376579D02*
X16728563Y-15357531D01*
X16728563Y-15357531D02*
X16738086Y-15348008D01*
X16738086Y-15348008D02*
X16757134Y-15338484D01*
X16909515Y-15519436D02*
X16919039Y-15528960D01*
X16919039Y-15528960D02*
X16909515Y-15538484D01*
X16909515Y-15538484D02*
X16899991Y-15528960D01*
X16899991Y-15528960D02*
X16909515Y-15519436D01*
X16909515Y-15519436D02*
X16909515Y-15538484D01*
X17109515Y-15538484D02*
X16995229Y-15538484D01*
X17052372Y-15538484D02*
X17052372Y-15338484D01*
X17052372Y-15338484D02*
X17033325Y-15367055D01*
X17033325Y-15367055D02*
X17014277Y-15386103D01*
X17014277Y-15386103D02*
X16995229Y-15395627D01*
X17185706Y-15357531D02*
X17195229Y-15348008D01*
X17195229Y-15348008D02*
X17214277Y-15338484D01*
X17214277Y-15338484D02*
X17261896Y-15338484D01*
X17261896Y-15338484D02*
X17280944Y-15348008D01*
X17280944Y-15348008D02*
X17290468Y-15357531D01*
X17290468Y-15357531D02*
X17299991Y-15376579D01*
X17299991Y-15376579D02*
X17299991Y-15395627D01*
X17299991Y-15395627D02*
X17290468Y-15424198D01*
X17290468Y-15424198D02*
X17176182Y-15538484D01*
X17176182Y-15538484D02*
X17299991Y-15538484D01*
X17471420Y-15338484D02*
X17433325Y-15338484D01*
X17433325Y-15338484D02*
X17414277Y-15348008D01*
X17414277Y-15348008D02*
X17404753Y-15357531D01*
X17404753Y-15357531D02*
X17385706Y-15386103D01*
X17385706Y-15386103D02*
X17376182Y-15424198D01*
X17376182Y-15424198D02*
X17376182Y-15500388D01*
X17376182Y-15500388D02*
X17385706Y-15519436D01*
X17385706Y-15519436D02*
X17395229Y-15528960D01*
X17395229Y-15528960D02*
X17414277Y-15538484D01*
X17414277Y-15538484D02*
X17452372Y-15538484D01*
X17452372Y-15538484D02*
X17471420Y-15528960D01*
X17471420Y-15528960D02*
X17480944Y-15519436D01*
X17480944Y-15519436D02*
X17490468Y-15500388D01*
X17490468Y-15500388D02*
X17490468Y-15452769D01*
X17490468Y-15452769D02*
X17480944Y-15433722D01*
X17480944Y-15433722D02*
X17471420Y-15424198D01*
X17471420Y-15424198D02*
X17452372Y-15414674D01*
X17452372Y-15414674D02*
X17414277Y-15414674D01*
X17414277Y-15414674D02*
X17395229Y-15424198D01*
X17395229Y-15424198D02*
X17385706Y-15433722D01*
X17385706Y-15433722D02*
X17376182Y-15452769D01*
X17614277Y-15338484D02*
X17633325Y-15338484D01*
X17633325Y-15338484D02*
X17652372Y-15348008D01*
X17652372Y-15348008D02*
X17661896Y-15357531D01*
X17661896Y-15357531D02*
X17671420Y-15376579D01*
X17671420Y-15376579D02*
X17680944Y-15414674D01*
X17680944Y-15414674D02*
X17680944Y-15462293D01*
X17680944Y-15462293D02*
X17671420Y-15500388D01*
X17671420Y-15500388D02*
X17661896Y-15519436D01*
X17661896Y-15519436D02*
X17652372Y-15528960D01*
X17652372Y-15528960D02*
X17633325Y-15538484D01*
X17633325Y-15538484D02*
X17614277Y-15538484D01*
X17614277Y-15538484D02*
X17595229Y-15528960D01*
X17595229Y-15528960D02*
X17585706Y-15519436D01*
X17585706Y-15519436D02*
X17576182Y-15500388D01*
X17576182Y-15500388D02*
X17566658Y-15462293D01*
X17566658Y-15462293D02*
X17566658Y-15414674D01*
X17566658Y-15414674D02*
X17576182Y-15376579D01*
X17576182Y-15376579D02*
X17585706Y-15357531D01*
X17585706Y-15357531D02*
X17595229Y-15348008D01*
X17595229Y-15348008D02*
X17614277Y-15338484D01*
X17757134Y-15338484D02*
X17757134Y-15376579D01*
X17833325Y-15338484D02*
X17833325Y-15376579D01*
X18128563Y-15614674D02*
X18119039Y-15605150D01*
X18119039Y-15605150D02*
X18099991Y-15576579D01*
X18099991Y-15576579D02*
X18090468Y-15557531D01*
X18090468Y-15557531D02*
X18080944Y-15528960D01*
X18080944Y-15528960D02*
X18071420Y-15481341D01*
X18071420Y-15481341D02*
X18071420Y-15443246D01*
X18071420Y-15443246D02*
X18080944Y-15395627D01*
X18080944Y-15395627D02*
X18090468Y-15367055D01*
X18090468Y-15367055D02*
X18099991Y-15348008D01*
X18099991Y-15348008D02*
X18119039Y-15319436D01*
X18119039Y-15319436D02*
X18128563Y-15309912D01*
X18195230Y-15357531D02*
X18204753Y-15348008D01*
X18204753Y-15348008D02*
X18223801Y-15338484D01*
X18223801Y-15338484D02*
X18271420Y-15338484D01*
X18271420Y-15338484D02*
X18290468Y-15348008D01*
X18290468Y-15348008D02*
X18299991Y-15357531D01*
X18299991Y-15357531D02*
X18309515Y-15376579D01*
X18309515Y-15376579D02*
X18309515Y-15395627D01*
X18309515Y-15395627D02*
X18299991Y-15424198D01*
X18299991Y-15424198D02*
X18185706Y-15538484D01*
X18185706Y-15538484D02*
X18309515Y-15538484D01*
X18547611Y-15538484D02*
X18547611Y-15338484D01*
X18633325Y-15538484D02*
X18633325Y-15433722D01*
X18633325Y-15433722D02*
X18623801Y-15414674D01*
X18623801Y-15414674D02*
X18604753Y-15405150D01*
X18604753Y-15405150D02*
X18576182Y-15405150D01*
X18576182Y-15405150D02*
X18557134Y-15414674D01*
X18557134Y-15414674D02*
X18547611Y-15424198D01*
X18757134Y-15538484D02*
X18738087Y-15528960D01*
X18738087Y-15528960D02*
X18728563Y-15519436D01*
X18728563Y-15519436D02*
X18719039Y-15500388D01*
X18719039Y-15500388D02*
X18719039Y-15443246D01*
X18719039Y-15443246D02*
X18728563Y-15424198D01*
X18728563Y-15424198D02*
X18738087Y-15414674D01*
X18738087Y-15414674D02*
X18757134Y-15405150D01*
X18757134Y-15405150D02*
X18785706Y-15405150D01*
X18785706Y-15405150D02*
X18804753Y-15414674D01*
X18804753Y-15414674D02*
X18814277Y-15424198D01*
X18814277Y-15424198D02*
X18823801Y-15443246D01*
X18823801Y-15443246D02*
X18823801Y-15500388D01*
X18823801Y-15500388D02*
X18814277Y-15519436D01*
X18814277Y-15519436D02*
X18804753Y-15528960D01*
X18804753Y-15528960D02*
X18785706Y-15538484D01*
X18785706Y-15538484D02*
X18757134Y-15538484D01*
X18938087Y-15538484D02*
X18919039Y-15528960D01*
X18919039Y-15528960D02*
X18909515Y-15509912D01*
X18909515Y-15509912D02*
X18909515Y-15338484D01*
X19090468Y-15528960D02*
X19071420Y-15538484D01*
X19071420Y-15538484D02*
X19033325Y-15538484D01*
X19033325Y-15538484D02*
X19014277Y-15528960D01*
X19014277Y-15528960D02*
X19004753Y-15509912D01*
X19004753Y-15509912D02*
X19004753Y-15433722D01*
X19004753Y-15433722D02*
X19014277Y-15414674D01*
X19014277Y-15414674D02*
X19033325Y-15405150D01*
X19033325Y-15405150D02*
X19071420Y-15405150D01*
X19071420Y-15405150D02*
X19090468Y-15414674D01*
X19090468Y-15414674D02*
X19099992Y-15433722D01*
X19099992Y-15433722D02*
X19099992Y-15452769D01*
X19099992Y-15452769D02*
X19004753Y-15471817D01*
X19176182Y-15528960D02*
X19195230Y-15538484D01*
X19195230Y-15538484D02*
X19233325Y-15538484D01*
X19233325Y-15538484D02*
X19252373Y-15528960D01*
X19252373Y-15528960D02*
X19261896Y-15509912D01*
X19261896Y-15509912D02*
X19261896Y-15500388D01*
X19261896Y-15500388D02*
X19252373Y-15481341D01*
X19252373Y-15481341D02*
X19233325Y-15471817D01*
X19233325Y-15471817D02*
X19204753Y-15471817D01*
X19204753Y-15471817D02*
X19185706Y-15462293D01*
X19185706Y-15462293D02*
X19176182Y-15443246D01*
X19176182Y-15443246D02*
X19176182Y-15433722D01*
X19176182Y-15433722D02*
X19185706Y-15414674D01*
X19185706Y-15414674D02*
X19204753Y-15405150D01*
X19204753Y-15405150D02*
X19233325Y-15405150D01*
X19233325Y-15405150D02*
X19252373Y-15414674D01*
X19328563Y-15614674D02*
X19338087Y-15605150D01*
X19338087Y-15605150D02*
X19357134Y-15576579D01*
X19357134Y-15576579D02*
X19366658Y-15557531D01*
X19366658Y-15557531D02*
X19376182Y-15528960D01*
X19376182Y-15528960D02*
X19385706Y-15481341D01*
X19385706Y-15481341D02*
X19385706Y-15443246D01*
X19385706Y-15443246D02*
X19376182Y-15395627D01*
X19376182Y-15395627D02*
X19366658Y-15367055D01*
X19366658Y-15367055D02*
X19357134Y-15348008D01*
X19357134Y-15348008D02*
X19338087Y-15319436D01*
X19338087Y-15319436D02*
X19328563Y-15309912D01*
M02*
