M48
; DRILL file {KiCad 9.0.0} date 2025-07-11T11:02:10-0400
; FORMAT={-:-/ absolute / inch / decimal}
; #@! TF.CreationDate,2025-07-11T11:02:10-04:00
; #@! TF.GenerationSoftware,Kicad,Pcbnew,9.0.0
; #@! TF.FileFunction,Plated,1,2,PTH
FMAT,2
INCH
; #@! TA.AperFunction,Plated,PTH,ViaDrill
T1C0.0157
; #@! TA.AperFunction,Plated,PTH,ComponentDrill
T2C0.0354
; #@! TA.AperFunction,Plated,PTH,ComponentDrill
T3C0.0394
; #@! TA.AperFunction,Plated,PTH,ComponentDrill
T4C0.0512
; #@! TA.AperFunction,Plated,PTH,ComponentDrill
T5C0.1260
%
G90
G05
T1
X6.1693Y-3.5935
X6.4528Y-3.2726
X6.5283Y-4.6616
X6.5756Y-3.4766
X6.7707Y-2.6142
X7.226Y-2.6177
X7.5108Y-4.6161
X7.7213Y-5.0063
X8.1348Y-3.5069
X8.3602Y-3.3268
T2
X6.1913Y-4.062
X6.2763Y-4.062
X6.3613Y-4.062
X6.4463Y-4.062
T3
X6.1459Y-3.0394
X6.1459Y-3.1394
X6.2459Y-3.0394
X6.2459Y-3.1394
X6.3459Y-3.0394
X6.3459Y-3.1394
X6.4459Y-3.0394
X6.4459Y-3.1394
X6.885Y-2.9992
X6.885Y-3.0992
X6.885Y-3.1992
X6.885Y-3.2992
X6.885Y-3.3992
X6.885Y-3.4992
X6.885Y-3.5992
X6.885Y-3.6992
X6.885Y-3.7992
X6.885Y-3.8992
X6.885Y-3.9992
X6.885Y-4.0992
X6.885Y-4.1992
X6.885Y-4.2992
X6.885Y-4.3992
X6.885Y-4.4992
X6.885Y-4.5992
X6.885Y-4.6992
X6.885Y-4.7992
X7.9102Y-2.9992
X7.9102Y-3.0992
X7.9102Y-3.1992
X7.9102Y-3.2992
X7.9102Y-3.3992
X7.9102Y-3.4992
X7.9102Y-3.5992
X7.9102Y-3.6992
X7.9102Y-3.7992
X7.9102Y-3.8992
X7.9102Y-3.9992
X7.9102Y-4.0992
X7.9102Y-4.1992
X7.9102Y-4.2992
X7.9102Y-4.3992
X7.9102Y-4.4992
X7.9102Y-4.5992
X7.9102Y-4.6992
X7.9102Y-4.7992
X8.2169Y-3.0394
X8.2169Y-3.1394
X8.3169Y-3.0394
X8.3169Y-3.1394
X8.4169Y-3.0394
X8.4169Y-3.1394
X8.5169Y-3.0394
X8.5169Y-3.1394
T5
X7.3937Y-3.2291
X7.3953Y-3.9045
T4
G00X8.7264Y-3.6758
M15
G01X8.7736Y-3.6758
M16
G05
G00X8.7264Y-3.8608
M15
G01X8.7736Y-3.8608
M16
G05
M30
