%TF.GenerationSoftware,KiCad,Pcbnew,9.0.0*%
%TF.CreationDate,2025-07-11T11:02:08-04:00*%
%TF.ProjectId,jammerBT_v3,6a616d6d-6572-4425-945f-76332e6b6963,rev?*%
%TF.SameCoordinates,Original*%
%TF.FileFunction,Copper,L2,Bot*%
%TF.FilePolarity,Positive*%
%FSLAX46Y46*%
G04 Gerber Fmt 4.6, Leading zero omitted, Abs format (unit mm)*
G04 Created by KiCad (PCBNEW 9.0.0) date 2025-07-11 11:02:08*
%MOMM*%
%LPD*%
G01*
G04 APERTURE LIST*
G04 Aperture macros list*
%AMRoundRect*
0 Rectangle with rounded corners*
0 $1 Rounding radius*
0 $2 $3 $4 $5 $6 $7 $8 $9 X,Y pos of 4 corners*
0 Add a 4 corners polygon primitive as box body*
4,1,4,$2,$3,$4,$5,$6,$7,$8,$9,$2,$3,0*
0 Add four circle primitives for the rounded corners*
1,1,$1+$1,$2,$3*
1,1,$1+$1,$4,$5*
1,1,$1+$1,$6,$7*
1,1,$1+$1,$8,$9*
0 Add four rect primitives between the rounded corners*
20,1,$1+$1,$2,$3,$4,$5,0*
20,1,$1+$1,$4,$5,$6,$7,0*
20,1,$1+$1,$6,$7,$8,$9,0*
20,1,$1+$1,$8,$9,$2,$3,0*%
G04 Aperture macros list end*
%TA.AperFunction,ComponentPad*%
%ADD10R,1.700000X1.700000*%
%TD*%
%TA.AperFunction,ComponentPad*%
%ADD11O,1.700000X1.700000*%
%TD*%
%TA.AperFunction,ComponentPad*%
%ADD12C,1.700000*%
%TD*%
%TA.AperFunction,ComponentPad*%
%ADD13R,1.800000X1.800000*%
%TD*%
%TA.AperFunction,ComponentPad*%
%ADD14C,1.800000*%
%TD*%
%TA.AperFunction,ComponentPad*%
%ADD15C,5.600000*%
%TD*%
%TA.AperFunction,ComponentPad*%
%ADD16RoundRect,0.650000X0.850000X-0.650000X0.850000X0.650000X-0.850000X0.650000X-0.850000X-0.650000X0*%
%TD*%
%TA.AperFunction,SMDPad,CuDef*%
%ADD17RoundRect,0.250000X-0.625000X0.400000X-0.625000X-0.400000X0.625000X-0.400000X0.625000X0.400000X0*%
%TD*%
%TA.AperFunction,SMDPad,CuDef*%
%ADD18RoundRect,0.250000X-1.075000X-0.550000X1.075000X-0.550000X1.075000X0.550000X-1.075000X0.550000X0*%
%TD*%
%TA.AperFunction,SMDPad,CuDef*%
%ADD19RoundRect,0.250000X0.475000X-0.337500X0.475000X0.337500X-0.475000X0.337500X-0.475000X-0.337500X0*%
%TD*%
%TA.AperFunction,SMDPad,CuDef*%
%ADD20RoundRect,0.250000X-0.850000X-0.350000X0.850000X-0.350000X0.850000X0.350000X-0.850000X0.350000X0*%
%TD*%
%TA.AperFunction,SMDPad,CuDef*%
%ADD21RoundRect,0.250000X-1.275000X-1.125000X1.275000X-1.125000X1.275000X1.125000X-1.275000X1.125000X0*%
%TD*%
%TA.AperFunction,SMDPad,CuDef*%
%ADD22RoundRect,0.249997X-2.950003X-2.650003X2.950003X-2.650003X2.950003X2.650003X-2.950003X2.650003X0*%
%TD*%
%TA.AperFunction,SMDPad,CuDef*%
%ADD23RoundRect,0.250000X0.400000X0.625000X-0.400000X0.625000X-0.400000X-0.625000X0.400000X-0.625000X0*%
%TD*%
%TA.AperFunction,SMDPad,CuDef*%
%ADD24RoundRect,0.395250X2.531000X0.922250X-2.531000X0.922250X-2.531000X-0.922250X2.531000X-0.922250X0*%
%TD*%
%TA.AperFunction,SMDPad,CuDef*%
%ADD25RoundRect,0.395250X2.517250X0.922250X-2.517250X0.922250X-2.517250X-0.922250X2.517250X-0.922250X0*%
%TD*%
%TA.AperFunction,ViaPad*%
%ADD26C,0.800000*%
%TD*%
%TA.AperFunction,Conductor*%
%ADD27C,0.500000*%
%TD*%
%TA.AperFunction,Conductor*%
%ADD28C,0.300000*%
%TD*%
G04 APERTURE END LIST*
D10*
%TO.P,J3,1,Pin_1*%
%TO.N,+3.3V*%
X174880000Y-76180000D03*
D11*
%TO.P,J3,2,Pin_2*%
%TO.N,unconnected-(J3-Pin_2-Pad2)*%
X174880000Y-78720000D03*
%TO.P,J3,3,Pin_3*%
%TO.N,unconnected-(J3-Pin_3-Pad3)*%
X174880000Y-81260000D03*
%TO.P,J3,4,Pin_4*%
%TO.N,unconnected-(J3-Pin_4-Pad4)*%
X174880000Y-83800000D03*
%TO.P,J3,5,Pin_5*%
%TO.N,Net-(J3-Pin_5)*%
X174880000Y-86340000D03*
%TO.P,J3,6,Pin_6*%
%TO.N,unconnected-(J3-Pin_6-Pad6)*%
X174880000Y-88880000D03*
%TO.P,J3,7,Pin_7*%
%TO.N,unconnected-(J3-Pin_7-Pad7)*%
X174880000Y-91420000D03*
%TO.P,J3,8,Pin_8*%
%TO.N,unconnected-(J3-Pin_8-Pad8)*%
X174880000Y-93960000D03*
%TO.P,J3,9,Pin_9*%
%TO.N,unconnected-(J3-Pin_9-Pad9)*%
X174880000Y-96500000D03*
%TO.P,J3,10,Pin_10*%
%TO.N,unconnected-(J3-Pin_10-Pad10)*%
X174880000Y-99040000D03*
%TO.P,J3,11,Pin_11*%
%TO.N,unconnected-(J3-Pin_11-Pad11)*%
X174880000Y-101580000D03*
%TO.P,J3,12,Pin_12*%
%TO.N,Net-(J3-Pin_12)*%
X174880000Y-104120000D03*
%TO.P,J3,13,Pin_13*%
%TO.N,Net-(J3-Pin_13)*%
X174880000Y-106660000D03*
%TO.P,J3,14,Pin_14*%
%TO.N,GND*%
X174880000Y-109200000D03*
%TO.P,J3,15,Pin_15*%
%TO.N,Net-(J3-Pin_15)*%
X174880000Y-111740000D03*
%TO.P,J3,16,Pin_16*%
%TO.N,unconnected-(J3-Pin_16-Pad16)*%
X174880000Y-114280000D03*
%TO.P,J3,17,Pin_17*%
%TO.N,unconnected-(J3-Pin_17-Pad17)*%
X174880000Y-116820000D03*
%TO.P,J3,18,Pin_18*%
%TO.N,unconnected-(J3-Pin_18-Pad18)*%
X174880000Y-119360000D03*
%TO.P,J3,19,Pin_19*%
%TO.N,unconnected-(J3-Pin_19-Pad19)*%
X174880000Y-121900000D03*
%TD*%
D10*
%TO.P,J4,1,Pin_1*%
%TO.N,GND*%
X200920000Y-76180000D03*
D11*
%TO.P,J4,2,Pin_2*%
%TO.N,Net-(J4-Pin_2)*%
X200920000Y-78720000D03*
%TO.P,J4,3,Pin_3*%
%TO.N,Net-(J4-Pin_3)*%
X200920000Y-81260000D03*
%TO.P,J4,4,Pin_4*%
%TO.N,unconnected-(J4-Pin_4-Pad4)*%
X200920000Y-83800000D03*
%TO.P,J4,5,Pin_5*%
%TO.N,unconnected-(J4-Pin_5-Pad5)*%
X200920000Y-86340000D03*
%TO.P,J4,6,Pin_6*%
%TO.N,Net-(J4-Pin_6)*%
X200920000Y-88880000D03*
%TO.P,J4,7,Pin_7*%
%TO.N,GND*%
X200920000Y-91420000D03*
%TO.P,J4,8,Pin_8*%
%TO.N,Net-(J4-Pin_8)*%
X200920000Y-93960000D03*
%TO.P,J4,9,Pin_9*%
%TO.N,Net-(J4-Pin_9)*%
X200920000Y-96500000D03*
%TO.P,J4,10,Pin_10*%
%TO.N,Net-(J4-Pin_10)*%
X200920000Y-99040000D03*
%TO.P,J4,11,Pin_11*%
%TO.N,unconnected-(J4-Pin_11-Pad11)*%
X200920000Y-101580000D03*
%TO.P,J4,12,Pin_12*%
%TO.N,Net-(J4-Pin_12)*%
X200920000Y-104120000D03*
%TO.P,J4,13,Pin_13*%
%TO.N,Net-(J4-Pin_13)*%
X200920000Y-106660000D03*
%TO.P,J4,14,Pin_14*%
%TO.N,unconnected-(J4-Pin_14-Pad14)*%
X200920000Y-109200000D03*
%TO.P,J4,15,Pin_15*%
%TO.N,Net-(J4-Pin_15)*%
X200920000Y-111740000D03*
%TO.P,J4,16,Pin_16*%
%TO.N,Net-(J4-Pin_16)*%
X200920000Y-114280000D03*
%TO.P,J4,17,Pin_17*%
%TO.N,unconnected-(J4-Pin_17-Pad17)*%
X200920000Y-116820000D03*
%TO.P,J4,18,Pin_18*%
%TO.N,unconnected-(J4-Pin_18-Pad18)*%
X200920000Y-119360000D03*
%TO.P,J4,19,Pin_19*%
%TO.N,unconnected-(J4-Pin_19-Pad19)*%
X200920000Y-121900000D03*
%TD*%
D10*
%TO.P,U2,1,GND*%
%TO.N,GND*%
X208710000Y-79740000D03*
D12*
%TO.P,U2,2,VCC*%
%TO.N,+3.3V*%
X208710000Y-77200000D03*
%TO.P,U2,3,CE*%
%TO.N,Net-(J4-Pin_16)*%
X211250000Y-79740000D03*
%TO.P,U2,4,~{CSN}*%
%TO.N,Net-(J4-Pin_10)*%
X211250000Y-77200000D03*
%TO.P,U2,5,SCK*%
%TO.N,Net-(J4-Pin_9)*%
X213790000Y-79740000D03*
%TO.P,U2,6,MOSI*%
%TO.N,Net-(J4-Pin_2)*%
X213790000Y-77200000D03*
%TO.P,U2,7,MISO*%
%TO.N,Net-(J4-Pin_8)*%
X216330000Y-79740000D03*
%TO.P,U2,8,IRQ*%
%TO.N,unconnected-(U2-IRQ-Pad8)*%
X216330000Y-77200000D03*
%TD*%
D13*
%TO.P,D1,1,BA*%
%TO.N,Net-(D1-BA)*%
X157260000Y-103175000D03*
D14*
%TO.P,D1,2,GA*%
%TO.N,Net-(D1-GA)*%
X159419000Y-103175000D03*
%TO.P,D1,3,K*%
%TO.N,GND*%
X161578000Y-103175000D03*
%TO.P,D1,4,RA*%
%TO.N,Net-(D1-RA)*%
X163737000Y-103175000D03*
%TD*%
D15*
%TO.P,H2,1*%
%TO.N,N/C*%
X187840000Y-99175000D03*
%TD*%
D16*
%TO.P,SW1,1*%
%TO.N,+BATT*%
X222250000Y-98065000D03*
%TO.P,SW1,2*%
%TO.N,+5V*%
X222250000Y-93365000D03*
%TD*%
D10*
%TO.P,U3,1,GND*%
%TO.N,GND*%
X156105000Y-79740000D03*
D12*
%TO.P,U3,2,VCC*%
%TO.N,+3.3V*%
X156105000Y-77200000D03*
%TO.P,U3,3,CE*%
%TO.N,Net-(J4-Pin_3)*%
X158645000Y-79740000D03*
%TO.P,U3,4,~{CSN}*%
%TO.N,Net-(J4-Pin_6)*%
X158645000Y-77200000D03*
%TO.P,U3,5,SCK*%
%TO.N,Net-(J3-Pin_12)*%
X161185000Y-79740000D03*
%TO.P,U3,6,MOSI*%
%TO.N,Net-(J3-Pin_15)*%
X161185000Y-77200000D03*
%TO.P,U3,7,MISO*%
%TO.N,Net-(J3-Pin_13)*%
X163725000Y-79740000D03*
%TO.P,U3,8,IRQ*%
%TO.N,unconnected-(U3-IRQ-Pad8)*%
X163725000Y-77200000D03*
%TD*%
D15*
%TO.P,H1,1*%
%TO.N,N/C*%
X187800000Y-82020000D03*
%TD*%
D17*
%TO.P,R2,1*%
%TO.N,Net-(J4-Pin_13)*%
X164575000Y-94375000D03*
%TO.P,R2,2*%
%TO.N,Net-(D1-GA)*%
X164575000Y-97475000D03*
%TD*%
D18*
%TO.P,C2,1*%
%TO.N,+5V*%
X209850000Y-128325000D03*
%TO.P,C2,2*%
%TO.N,GND*%
X213200000Y-128325000D03*
%TD*%
D17*
%TO.P,R1,1*%
%TO.N,Net-(J4-Pin_12)*%
X156675000Y-94375000D03*
%TO.P,R1,2*%
%TO.N,Net-(D1-RA)*%
X156675000Y-97475000D03*
%TD*%
D19*
%TO.P,C6,1*%
%TO.N,+3.3V*%
X174725000Y-73137500D03*
%TO.P,C6,2*%
%TO.N,GND*%
X174725000Y-71062500D03*
%TD*%
D17*
%TO.P,R3,1*%
%TO.N,Net-(J4-Pin_15)*%
X160450000Y-94375000D03*
%TO.P,R3,2*%
%TO.N,Net-(D1-BA)*%
X160450000Y-97475000D03*
%TD*%
D18*
%TO.P,C5,1*%
%TO.N,+3.3V*%
X209475000Y-96225000D03*
%TO.P,C5,2*%
%TO.N,GND*%
X212825000Y-96225000D03*
%TD*%
D20*
%TO.P,U1,1,VI*%
%TO.N,+5V*%
X209195000Y-113782500D03*
D21*
%TO.P,U1,2,GND*%
%TO.N,GND*%
X213820000Y-109977500D03*
X213820000Y-113027500D03*
D22*
X215495000Y-111502500D03*
D21*
X217170000Y-109977500D03*
X217170000Y-113027500D03*
D20*
%TO.P,U1,3,VO*%
%TO.N,+3.3V*%
X209195000Y-109222500D03*
%TD*%
D18*
%TO.P,C4,1*%
%TO.N,+3.3V*%
X209525000Y-102650000D03*
%TO.P,C4,2*%
%TO.N,GND*%
X212875000Y-102650000D03*
%TD*%
D23*
%TO.P,R4,1*%
%TO.N,+3.3V*%
X205825000Y-128450000D03*
%TO.P,R4,2*%
%TO.N,Net-(J3-Pin_5)*%
X202725000Y-128450000D03*
%TD*%
D18*
%TO.P,C3,1*%
%TO.N,+5V*%
X209850000Y-120475000D03*
%TO.P,C3,2*%
%TO.N,GND*%
X213200000Y-120475000D03*
%TD*%
D24*
%TO.P,J1,1,Pin_1*%
%TO.N,+BATT*%
X219826250Y-122133750D03*
D25*
%TO.P,J1,2,Pin_2*%
%TO.N,GND*%
X219840000Y-127216250D03*
%TD*%
D26*
%TO.N,GND*%
X165820000Y-118405000D03*
%TO.N,Net-(J3-Pin_5)*%
X167019669Y-88305331D03*
X190775000Y-117250000D03*
X196120000Y-127160000D03*
%TO.N,Net-(J3-Pin_13)*%
X163900000Y-83125000D03*
%TO.N,Net-(J4-Pin_8)*%
X212350000Y-84500000D03*
%TO.N,Net-(J4-Pin_16)*%
X206625000Y-89075000D03*
%TO.N,Net-(J4-Pin_12)*%
X156700000Y-91275000D03*
%TO.N,Net-(J4-Pin_6)*%
X171975000Y-66400000D03*
X183540000Y-66490000D03*
%TD*%
D27*
%TO.N,+5V*%
X224840000Y-93365000D02*
X222250000Y-93365000D01*
X226200000Y-94725000D02*
X224840000Y-93365000D01*
X222400000Y-131550000D02*
X226200000Y-127750000D01*
X210500000Y-131550000D02*
X222400000Y-131550000D01*
X226200000Y-127750000D02*
X226200000Y-94725000D01*
X209850000Y-128325000D02*
X209850000Y-130900000D01*
X209850000Y-130900000D02*
X210500000Y-131550000D01*
%TO.N,+BATT*%
X219826250Y-117848750D02*
X222250000Y-115425000D01*
X222250000Y-115425000D02*
X222250000Y-98065000D01*
X219826250Y-122133750D02*
X219826250Y-117848750D01*
%TO.N,+5V*%
X209250000Y-119875000D02*
X209850000Y-120475000D01*
X209850000Y-120475000D02*
X209850000Y-128325000D01*
X209250000Y-113837500D02*
X209250000Y-119875000D01*
%TO.N,+3.3V*%
X209475000Y-96225000D02*
X209475000Y-102600000D01*
X208710000Y-77200000D02*
X206300000Y-77200000D01*
X206500000Y-128325000D02*
X205950000Y-128325000D01*
X209475000Y-89121504D02*
X209475000Y-96225000D01*
X209525000Y-102650000D02*
X209525000Y-108892500D01*
X205075000Y-78425000D02*
X205075000Y-84721504D01*
X209195000Y-109222500D02*
X207322500Y-109222500D01*
X207075000Y-109470000D02*
X207075000Y-127750000D01*
X206300000Y-77200000D02*
X205075000Y-78425000D01*
X174725000Y-73137500D02*
X174725000Y-76025000D01*
X207075000Y-127750000D02*
X206500000Y-128325000D01*
X207322500Y-109222500D02*
X207075000Y-109470000D01*
X205075000Y-84721504D02*
X209475000Y-89121504D01*
D28*
%TO.N,Net-(D1-GA)*%
X164575000Y-97475000D02*
X164575000Y-99050000D01*
X164575000Y-99050000D02*
X163300000Y-100325000D01*
X163300000Y-100325000D02*
X160550000Y-100325000D01*
X160550000Y-100325000D02*
X159419000Y-101456000D01*
X159419000Y-101456000D02*
X159419000Y-103175000D01*
%TO.N,Net-(D1-BA)*%
X160450000Y-97475000D02*
X160450000Y-98450000D01*
X157260000Y-101640000D02*
X157260000Y-103175000D01*
X160450000Y-98450000D02*
X157260000Y-101640000D01*
%TO.N,Net-(D1-RA)*%
X155150000Y-99000000D02*
X155150000Y-107400000D01*
X155150000Y-107400000D02*
X162400000Y-107400000D01*
X156675000Y-97475000D02*
X155150000Y-99000000D01*
X162400000Y-107400000D02*
X163737000Y-106063000D01*
X163737000Y-106063000D02*
X163737000Y-103175000D01*
%TO.N,Net-(J3-Pin_15)*%
X161185000Y-75535000D02*
X160450000Y-74800000D01*
X172060000Y-111740000D02*
X174880000Y-111740000D01*
X161185000Y-77200000D02*
X161185000Y-75535000D01*
X170375000Y-97300000D02*
X170375000Y-110055000D01*
X160450000Y-74800000D02*
X151725000Y-74800000D01*
X170375000Y-110055000D02*
X172060000Y-111740000D01*
X151725000Y-74800000D02*
X151725000Y-82405000D01*
X155480000Y-82405000D02*
X170375000Y-97300000D01*
X151725000Y-82405000D02*
X155480000Y-82405000D01*
%TO.N,Net-(J3-Pin_5)*%
X190290000Y-114660000D02*
X192410000Y-112540000D01*
X192410000Y-96085000D02*
X182665000Y-86340000D01*
X192410000Y-112540000D02*
X192410000Y-96085000D01*
X202725000Y-128450000D02*
X197410000Y-128450000D01*
X190775000Y-117250000D02*
X190290000Y-116765000D01*
X168985000Y-86340000D02*
X174880000Y-86340000D01*
X167019669Y-88305331D02*
X168985000Y-86340000D01*
X197410000Y-128450000D02*
X196120000Y-127160000D01*
X182665000Y-86340000D02*
X174880000Y-86340000D01*
X190290000Y-116765000D02*
X190290000Y-114660000D01*
%TO.N,Net-(J3-Pin_13)*%
X163900000Y-88275000D02*
X171800000Y-96175000D01*
X171800000Y-96175000D02*
X171800000Y-106375000D01*
X172085000Y-106660000D02*
X174880000Y-106660000D01*
X163900000Y-83125000D02*
X163900000Y-88275000D01*
X171800000Y-106375000D02*
X172085000Y-106660000D01*
%TO.N,Net-(J4-Pin_8)*%
X212350000Y-84500000D02*
X213775000Y-84500000D01*
X216330000Y-81945000D02*
X216330000Y-79819500D01*
X213775000Y-84500000D02*
X216330000Y-81945000D01*
%TO.N,Net-(J4-Pin_2)*%
X211750000Y-73150000D02*
X208591064Y-73150000D01*
X213790000Y-77200000D02*
X213790000Y-75190000D01*
X213790000Y-75190000D02*
X211750000Y-73150000D01*
X203021064Y-78720000D02*
X200920000Y-78720000D01*
X208591064Y-73150000D02*
X203021064Y-78720000D01*
%TO.N,Net-(J4-Pin_16)*%
X204925000Y-90775000D02*
X204925000Y-114280000D01*
X206625000Y-89075000D02*
X204925000Y-90775000D01*
X204925000Y-114280000D02*
X200920000Y-114280000D01*
%TO.N,Net-(J4-Pin_13)*%
X187375000Y-125375000D02*
X193540000Y-119210000D01*
X195190000Y-106660000D02*
X200920000Y-106660000D01*
X171845000Y-125375000D02*
X187375000Y-125375000D01*
X168150000Y-96625000D02*
X168150000Y-121680000D01*
X193540000Y-119210000D02*
X193540000Y-108310000D01*
X165900000Y-94375000D02*
X168150000Y-96625000D01*
X193540000Y-108310000D02*
X195190000Y-106660000D01*
X164575000Y-94375000D02*
X165900000Y-94375000D01*
X168150000Y-121680000D02*
X171845000Y-125375000D01*
%TO.N,Net-(J4-Pin_12)*%
X156675000Y-94375000D02*
X156675000Y-91300000D01*
X156675000Y-91300000D02*
X156700000Y-91275000D01*
%TO.N,Net-(J4-Pin_15)*%
X197135000Y-111740000D02*
X200920000Y-111740000D01*
X160269000Y-93800000D02*
X160269000Y-91500000D01*
X153450000Y-89325000D02*
X153450000Y-120970000D01*
X189225000Y-127025000D02*
X195425000Y-120825000D01*
X158094000Y-89325000D02*
X153450000Y-89325000D01*
X160269000Y-91500000D02*
X158094000Y-89325000D01*
X195425000Y-113450000D02*
X197135000Y-111740000D01*
X159505000Y-127025000D02*
X189225000Y-127025000D01*
X195425000Y-120825000D02*
X195425000Y-113450000D01*
X153450000Y-120970000D02*
X159505000Y-127025000D01*
%TO.N,Net-(J4-Pin_3)*%
X186340000Y-72190000D02*
X195410000Y-81260000D01*
X180255000Y-68530000D02*
X183915000Y-72190000D01*
X170575000Y-71250000D02*
X173295000Y-68530000D01*
X158645000Y-81845000D02*
X159100000Y-82300000D01*
X159100000Y-82300000D02*
X167520000Y-82300000D01*
X170575000Y-79245000D02*
X170575000Y-71250000D01*
X158645000Y-79740000D02*
X158645000Y-81845000D01*
X167520000Y-82300000D02*
X170575000Y-79245000D01*
X195410000Y-81260000D02*
X200920000Y-81260000D01*
X183915000Y-72190000D02*
X186340000Y-72190000D01*
X173295000Y-68530000D02*
X180255000Y-68530000D01*
%TO.N,Net-(J4-Pin_6)*%
X183540000Y-66490000D02*
X183450000Y-66400000D01*
X183450000Y-66400000D02*
X171975000Y-66400000D01*
%TD*%
%TA.AperFunction,Conductor*%
%TO.N,GND*%
G36*
X227643039Y-49419685D02*
G01*
X227688794Y-49472489D01*
X227700000Y-49524000D01*
X227700000Y-134751000D01*
X227680315Y-134818039D01*
X227627511Y-134863794D01*
X227576000Y-134875000D01*
X148249000Y-134875000D01*
X148181961Y-134855315D01*
X148136206Y-134802511D01*
X148125000Y-134751000D01*
X148125000Y-89272273D01*
X153049500Y-89272273D01*
X153049500Y-121022726D01*
X153076793Y-121124589D01*
X153103156Y-121170250D01*
X153129520Y-121215913D01*
X159259087Y-127345480D01*
X159350412Y-127398207D01*
X159452273Y-127425500D01*
X159452275Y-127425500D01*
X189277725Y-127425500D01*
X189277727Y-127425500D01*
X189379588Y-127398207D01*
X189470913Y-127345480D01*
X189592322Y-127224071D01*
X195469499Y-127224071D01*
X195494497Y-127349738D01*
X195494499Y-127349744D01*
X195543533Y-127468124D01*
X195543538Y-127468133D01*
X195614723Y-127574668D01*
X195614726Y-127574672D01*
X195705327Y-127665273D01*
X195705331Y-127665276D01*
X195811866Y-127736461D01*
X195811872Y-127736464D01*
X195811873Y-127736465D01*
X195930256Y-127785501D01*
X195930260Y-127785501D01*
X195930261Y-127785502D01*
X196055928Y-127810500D01*
X196152745Y-127810500D01*
X196219784Y-127830185D01*
X196240426Y-127846819D01*
X197089519Y-128695912D01*
X197089520Y-128695913D01*
X197164087Y-128770480D01*
X197255413Y-128823207D01*
X197357273Y-128850500D01*
X197462726Y-128850500D01*
X201700501Y-128850500D01*
X201767540Y-128870185D01*
X201813295Y-128922989D01*
X201824501Y-128974500D01*
X201824501Y-129122876D01*
X201830908Y-129182483D01*
X201881202Y-129317328D01*
X201881206Y-129317335D01*
X201967452Y-129432544D01*
X201967455Y-129432547D01*
X202082664Y-129518793D01*
X202082671Y-129518797D01*
X202217517Y-129569091D01*
X202217516Y-129569091D01*
X202224444Y-129569835D01*
X202277127Y-129575500D01*
X203172872Y-129575499D01*
X203232483Y-129569091D01*
X203367331Y-129518796D01*
X203482546Y-129432546D01*
X203568796Y-129317331D01*
X203619091Y-129182483D01*
X203625500Y-129122873D01*
X203625499Y-127777128D01*
X203619091Y-127717517D01*
X203600442Y-127667517D01*
X203568797Y-127582671D01*
X203568793Y-127582664D01*
X203482547Y-127467455D01*
X203482544Y-127467452D01*
X203367335Y-127381206D01*
X203367328Y-127381202D01*
X203232482Y-127330908D01*
X203232483Y-127330908D01*
X203172883Y-127324501D01*
X203172881Y-127324500D01*
X203172873Y-127324500D01*
X203172864Y-127324500D01*
X202277129Y-127324500D01*
X202277123Y-127324501D01*
X202217516Y-127330908D01*
X202082671Y-127381202D01*
X202082664Y-127381206D01*
X201967455Y-127467452D01*
X201967452Y-127467455D01*
X201881206Y-127582664D01*
X201881202Y-127582671D01*
X201830908Y-127717517D01*
X201824501Y-127777116D01*
X201824501Y-127777123D01*
X201824500Y-127777135D01*
X201824500Y-127925500D01*
X201804815Y-127992539D01*
X201752011Y-128038294D01*
X201700500Y-128049500D01*
X197627255Y-128049500D01*
X197560216Y-128029815D01*
X197539574Y-128013181D01*
X196806819Y-127280426D01*
X196773334Y-127219103D01*
X196770500Y-127192745D01*
X196770500Y-127095928D01*
X196745502Y-126970261D01*
X196745501Y-126970260D01*
X196745501Y-126970256D01*
X196696465Y-126851873D01*
X196696464Y-126851872D01*
X196696461Y-126851866D01*
X196625276Y-126745331D01*
X196625273Y-126745327D01*
X196534672Y-126654726D01*
X196534668Y-126654723D01*
X196428133Y-126583538D01*
X196428124Y-126583533D01*
X196309744Y-126534499D01*
X196309738Y-126534497D01*
X196184071Y-126509500D01*
X196184069Y-126509500D01*
X196055931Y-126509500D01*
X196055929Y-126509500D01*
X195930261Y-126534497D01*
X195930255Y-126534499D01*
X195811875Y-126583533D01*
X195811866Y-126583538D01*
X195705331Y-126654723D01*
X195705327Y-126654726D01*
X195614726Y-126745327D01*
X195614723Y-126745331D01*
X195543538Y-126851866D01*
X195543533Y-126851875D01*
X195494499Y-126970255D01*
X195494497Y-126970261D01*
X195469500Y-127095928D01*
X195469500Y-127095931D01*
X195469500Y-127224069D01*
X195469500Y-127224071D01*
X195469499Y-127224071D01*
X189592322Y-127224071D01*
X195003004Y-121813389D01*
X199819500Y-121813389D01*
X199819500Y-121986611D01*
X199846598Y-122157701D01*
X199900127Y-122322445D01*
X199978768Y-122476788D01*
X200080586Y-122616928D01*
X200203072Y-122739414D01*
X200343212Y-122841232D01*
X200497555Y-122919873D01*
X200662299Y-122973402D01*
X200833389Y-123000500D01*
X200833390Y-123000500D01*
X201006610Y-123000500D01*
X201006611Y-123000500D01*
X201177701Y-122973402D01*
X201342445Y-122919873D01*
X201496788Y-122841232D01*
X201636928Y-122739414D01*
X201759414Y-122616928D01*
X201861232Y-122476788D01*
X201939873Y-122322445D01*
X201993402Y-122157701D01*
X202020500Y-121986611D01*
X202020500Y-121813389D01*
X201993402Y-121642299D01*
X201939873Y-121477555D01*
X201861232Y-121323212D01*
X201759414Y-121183072D01*
X201636928Y-121060586D01*
X201496788Y-120958768D01*
X201342445Y-120880127D01*
X201177701Y-120826598D01*
X201177699Y-120826597D01*
X201177698Y-120826597D01*
X201035698Y-120804107D01*
X201006611Y-120799500D01*
X200833389Y-120799500D01*
X200804302Y-120804107D01*
X200662302Y-120826597D01*
X200662299Y-120826598D01*
X200504945Y-120877726D01*
X200497552Y-120880128D01*
X200343211Y-120958768D01*
X200314554Y-120979589D01*
X200203072Y-121060586D01*
X200203070Y-121060588D01*
X200203069Y-121060588D01*
X200080588Y-121183069D01*
X200080588Y-121183070D01*
X200080586Y-121183072D01*
X200056726Y-121215913D01*
X199978768Y-121323211D01*
X199900128Y-121477552D01*
X199846597Y-121642302D01*
X199825580Y-121774999D01*
X199819500Y-121813389D01*
X195003004Y-121813389D01*
X195745480Y-121070913D01*
X195798207Y-120979588D01*
X195825500Y-120877727D01*
X195825500Y-120772273D01*
X195825500Y-119273389D01*
X199819500Y-119273389D01*
X199819500Y-119446611D01*
X199824979Y-119481202D01*
X199844725Y-119605880D01*
X199846598Y-119617701D01*
X199900127Y-119782445D01*
X199978768Y-119936788D01*
X200080586Y-120076928D01*
X200203072Y-120199414D01*
X200343212Y-120301232D01*
X200497555Y-120379873D01*
X200662299Y-120433402D01*
X200833389Y-120460500D01*
X200833390Y-120460500D01*
X201006610Y-120460500D01*
X201006611Y-120460500D01*
X201177701Y-120433402D01*
X201342445Y-120379873D01*
X201496788Y-120301232D01*
X201636928Y-120199414D01*
X201759414Y-120076928D01*
X201861232Y-119936788D01*
X201939873Y-119782445D01*
X201993402Y-119617701D01*
X202020500Y-119446611D01*
X202020500Y-119273389D01*
X201993402Y-119102299D01*
X201939873Y-118937555D01*
X201861232Y-118783212D01*
X201759414Y-118643072D01*
X201636928Y-118520586D01*
X201496788Y-118418768D01*
X201342445Y-118340127D01*
X201177701Y-118286598D01*
X201177699Y-118286597D01*
X201177698Y-118286597D01*
X201046271Y-118265781D01*
X201006611Y-118259500D01*
X200833389Y-118259500D01*
X200793728Y-118265781D01*
X200662302Y-118286597D01*
X200497552Y-118340128D01*
X200343211Y-118418768D01*
X200263256Y-118476859D01*
X200203072Y-118520586D01*
X200203070Y-118520588D01*
X200203069Y-118520588D01*
X200080588Y-118643069D01*
X200080588Y-118643070D01*
X200080586Y-118643072D01*
X200036859Y-118703256D01*
X199978768Y-118783211D01*
X199900128Y-118937552D01*
X199846597Y-119102302D01*
X199837891Y-119157273D01*
X199819500Y-119273389D01*
X195825500Y-119273389D01*
X195825500Y-116733389D01*
X199819500Y-116733389D01*
X199819500Y-116906610D01*
X199843835Y-117060261D01*
X199846598Y-117077701D01*
X199900127Y-117242445D01*
X199978768Y-117396788D01*
X200080586Y-117536928D01*
X200203072Y-117659414D01*
X200343212Y-117761232D01*
X200497555Y-117839873D01*
X200662299Y-117893402D01*
X200833389Y-117920500D01*
X200833390Y-117920500D01*
X201006610Y-117920500D01*
X201006611Y-117920500D01*
X201177701Y-117893402D01*
X201342445Y-117839873D01*
X201496788Y-117761232D01*
X201636928Y-117659414D01*
X201759414Y-117536928D01*
X201861232Y-117396788D01*
X201939873Y-117242445D01*
X201993402Y-117077701D01*
X202020500Y-116906611D01*
X202020500Y-116733389D01*
X201993402Y-116562299D01*
X201939873Y-116397555D01*
X201861232Y-116243212D01*
X201759414Y-116103072D01*
X201636928Y-115980586D01*
X201496788Y-115878768D01*
X201342445Y-115800127D01*
X201177701Y-115746598D01*
X201177699Y-115746597D01*
X201177698Y-115746597D01*
X201046271Y-115725781D01*
X201006611Y-115719500D01*
X200833389Y-115719500D01*
X200793728Y-115725781D01*
X200662302Y-115746597D01*
X200497552Y-115800128D01*
X200343211Y-115878768D01*
X200263256Y-115936859D01*
X200203072Y-115980586D01*
X200203070Y-115980588D01*
X200203069Y-115980588D01*
X200080588Y-116103069D01*
X200080588Y-116103070D01*
X200080586Y-116103072D01*
X200036859Y-116163256D01*
X199978768Y-116243211D01*
X199900128Y-116397552D01*
X199846597Y-116562302D01*
X199819500Y-116733389D01*
X195825500Y-116733389D01*
X195825500Y-114193389D01*
X199819500Y-114193389D01*
X199819500Y-114366611D01*
X199820802Y-114374831D01*
X199841483Y-114505410D01*
X199846598Y-114537701D01*
X199900127Y-114702445D01*
X199978768Y-114856788D01*
X200080586Y-114996928D01*
X200203072Y-115119414D01*
X200343212Y-115221232D01*
X200497555Y-115299873D01*
X200662299Y-115353402D01*
X200833389Y-115380500D01*
X200833390Y-115380500D01*
X201006610Y-115380500D01*
X201006611Y-115380500D01*
X201177701Y-115353402D01*
X201342445Y-115299873D01*
X201496788Y-115221232D01*
X201636928Y-115119414D01*
X201759414Y-114996928D01*
X201861232Y-114856788D01*
X201876974Y-114825892D01*
X201916557Y-114748206D01*
X201964531Y-114697409D01*
X202027042Y-114680500D01*
X204977725Y-114680500D01*
X204977727Y-114680500D01*
X205079587Y-114653207D01*
X205170913Y-114600480D01*
X205245480Y-114525913D01*
X205298207Y-114434587D01*
X205325500Y-114332727D01*
X205325500Y-90992254D01*
X205345185Y-90925215D01*
X205361814Y-90904577D01*
X206504573Y-89761818D01*
X206565896Y-89728334D01*
X206592254Y-89725500D01*
X206689071Y-89725500D01*
X206773615Y-89708682D01*
X206814744Y-89700501D01*
X206933127Y-89651465D01*
X207039669Y-89580276D01*
X207130276Y-89489669D01*
X207201465Y-89383127D01*
X207250501Y-89264744D01*
X207269266Y-89170410D01*
X207275500Y-89139071D01*
X207275500Y-89010928D01*
X207250502Y-88885261D01*
X207250501Y-88885260D01*
X207250501Y-88885256D01*
X207201465Y-88766873D01*
X207201464Y-88766872D01*
X207201461Y-88766866D01*
X207130276Y-88660331D01*
X207130273Y-88660327D01*
X207039672Y-88569726D01*
X207039668Y-88569723D01*
X206933133Y-88498538D01*
X206933124Y-88498533D01*
X206814744Y-88449499D01*
X206814738Y-88449497D01*
X206689071Y-88424500D01*
X206689069Y-88424500D01*
X206560931Y-88424500D01*
X206560929Y-88424500D01*
X206435261Y-88449497D01*
X206435255Y-88449499D01*
X206316875Y-88498533D01*
X206316866Y-88498538D01*
X206210331Y-88569723D01*
X206210327Y-88569726D01*
X206119726Y-88660327D01*
X206119723Y-88660331D01*
X206048538Y-88766866D01*
X206048533Y-88766875D01*
X205999499Y-88885255D01*
X205999497Y-88885261D01*
X205974500Y-89010928D01*
X205974500Y-89107744D01*
X205954815Y-89174783D01*
X205938181Y-89195425D01*
X204604522Y-90529084D01*
X204604520Y-90529087D01*
X204551794Y-90620409D01*
X204551793Y-90620411D01*
X204551793Y-90620412D01*
X204529645Y-90703072D01*
X204529644Y-90703071D01*
X204524500Y-90722270D01*
X204524500Y-113755500D01*
X204504815Y-113822539D01*
X204452011Y-113868294D01*
X204400500Y-113879500D01*
X202027042Y-113879500D01*
X201960003Y-113859815D01*
X201916557Y-113811794D01*
X201861233Y-113703213D01*
X201845937Y-113682160D01*
X201759414Y-113563072D01*
X201636928Y-113440586D01*
X201496788Y-113338768D01*
X201342445Y-113260127D01*
X201177701Y-113206598D01*
X201177699Y-113206597D01*
X201177698Y-113206597D01*
X201046271Y-113185781D01*
X201006611Y-113179500D01*
X200833389Y-113179500D01*
X200793728Y-113185781D01*
X200662302Y-113206597D01*
X200497552Y-113260128D01*
X200343211Y-113338768D01*
X200263256Y-113396859D01*
X200203072Y-113440586D01*
X200203070Y-113440588D01*
X200203069Y-113440588D01*
X200080588Y-113563069D01*
X200080588Y-113563070D01*
X200080586Y-113563072D01*
X200068597Y-113579574D01*
X199978768Y-113703211D01*
X199900128Y-113857552D01*
X199846597Y-114022302D01*
X199821561Y-114180376D01*
X199819500Y-114193389D01*
X195825500Y-114193389D01*
X195825500Y-113667255D01*
X195845185Y-113600216D01*
X195861819Y-113579574D01*
X197264574Y-112176819D01*
X197325897Y-112143334D01*
X197352255Y-112140500D01*
X199812958Y-112140500D01*
X199879997Y-112160185D01*
X199923443Y-112208206D01*
X199978766Y-112316786D01*
X199983096Y-112322745D01*
X200080586Y-112456928D01*
X200203072Y-112579414D01*
X200343212Y-112681232D01*
X200497555Y-112759873D01*
X200662299Y-112813402D01*
X200833389Y-112840500D01*
X200833390Y-112840500D01*
X201006610Y-112840500D01*
X201006611Y-112840500D01*
X201177701Y-112813402D01*
X201342445Y-112759873D01*
X201496788Y-112681232D01*
X201636928Y-112579414D01*
X201759414Y-112456928D01*
X201861232Y-112316788D01*
X201939873Y-112162445D01*
X201993402Y-111997701D01*
X202020500Y-111826611D01*
X202020500Y-111653389D01*
X201993402Y-111482299D01*
X201939873Y-111317555D01*
X201861232Y-111163212D01*
X201759414Y-111023072D01*
X201636928Y-110900586D01*
X201496788Y-110798768D01*
X201342445Y-110720127D01*
X201177701Y-110666598D01*
X201177699Y-110666597D01*
X201177698Y-110666597D01*
X201046271Y-110645781D01*
X201006611Y-110639500D01*
X200833389Y-110639500D01*
X200793728Y-110645781D01*
X200662302Y-110666597D01*
X200662299Y-110666598D01*
X200502923Y-110718383D01*
X200497552Y-110720128D01*
X200343211Y-110798768D01*
X200263256Y-110856859D01*
X200203072Y-110900586D01*
X200203070Y-110900588D01*
X200203069Y-110900588D01*
X200080588Y-111023069D01*
X200080588Y-111023070D01*
X200080586Y-111023072D01*
X200049996Y-111065174D01*
X199978766Y-111163213D01*
X199923443Y-111271794D01*
X199875469Y-111322591D01*
X199812958Y-111339500D01*
X197082273Y-111339500D01*
X196980410Y-111366793D01*
X196889087Y-111419520D01*
X196889084Y-111419522D01*
X195104522Y-113204084D01*
X195104518Y-113204090D01*
X195051792Y-113295412D01*
X195051793Y-113295413D01*
X195024500Y-113397273D01*
X195024500Y-120607745D01*
X195004815Y-120674784D01*
X194988181Y-120695426D01*
X189095426Y-126588181D01*
X189034103Y-126621666D01*
X189007745Y-126624500D01*
X159722255Y-126624500D01*
X159655216Y-126604815D01*
X159634574Y-126588181D01*
X153886819Y-120840426D01*
X153853334Y-120779103D01*
X153850500Y-120752745D01*
X153850500Y-98947273D01*
X154749500Y-98947273D01*
X154749500Y-107347273D01*
X154749500Y-107452727D01*
X154776793Y-107554587D01*
X154829520Y-107645913D01*
X154904087Y-107720480D01*
X154995413Y-107773207D01*
X155097273Y-107800500D01*
X155097275Y-107800500D01*
X162452725Y-107800500D01*
X162452727Y-107800500D01*
X162554588Y-107773207D01*
X162645913Y-107720480D01*
X163972703Y-106393687D01*
X163972708Y-106393684D01*
X163982911Y-106383480D01*
X163982913Y-106383480D01*
X164057480Y-106308913D01*
X164110207Y-106217587D01*
X164119854Y-106181584D01*
X164137501Y-106115727D01*
X164137501Y-106010273D01*
X164137500Y-106010269D01*
X164137500Y-104338159D01*
X164157185Y-104271120D01*
X164205202Y-104227675D01*
X164339994Y-104158996D01*
X164486501Y-104052553D01*
X164614553Y-103924501D01*
X164720996Y-103777994D01*
X164803211Y-103616639D01*
X164859171Y-103444409D01*
X164885118Y-103280588D01*
X164887500Y-103265551D01*
X164887500Y-103084448D01*
X164871019Y-102980397D01*
X164859171Y-102905591D01*
X164803211Y-102733361D01*
X164803211Y-102733360D01*
X164774740Y-102677484D01*
X164720996Y-102572006D01*
X164684106Y-102521231D01*
X164614558Y-102425505D01*
X164614554Y-102425500D01*
X164486499Y-102297445D01*
X164486494Y-102297441D01*
X164339997Y-102191006D01*
X164339996Y-102191005D01*
X164339994Y-102191004D01*
X164272842Y-102156788D01*
X164178639Y-102108788D01*
X164178636Y-102108787D01*
X164006410Y-102052829D01*
X163827551Y-102024500D01*
X163827546Y-102024500D01*
X163646454Y-102024500D01*
X163646449Y-102024500D01*
X163467589Y-102052829D01*
X163295363Y-102108787D01*
X163295360Y-102108788D01*
X163134002Y-102191006D01*
X162987506Y-102297440D01*
X162906797Y-102378149D01*
X162845473Y-102411633D01*
X162775782Y-102406649D01*
X162737736Y-102378167D01*
X162729065Y-102377485D01*
X162020137Y-103086413D01*
X161997333Y-103001306D01*
X161938090Y-102898694D01*
X161854306Y-102814910D01*
X161751694Y-102755667D01*
X161666583Y-102732861D01*
X162375513Y-102023932D01*
X162311756Y-101977611D01*
X162115410Y-101877567D01*
X161905835Y-101809473D01*
X161688181Y-101775000D01*
X161467819Y-101775000D01*
X161250164Y-101809473D01*
X161040589Y-101877567D01*
X160844233Y-101977616D01*
X160780485Y-102023931D01*
X160780485Y-102023932D01*
X161489414Y-102732861D01*
X161404306Y-102755667D01*
X161301694Y-102814910D01*
X161217910Y-102898694D01*
X161158667Y-103001306D01*
X161135861Y-103086414D01*
X160426932Y-102377485D01*
X160417953Y-102378192D01*
X160381871Y-102406017D01*
X160312258Y-102411996D01*
X160250463Y-102379391D01*
X160249201Y-102378147D01*
X160168499Y-102297445D01*
X160168494Y-102297441D01*
X160021995Y-102191004D01*
X160003688Y-102181676D01*
X160003687Y-102181676D01*
X159887205Y-102122325D01*
X159836409Y-102074350D01*
X159819500Y-102011840D01*
X159819500Y-101673254D01*
X159839185Y-101606215D01*
X159855819Y-101585573D01*
X160679573Y-100761819D01*
X160740896Y-100728334D01*
X160767254Y-100725500D01*
X163352725Y-100725500D01*
X163352727Y-100725500D01*
X163454588Y-100698207D01*
X163545913Y-100645480D01*
X164895480Y-99295913D01*
X164948207Y-99204588D01*
X164975500Y-99102727D01*
X164975500Y-98997273D01*
X164975500Y-98499499D01*
X164995185Y-98432460D01*
X165047989Y-98386705D01*
X165099500Y-98375499D01*
X165247871Y-98375499D01*
X165247872Y-98375499D01*
X165307483Y-98369091D01*
X165442331Y-98318796D01*
X165557546Y-98232546D01*
X165643796Y-98117331D01*
X165694091Y-97982483D01*
X165700500Y-97922873D01*
X165700499Y-97027128D01*
X165694091Y-96967517D01*
X165677280Y-96922445D01*
X165643797Y-96832671D01*
X165643793Y-96832664D01*
X165557547Y-96717455D01*
X165557544Y-96717452D01*
X165442335Y-96631206D01*
X165442328Y-96631202D01*
X165307482Y-96580908D01*
X165307483Y-96580908D01*
X165247883Y-96574501D01*
X165247881Y-96574500D01*
X165247873Y-96574500D01*
X165247864Y-96574500D01*
X163902129Y-96574500D01*
X163902123Y-96574501D01*
X163842516Y-96580908D01*
X163707671Y-96631202D01*
X163707664Y-96631206D01*
X163592455Y-96717452D01*
X163592452Y-96717455D01*
X163506206Y-96832664D01*
X163506202Y-96832671D01*
X163455908Y-96967517D01*
X163449501Y-97027116D01*
X163449501Y-97027123D01*
X163449500Y-97027135D01*
X163449500Y-97922870D01*
X163449501Y-97922876D01*
X163455908Y-97982483D01*
X163506202Y-98117328D01*
X163506206Y-98117335D01*
X163592452Y-98232544D01*
X163592455Y-98232547D01*
X163707664Y-98318793D01*
X163707671Y-98318797D01*
X163735518Y-98329183D01*
X163842517Y-98369091D01*
X163902127Y-98375500D01*
X164050500Y-98375499D01*
X164117539Y-98395183D01*
X164163294Y-98447987D01*
X164174500Y-98499499D01*
X164174500Y-98832745D01*
X164154815Y-98899784D01*
X164138181Y-98920426D01*
X163170426Y-99888181D01*
X163109103Y-99921666D01*
X163082745Y-99924500D01*
X160610339Y-99924500D01*
X160610323Y-99924499D01*
X160602727Y-99924499D01*
X160497273Y-99924499D01*
X160429366Y-99942695D01*
X160395412Y-99951793D01*
X160304084Y-100004522D01*
X159098522Y-101210084D01*
X159098520Y-101210087D01*
X159045793Y-101301410D01*
X159033377Y-101347749D01*
X159020961Y-101394087D01*
X159019730Y-101398680D01*
X159018500Y-101403271D01*
X159018500Y-102011840D01*
X158998815Y-102078879D01*
X158950795Y-102122325D01*
X158816002Y-102191006D01*
X158669505Y-102297441D01*
X158669500Y-102297445D01*
X158622181Y-102344765D01*
X158560858Y-102378250D01*
X158491166Y-102373266D01*
X158435233Y-102331394D01*
X158410816Y-102265930D01*
X158410500Y-102257084D01*
X158410500Y-102250323D01*
X158410499Y-102250321D01*
X158395967Y-102177264D01*
X158395966Y-102177260D01*
X158351624Y-102110897D01*
X158340601Y-102094399D01*
X158278386Y-102052829D01*
X158257739Y-102039033D01*
X158257735Y-102039032D01*
X158184677Y-102024500D01*
X158184674Y-102024500D01*
X157784500Y-102024500D01*
X157775814Y-102021949D01*
X157766853Y-102023238D01*
X157742812Y-102012259D01*
X157717461Y-102004815D01*
X157711533Y-101997974D01*
X157703297Y-101994213D01*
X157689007Y-101971978D01*
X157671706Y-101952011D01*
X157669418Y-101941496D01*
X157665523Y-101935435D01*
X157660500Y-101900500D01*
X157660500Y-101857255D01*
X157680185Y-101790216D01*
X157696819Y-101769574D01*
X159122178Y-100344215D01*
X160770480Y-98695913D01*
X160823207Y-98604588D01*
X160850500Y-98502727D01*
X160850500Y-98499499D01*
X160851270Y-98496876D01*
X160851561Y-98494667D01*
X160851905Y-98494712D01*
X160870185Y-98432460D01*
X160922989Y-98386705D01*
X160974500Y-98375499D01*
X161122871Y-98375499D01*
X161122872Y-98375499D01*
X161182483Y-98369091D01*
X161317331Y-98318796D01*
X161432546Y-98232546D01*
X161518796Y-98117331D01*
X161569091Y-97982483D01*
X161575500Y-97922873D01*
X161575499Y-97027128D01*
X161569091Y-96967517D01*
X161552280Y-96922445D01*
X161518797Y-96832671D01*
X161518793Y-96832664D01*
X161432547Y-96717455D01*
X161432544Y-96717452D01*
X161317335Y-96631206D01*
X161317328Y-96631202D01*
X161182482Y-96580908D01*
X161182483Y-96580908D01*
X161122883Y-96574501D01*
X161122881Y-96574500D01*
X161122873Y-96574500D01*
X161122864Y-96574500D01*
X159777129Y-96574500D01*
X159777123Y-96574501D01*
X159717516Y-96580908D01*
X159582671Y-96631202D01*
X159582664Y-96631206D01*
X159467455Y-96717452D01*
X159467452Y-96717455D01*
X159381206Y-96832664D01*
X159381202Y-96832671D01*
X159330908Y-96967517D01*
X159324501Y-97027116D01*
X159324501Y-97027123D01*
X159324500Y-97027135D01*
X159324500Y-97922870D01*
X159324501Y-97922876D01*
X159330908Y-97982483D01*
X159381202Y-98117328D01*
X159381206Y-98117335D01*
X159467452Y-98232544D01*
X159467455Y-98232547D01*
X159582664Y-98318793D01*
X159582671Y-98318797D01*
X159610518Y-98329183D01*
X159716633Y-98368761D01*
X159772566Y-98410632D01*
X159796984Y-98476096D01*
X159782133Y-98544369D01*
X159760981Y-98572624D01*
X156939522Y-101394084D01*
X156939519Y-101394089D01*
X156886792Y-101485412D01*
X156886793Y-101485413D01*
X156859500Y-101587273D01*
X156859500Y-101900500D01*
X156839815Y-101967539D01*
X156787011Y-102013294D01*
X156735500Y-102024500D01*
X156335323Y-102024500D01*
X156262264Y-102039032D01*
X156262260Y-102039033D01*
X156179399Y-102094399D01*
X156124033Y-102177260D01*
X156124032Y-102177264D01*
X156109500Y-102250321D01*
X156109500Y-104099678D01*
X156124032Y-104172735D01*
X156124033Y-104172739D01*
X156124034Y-104172740D01*
X156179399Y-104255601D01*
X156241614Y-104297171D01*
X156262260Y-104310966D01*
X156262264Y-104310967D01*
X156335321Y-104325499D01*
X156335324Y-104325500D01*
X156335326Y-104325500D01*
X158184676Y-104325500D01*
X158184677Y-104325499D01*
X158257740Y-104310966D01*
X158340601Y-104255601D01*
X158395966Y-104172740D01*
X158410500Y-104099674D01*
X158410500Y-104092916D01*
X158430185Y-104025877D01*
X158482989Y-103980122D01*
X158552147Y-103970178D01*
X158615703Y-103999203D01*
X158622181Y-104005235D01*
X158669500Y-104052554D01*
X158669505Y-104052558D01*
X158734361Y-104099678D01*
X158816006Y-104158996D01*
X158909453Y-104206610D01*
X158977360Y-104241211D01*
X158977363Y-104241212D01*
X159063476Y-104269191D01*
X159149591Y-104297171D01*
X159232429Y-104310291D01*
X159328449Y-104325500D01*
X159328454Y-104325500D01*
X159509551Y-104325500D01*
X159601310Y-104310966D01*
X159688409Y-104297171D01*
X159860639Y-104241211D01*
X160021994Y-104158996D01*
X160168501Y-104052553D01*
X160249204Y-103971849D01*
X160310523Y-103938367D01*
X160380215Y-103943351D01*
X160418260Y-103971830D01*
X160426932Y-103972513D01*
X161135861Y-103263584D01*
X161158667Y-103348694D01*
X161217910Y-103451306D01*
X161301694Y-103535090D01*
X161404306Y-103594333D01*
X161489414Y-103617137D01*
X160780485Y-104326065D01*
X160780485Y-104326066D01*
X160844243Y-104372388D01*
X161040589Y-104472432D01*
X161250164Y-104540526D01*
X161467819Y-104575000D01*
X161688181Y-104575000D01*
X161905835Y-104540526D01*
X162115410Y-104472432D01*
X162311760Y-104372386D01*
X162375513Y-104326066D01*
X162375514Y-104326066D01*
X161666585Y-103617138D01*
X161751694Y-103594333D01*
X161854306Y-103535090D01*
X161938090Y-103451306D01*
X161997333Y-103348694D01*
X162020137Y-103263585D01*
X162729066Y-103972514D01*
X162738041Y-103971807D01*
X162774126Y-103943982D01*
X162843739Y-103938001D01*
X162905535Y-103970606D01*
X162906797Y-103971851D01*
X162987500Y-104052554D01*
X162987505Y-104052558D01*
X163134001Y-104158993D01*
X163134003Y-104158994D01*
X163134006Y-104158996D01*
X163268796Y-104227675D01*
X163319591Y-104275648D01*
X163336500Y-104338159D01*
X163336500Y-105845745D01*
X163316815Y-105912784D01*
X163300181Y-105933426D01*
X162270426Y-106963181D01*
X162209103Y-106996666D01*
X162182745Y-106999500D01*
X155674500Y-106999500D01*
X155607461Y-106979815D01*
X155561706Y-106927011D01*
X155550500Y-106875500D01*
X155550500Y-99217253D01*
X155570185Y-99150214D01*
X155586815Y-99129576D01*
X156304573Y-98411817D01*
X156365896Y-98378333D01*
X156392254Y-98375499D01*
X157347871Y-98375499D01*
X157347872Y-98375499D01*
X157407483Y-98369091D01*
X157542331Y-98318796D01*
X157657546Y-98232546D01*
X157743796Y-98117331D01*
X157794091Y-97982483D01*
X157800500Y-97922873D01*
X157800499Y-97027128D01*
X157794091Y-96967517D01*
X157777280Y-96922445D01*
X157743797Y-96832671D01*
X157743793Y-96832664D01*
X157657547Y-96717455D01*
X157657544Y-96717452D01*
X157542335Y-96631206D01*
X157542328Y-96631202D01*
X157407482Y-96580908D01*
X157407483Y-96580908D01*
X157347883Y-96574501D01*
X157347881Y-96574500D01*
X157347873Y-96574500D01*
X157347864Y-96574500D01*
X156002129Y-96574500D01*
X156002123Y-96574501D01*
X155942516Y-96580908D01*
X155807671Y-96631202D01*
X155807664Y-96631206D01*
X155692455Y-96717452D01*
X155692452Y-96717455D01*
X155606206Y-96832664D01*
X155606202Y-96832671D01*
X155555908Y-96967517D01*
X155549501Y-97027116D01*
X155549501Y-97027123D01*
X155549500Y-97027135D01*
X155549500Y-97922870D01*
X155549501Y-97922881D01*
X155553956Y-97964327D01*
X155541548Y-98033086D01*
X155518347Y-98065259D01*
X154829522Y-98754084D01*
X154829518Y-98754090D01*
X154776792Y-98845412D01*
X154776793Y-98845413D01*
X154749500Y-98947273D01*
X153850500Y-98947273D01*
X153850500Y-93927135D01*
X155549500Y-93927135D01*
X155549500Y-94822870D01*
X155549501Y-94822876D01*
X155555908Y-94882483D01*
X155606202Y-95017328D01*
X155606206Y-95017335D01*
X155692452Y-95132544D01*
X155692455Y-95132547D01*
X155807664Y-95218793D01*
X155807671Y-95218797D01*
X155942517Y-95269091D01*
X155942516Y-95269091D01*
X155949444Y-95269835D01*
X156002127Y-95275500D01*
X157347872Y-95275499D01*
X157407483Y-95269091D01*
X157542331Y-95218796D01*
X157657546Y-95132546D01*
X157743796Y-95017331D01*
X157794091Y-94882483D01*
X157800500Y-94822873D01*
X157800499Y-93927128D01*
X157794091Y-93867517D01*
X157743796Y-93732669D01*
X157743795Y-93732668D01*
X157743793Y-93732664D01*
X157657547Y-93617455D01*
X157657544Y-93617452D01*
X157542335Y-93531206D01*
X157542328Y-93531202D01*
X157407482Y-93480908D01*
X157407483Y-93480908D01*
X157347883Y-93474501D01*
X157347881Y-93474500D01*
X157347873Y-93474500D01*
X157347865Y-93474500D01*
X157199500Y-93474500D01*
X157132461Y-93454815D01*
X157086706Y-93402011D01*
X157075500Y-93350500D01*
X157075500Y-91870807D01*
X157095185Y-91803768D01*
X157111819Y-91783125D01*
X157114665Y-91780278D01*
X157114669Y-91780276D01*
X157205276Y-91689669D01*
X157276465Y-91583127D01*
X157325501Y-91464744D01*
X157333682Y-91423615D01*
X157350500Y-91339071D01*
X157350500Y-91210928D01*
X157325502Y-91085261D01*
X157325501Y-91085260D01*
X157325501Y-91085256D01*
X157276465Y-90966873D01*
X157276464Y-90966872D01*
X157276461Y-90966866D01*
X157205276Y-90860331D01*
X157205273Y-90860327D01*
X157114672Y-90769726D01*
X157114668Y-90769723D01*
X157008133Y-90698538D01*
X157008124Y-90698533D01*
X156889744Y-90649499D01*
X156889738Y-90649497D01*
X156764071Y-90624500D01*
X156764069Y-90624500D01*
X156635931Y-90624500D01*
X156635929Y-90624500D01*
X156510261Y-90649497D01*
X156510255Y-90649499D01*
X156391875Y-90698533D01*
X156391866Y-90698538D01*
X156285331Y-90769723D01*
X156285327Y-90769726D01*
X156194726Y-90860327D01*
X156194723Y-90860331D01*
X156123538Y-90966866D01*
X156123533Y-90966875D01*
X156074499Y-91085255D01*
X156074497Y-91085261D01*
X156049500Y-91210928D01*
X156049500Y-91210931D01*
X156049500Y-91339069D01*
X156049500Y-91339071D01*
X156049499Y-91339071D01*
X156074497Y-91464738D01*
X156074499Y-91464744D01*
X156123533Y-91583124D01*
X156123538Y-91583133D01*
X156194723Y-91689668D01*
X156194726Y-91689672D01*
X156238180Y-91733125D01*
X156271666Y-91794448D01*
X156274500Y-91820807D01*
X156274500Y-93350500D01*
X156254815Y-93417539D01*
X156202011Y-93463294D01*
X156150501Y-93474500D01*
X156002130Y-93474500D01*
X156002123Y-93474501D01*
X155942516Y-93480908D01*
X155807671Y-93531202D01*
X155807664Y-93531206D01*
X155692455Y-93617452D01*
X155692452Y-93617455D01*
X155606206Y-93732664D01*
X155606202Y-93732671D01*
X155555908Y-93867517D01*
X155549501Y-93927116D01*
X155549501Y-93927123D01*
X155549500Y-93927135D01*
X153850500Y-93927135D01*
X153850500Y-89849500D01*
X153870185Y-89782461D01*
X153922989Y-89736706D01*
X153974500Y-89725500D01*
X157876745Y-89725500D01*
X157943784Y-89745185D01*
X157964426Y-89761819D01*
X159832181Y-91629574D01*
X159865666Y-91690897D01*
X159868500Y-91717255D01*
X159868500Y-93353293D01*
X159848815Y-93420332D01*
X159796011Y-93466087D01*
X159757755Y-93476583D01*
X159717516Y-93480909D01*
X159582671Y-93531202D01*
X159582664Y-93531206D01*
X159467455Y-93617452D01*
X159467452Y-93617455D01*
X159381206Y-93732664D01*
X159381202Y-93732671D01*
X159330908Y-93867517D01*
X159324501Y-93927116D01*
X159324501Y-93927123D01*
X159324500Y-93927135D01*
X159324500Y-94822870D01*
X159324501Y-94822876D01*
X159330908Y-94882483D01*
X159381202Y-95017328D01*
X159381206Y-95017335D01*
X159467452Y-95132544D01*
X159467455Y-95132547D01*
X159582664Y-95218793D01*
X159582671Y-95218797D01*
X159717517Y-95269091D01*
X159717516Y-95269091D01*
X159724444Y-95269835D01*
X159777127Y-95275500D01*
X161122872Y-95275499D01*
X161182483Y-95269091D01*
X161317331Y-95218796D01*
X161432546Y-95132546D01*
X161518796Y-95017331D01*
X161569091Y-94882483D01*
X161575500Y-94822873D01*
X161575499Y-93927135D01*
X163449500Y-93927135D01*
X163449500Y-94822870D01*
X163449501Y-94822876D01*
X163455908Y-94882483D01*
X163506202Y-95017328D01*
X163506206Y-95017335D01*
X163592452Y-95132544D01*
X163592455Y-95132547D01*
X163707664Y-95218793D01*
X163707671Y-95218797D01*
X163842517Y-95269091D01*
X163842516Y-95269091D01*
X163849444Y-95269835D01*
X163902127Y-95275500D01*
X165247872Y-95275499D01*
X165307483Y-95269091D01*
X165442331Y-95218796D01*
X165557546Y-95132546D01*
X165643796Y-95017331D01*
X165656349Y-94983676D01*
X165666596Y-94956201D01*
X165708466Y-94900267D01*
X165773930Y-94875849D01*
X165842203Y-94890700D01*
X165870459Y-94911852D01*
X167713181Y-96754573D01*
X167746666Y-96815896D01*
X167749500Y-96842254D01*
X167749500Y-121732726D01*
X167776793Y-121834589D01*
X167803156Y-121880250D01*
X167829520Y-121925913D01*
X171599087Y-125695480D01*
X171690412Y-125748207D01*
X171792273Y-125775500D01*
X171792275Y-125775500D01*
X187427725Y-125775500D01*
X187427727Y-125775500D01*
X187529588Y-125748207D01*
X187620913Y-125695480D01*
X193775703Y-119540687D01*
X193775708Y-119540684D01*
X193785911Y-119530480D01*
X193785913Y-119530480D01*
X193860480Y-119455913D01*
X193913207Y-119364587D01*
X193940501Y-119262727D01*
X193940501Y-119157273D01*
X193940501Y-119149678D01*
X193940500Y-119149660D01*
X193940500Y-109113389D01*
X199819500Y-109113389D01*
X199819500Y-109286610D01*
X199838109Y-109404108D01*
X199846598Y-109457701D01*
X199900127Y-109622445D01*
X199978768Y-109776788D01*
X200080586Y-109916928D01*
X200203072Y-110039414D01*
X200343212Y-110141232D01*
X200497555Y-110219873D01*
X200662299Y-110273402D01*
X200833389Y-110300500D01*
X200833390Y-110300500D01*
X201006610Y-110300500D01*
X201006611Y-110300500D01*
X201177701Y-110273402D01*
X201342445Y-110219873D01*
X201496788Y-110141232D01*
X201636928Y-110039414D01*
X201759414Y-109916928D01*
X201861232Y-109776788D01*
X201939873Y-109622445D01*
X201993402Y-109457701D01*
X202020500Y-109286611D01*
X202020500Y-109113389D01*
X201993402Y-108942299D01*
X201939873Y-108777555D01*
X201861232Y-108623212D01*
X201759414Y-108483072D01*
X201636928Y-108360586D01*
X201496788Y-108258768D01*
X201342445Y-108180127D01*
X201177701Y-108126598D01*
X201177699Y-108126597D01*
X201177698Y-108126597D01*
X201046271Y-108105781D01*
X201006611Y-108099500D01*
X200833389Y-108099500D01*
X200793728Y-108105781D01*
X200662302Y-108126597D01*
X200497552Y-108180128D01*
X200343211Y-108258768D01*
X200265762Y-108315039D01*
X200203072Y-108360586D01*
X200203070Y-108360588D01*
X200203069Y-108360588D01*
X200080588Y-108483069D01*
X200080588Y-108483070D01*
X200080586Y-108483072D01*
X200057422Y-108514955D01*
X199978768Y-108623211D01*
X199900128Y-108777552D01*
X199846597Y-108942302D01*
X199819500Y-109113389D01*
X193940500Y-109113389D01*
X193940500Y-108527255D01*
X193960185Y-108460216D01*
X193976819Y-108439574D01*
X195319574Y-107096819D01*
X195380897Y-107063334D01*
X195407255Y-107060500D01*
X199812958Y-107060500D01*
X199879997Y-107080185D01*
X199923443Y-107128206D01*
X199978766Y-107236786D01*
X200009357Y-107278890D01*
X200080586Y-107376928D01*
X200203072Y-107499414D01*
X200343212Y-107601232D01*
X200497555Y-107679873D01*
X200662299Y-107733402D01*
X200833389Y-107760500D01*
X200833390Y-107760500D01*
X201006610Y-107760500D01*
X201006611Y-107760500D01*
X201177701Y-107733402D01*
X201342445Y-107679873D01*
X201496788Y-107601232D01*
X201636928Y-107499414D01*
X201759414Y-107376928D01*
X201861232Y-107236788D01*
X201939873Y-107082445D01*
X201993402Y-106917701D01*
X202020500Y-106746611D01*
X202020500Y-106573389D01*
X201993402Y-106402299D01*
X201939873Y-106237555D01*
X201861232Y-106083212D01*
X201759414Y-105943072D01*
X201636928Y-105820586D01*
X201496788Y-105718768D01*
X201342445Y-105640127D01*
X201177701Y-105586598D01*
X201177699Y-105586597D01*
X201177698Y-105586597D01*
X201046271Y-105565781D01*
X201006611Y-105559500D01*
X200833389Y-105559500D01*
X200793728Y-105565781D01*
X200662302Y-105586597D01*
X200497552Y-105640128D01*
X200343211Y-105718768D01*
X200263256Y-105776859D01*
X200203072Y-105820586D01*
X200203070Y-105820588D01*
X200203069Y-105820588D01*
X200080588Y-105943069D01*
X200080588Y-105943070D01*
X200080586Y-105943072D01*
X200049996Y-105985174D01*
X199978766Y-106083213D01*
X199923443Y-106191794D01*
X199875469Y-106242591D01*
X199812958Y-106259500D01*
X195137273Y-106259500D01*
X195035413Y-106286793D01*
X195035410Y-106286794D01*
X195004735Y-106304505D01*
X194974411Y-106322012D01*
X194944088Y-106339519D01*
X194944085Y-106339521D01*
X193219522Y-108064084D01*
X193219518Y-108064090D01*
X193166792Y-108155412D01*
X193166793Y-108155413D01*
X193139500Y-108257273D01*
X193139500Y-118992745D01*
X193119815Y-119059784D01*
X193103181Y-119080426D01*
X187245426Y-124938181D01*
X187184103Y-124971666D01*
X187157745Y-124974500D01*
X172062255Y-124974500D01*
X171995216Y-124954815D01*
X171974574Y-124938181D01*
X168849782Y-121813389D01*
X173779500Y-121813389D01*
X173779500Y-121986611D01*
X173806598Y-122157701D01*
X173860127Y-122322445D01*
X173938768Y-122476788D01*
X174040586Y-122616928D01*
X174163072Y-122739414D01*
X174303212Y-122841232D01*
X174457555Y-122919873D01*
X174622299Y-122973402D01*
X174793389Y-123000500D01*
X174793390Y-123000500D01*
X174966610Y-123000500D01*
X174966611Y-123000500D01*
X175137701Y-122973402D01*
X175302445Y-122919873D01*
X175456788Y-122841232D01*
X175596928Y-122739414D01*
X175719414Y-122616928D01*
X175821232Y-122476788D01*
X175899873Y-122322445D01*
X175953402Y-122157701D01*
X175980500Y-121986611D01*
X175980500Y-121813389D01*
X175953402Y-121642299D01*
X175899873Y-121477555D01*
X175821232Y-121323212D01*
X175719414Y-121183072D01*
X175596928Y-121060586D01*
X175456788Y-120958768D01*
X175302445Y-120880127D01*
X175137701Y-120826598D01*
X175137699Y-120826597D01*
X175137698Y-120826597D01*
X174995698Y-120804107D01*
X174966611Y-120799500D01*
X174793389Y-120799500D01*
X174764302Y-120804107D01*
X174622302Y-120826597D01*
X174622299Y-120826598D01*
X174464945Y-120877726D01*
X174457552Y-120880128D01*
X174303211Y-120958768D01*
X174274554Y-120979589D01*
X174163072Y-121060586D01*
X174163070Y-121060588D01*
X174163069Y-121060588D01*
X174040588Y-121183069D01*
X174040588Y-121183070D01*
X174040586Y-121183072D01*
X174016726Y-121215913D01*
X173938768Y-121323211D01*
X173860128Y-121477552D01*
X173806597Y-121642302D01*
X173785580Y-121774999D01*
X173779500Y-121813389D01*
X168849782Y-121813389D01*
X168586819Y-121550426D01*
X168553334Y-121489103D01*
X168550500Y-121462745D01*
X168550500Y-119273389D01*
X173779500Y-119273389D01*
X173779500Y-119446611D01*
X173784979Y-119481202D01*
X173804725Y-119605880D01*
X173806598Y-119617701D01*
X173860127Y-119782445D01*
X173938768Y-119936788D01*
X174040586Y-120076928D01*
X174163072Y-120199414D01*
X174303212Y-120301232D01*
X174457555Y-120379873D01*
X174622299Y-120433402D01*
X174793389Y-120460500D01*
X174793390Y-120460500D01*
X174966610Y-120460500D01*
X174966611Y-120460500D01*
X175137701Y-120433402D01*
X175302445Y-120379873D01*
X175456788Y-120301232D01*
X175596928Y-120199414D01*
X175719414Y-120076928D01*
X175821232Y-119936788D01*
X175899873Y-119782445D01*
X175953402Y-119617701D01*
X175980500Y-119446611D01*
X175980500Y-119273389D01*
X175953402Y-119102299D01*
X175899873Y-118937555D01*
X175821232Y-118783212D01*
X175719414Y-118643072D01*
X175596928Y-118520586D01*
X175456788Y-118418768D01*
X175302445Y-118340127D01*
X175137701Y-118286598D01*
X175137699Y-118286597D01*
X175137698Y-118286597D01*
X175006271Y-118265781D01*
X174966611Y-118259500D01*
X174793389Y-118259500D01*
X174753728Y-118265781D01*
X174622302Y-118286597D01*
X174457552Y-118340128D01*
X174303211Y-118418768D01*
X174223256Y-118476859D01*
X174163072Y-118520586D01*
X174163070Y-118520588D01*
X174163069Y-118520588D01*
X174040588Y-118643069D01*
X174040588Y-118643070D01*
X174040586Y-118643072D01*
X173996859Y-118703256D01*
X173938768Y-118783211D01*
X173860128Y-118937552D01*
X173806597Y-119102302D01*
X173797891Y-119157273D01*
X173779500Y-119273389D01*
X168550500Y-119273389D01*
X168550500Y-116733389D01*
X173779500Y-116733389D01*
X173779500Y-116906610D01*
X173803835Y-117060261D01*
X173806598Y-117077701D01*
X173860127Y-117242445D01*
X173938768Y-117396788D01*
X174040586Y-117536928D01*
X174163072Y-117659414D01*
X174303212Y-117761232D01*
X174457555Y-117839873D01*
X174622299Y-117893402D01*
X174793389Y-117920500D01*
X174793390Y-117920500D01*
X174966610Y-117920500D01*
X174966611Y-117920500D01*
X175137701Y-117893402D01*
X175302445Y-117839873D01*
X175456788Y-117761232D01*
X175596928Y-117659414D01*
X175719414Y-117536928D01*
X175821232Y-117396788D01*
X175899873Y-117242445D01*
X175953402Y-117077701D01*
X175980500Y-116906611D01*
X175980500Y-116733389D01*
X175953402Y-116562299D01*
X175899873Y-116397555D01*
X175821232Y-116243212D01*
X175719414Y-116103072D01*
X175596928Y-115980586D01*
X175456788Y-115878768D01*
X175302445Y-115800127D01*
X175137701Y-115746598D01*
X175137699Y-115746597D01*
X175137698Y-115746597D01*
X175006271Y-115725781D01*
X174966611Y-115719500D01*
X174793389Y-115719500D01*
X174753728Y-115725781D01*
X174622302Y-115746597D01*
X174457552Y-115800128D01*
X174303211Y-115878768D01*
X174223256Y-115936859D01*
X174163072Y-115980586D01*
X174163070Y-115980588D01*
X174163069Y-115980588D01*
X174040588Y-116103069D01*
X174040588Y-116103070D01*
X174040586Y-116103072D01*
X173996859Y-116163256D01*
X173938768Y-116243211D01*
X173860128Y-116397552D01*
X173806597Y-116562302D01*
X173779500Y-116733389D01*
X168550500Y-116733389D01*
X168550500Y-114193389D01*
X173779500Y-114193389D01*
X173779500Y-114366611D01*
X173780802Y-114374831D01*
X173801483Y-114505410D01*
X173806598Y-114537701D01*
X173860127Y-114702445D01*
X173938768Y-114856788D01*
X174040586Y-114996928D01*
X174163072Y-115119414D01*
X174303212Y-115221232D01*
X174457555Y-115299873D01*
X174622299Y-115353402D01*
X174793389Y-115380500D01*
X174793390Y-115380500D01*
X174966610Y-115380500D01*
X174966611Y-115380500D01*
X175137701Y-115353402D01*
X175302445Y-115299873D01*
X175456788Y-115221232D01*
X175596928Y-115119414D01*
X175719414Y-114996928D01*
X175821232Y-114856788D01*
X175899873Y-114702445D01*
X175953402Y-114537701D01*
X175980500Y-114366611D01*
X175980500Y-114193389D01*
X175953402Y-114022299D01*
X175899873Y-113857555D01*
X175821232Y-113703212D01*
X175719414Y-113563072D01*
X175596928Y-113440586D01*
X175456788Y-113338768D01*
X175302445Y-113260127D01*
X175137701Y-113206598D01*
X175137699Y-113206597D01*
X175137698Y-113206597D01*
X175006271Y-113185781D01*
X174966611Y-113179500D01*
X174793389Y-113179500D01*
X174753728Y-113185781D01*
X174622302Y-113206597D01*
X174457552Y-113260128D01*
X174303211Y-113338768D01*
X174223256Y-113396859D01*
X174163072Y-113440586D01*
X174163070Y-113440588D01*
X174163069Y-113440588D01*
X174040588Y-113563069D01*
X174040588Y-113563070D01*
X174040586Y-113563072D01*
X174028597Y-113579574D01*
X173938768Y-113703211D01*
X173860128Y-113857552D01*
X173806597Y-114022302D01*
X173781561Y-114180376D01*
X173779500Y-114193389D01*
X168550500Y-114193389D01*
X168550500Y-96687729D01*
X168550501Y-96687716D01*
X168550501Y-96572276D01*
X168550501Y-96572274D01*
X168523207Y-96470413D01*
X168516160Y-96458207D01*
X168470480Y-96379087D01*
X168395913Y-96304520D01*
X168395912Y-96304519D01*
X168391582Y-96300189D01*
X168391571Y-96300179D01*
X166145915Y-94054522D01*
X166145914Y-94054521D01*
X166145913Y-94054520D01*
X166100250Y-94028156D01*
X166054589Y-94001793D01*
X166003657Y-93988146D01*
X165952727Y-93974500D01*
X165952726Y-93974500D01*
X165816977Y-93974500D01*
X165749938Y-93954815D01*
X165704183Y-93902011D01*
X165696733Y-93874865D01*
X165695876Y-93875068D01*
X165694092Y-93867520D01*
X165643797Y-93732671D01*
X165643793Y-93732664D01*
X165557547Y-93617455D01*
X165557544Y-93617452D01*
X165442335Y-93531206D01*
X165442328Y-93531202D01*
X165307482Y-93480908D01*
X165307483Y-93480908D01*
X165247883Y-93474501D01*
X165247881Y-93474500D01*
X165247873Y-93474500D01*
X165247864Y-93474500D01*
X163902129Y-93474500D01*
X163902123Y-93474501D01*
X163842516Y-93480908D01*
X163707671Y-93531202D01*
X163707664Y-93531206D01*
X163592455Y-93617452D01*
X163592452Y-93617455D01*
X163506206Y-93732664D01*
X163506202Y-93732671D01*
X163455908Y-93867517D01*
X163449501Y-93927116D01*
X163449501Y-93927123D01*
X163449500Y-93927135D01*
X161575499Y-93927135D01*
X161575499Y-93927128D01*
X161569091Y-93867517D01*
X161518796Y-93732669D01*
X161518795Y-93732668D01*
X161518793Y-93732664D01*
X161432547Y-93617455D01*
X161432544Y-93617452D01*
X161317335Y-93531206D01*
X161317328Y-93531202D01*
X161182482Y-93480908D01*
X161182483Y-93480908D01*
X161122883Y-93474501D01*
X161122881Y-93474500D01*
X161122873Y-93474500D01*
X161122865Y-93474500D01*
X160793500Y-93474500D01*
X160726461Y-93454815D01*
X160680706Y-93402011D01*
X160669500Y-93350500D01*
X160669500Y-91447275D01*
X160669500Y-91447273D01*
X160642207Y-91345413D01*
X160589480Y-91254087D01*
X160514913Y-91179520D01*
X158339913Y-89004520D01*
X158294250Y-88978156D01*
X158248589Y-88951793D01*
X158197657Y-88938146D01*
X158146727Y-88924500D01*
X153502727Y-88924500D01*
X153397273Y-88924500D01*
X153295413Y-88951793D01*
X153295410Y-88951794D01*
X153204085Y-89004521D01*
X153129521Y-89079085D01*
X153076794Y-89170410D01*
X153076793Y-89170413D01*
X153049500Y-89272273D01*
X148125000Y-89272273D01*
X148125000Y-74747273D01*
X151324500Y-74747273D01*
X151324500Y-82352273D01*
X151324500Y-82457727D01*
X151351793Y-82559587D01*
X151404520Y-82650913D01*
X151479087Y-82725480D01*
X151570413Y-82778207D01*
X151672273Y-82805500D01*
X155262745Y-82805500D01*
X155329784Y-82825185D01*
X155350426Y-82841819D01*
X169938181Y-97429574D01*
X169971666Y-97490897D01*
X169974500Y-97517255D01*
X169974500Y-110002273D01*
X169974500Y-110107727D01*
X169988146Y-110158657D01*
X170001793Y-110209589D01*
X170013418Y-110229723D01*
X170054520Y-110300913D01*
X171814087Y-112060480D01*
X171905412Y-112113207D01*
X172007273Y-112140500D01*
X172112727Y-112140500D01*
X173772958Y-112140500D01*
X173839997Y-112160185D01*
X173883443Y-112208206D01*
X173938766Y-112316786D01*
X173943096Y-112322745D01*
X174040586Y-112456928D01*
X174163072Y-112579414D01*
X174303212Y-112681232D01*
X174457555Y-112759873D01*
X174622299Y-112813402D01*
X174793389Y-112840500D01*
X174793390Y-112840500D01*
X174966610Y-112840500D01*
X174966611Y-112840500D01*
X175137701Y-112813402D01*
X175302445Y-112759873D01*
X175456788Y-112681232D01*
X175596928Y-112579414D01*
X175719414Y-112456928D01*
X175821232Y-112316788D01*
X175899873Y-112162445D01*
X175953402Y-111997701D01*
X175980500Y-111826611D01*
X175980500Y-111653389D01*
X175953402Y-111482299D01*
X175899873Y-111317555D01*
X175821232Y-111163212D01*
X175719414Y-111023072D01*
X175596928Y-110900586D01*
X175456788Y-110798768D01*
X175302446Y-110720127D01*
X175299284Y-110719100D01*
X175298236Y-110718383D01*
X175297952Y-110718266D01*
X175297976Y-110718206D01*
X175241609Y-110679661D01*
X175214413Y-110615302D01*
X175226329Y-110546456D01*
X175273574Y-110494981D01*
X175299288Y-110483239D01*
X175398215Y-110451096D01*
X175587557Y-110354620D01*
X175759459Y-110229727D01*
X175759464Y-110229723D01*
X175909723Y-110079464D01*
X175909727Y-110079459D01*
X176034620Y-109907557D01*
X176131095Y-109718217D01*
X176196757Y-109516129D01*
X176196757Y-109516126D01*
X176207231Y-109450000D01*
X175313012Y-109450000D01*
X175345925Y-109392993D01*
X175380000Y-109265826D01*
X175380000Y-109134174D01*
X175345925Y-109007007D01*
X175313012Y-108950000D01*
X176207231Y-108950000D01*
X176196757Y-108883873D01*
X176196757Y-108883870D01*
X176131095Y-108681782D01*
X176034620Y-108492442D01*
X175909727Y-108320540D01*
X175909723Y-108320535D01*
X175759464Y-108170276D01*
X175759459Y-108170272D01*
X175587557Y-108045379D01*
X175398217Y-107948904D01*
X175299287Y-107916760D01*
X175241611Y-107877323D01*
X175214413Y-107812964D01*
X175226328Y-107744118D01*
X175273572Y-107692642D01*
X175299290Y-107680897D01*
X175302445Y-107679873D01*
X175456788Y-107601232D01*
X175596928Y-107499414D01*
X175719414Y-107376928D01*
X175821232Y-107236788D01*
X175899873Y-107082445D01*
X175953402Y-106917701D01*
X175980500Y-106746611D01*
X175980500Y-106573389D01*
X175953402Y-106402299D01*
X175899873Y-106237555D01*
X175821232Y-106083212D01*
X175719414Y-105943072D01*
X175596928Y-105820586D01*
X175456788Y-105718768D01*
X175302445Y-105640127D01*
X175137701Y-105586598D01*
X175137699Y-105586597D01*
X175137698Y-105586597D01*
X175006271Y-105565781D01*
X174966611Y-105559500D01*
X174793389Y-105559500D01*
X174753728Y-105565781D01*
X174622302Y-105586597D01*
X174457552Y-105640128D01*
X174303211Y-105718768D01*
X174223256Y-105776859D01*
X174163072Y-105820586D01*
X174163070Y-105820588D01*
X174163069Y-105820588D01*
X174040588Y-105943069D01*
X174040588Y-105943070D01*
X174040586Y-105943072D01*
X174009996Y-105985174D01*
X173938766Y-106083213D01*
X173883443Y-106191794D01*
X173835469Y-106242591D01*
X173772958Y-106259500D01*
X172324500Y-106259500D01*
X172257461Y-106239815D01*
X172211706Y-106187011D01*
X172200500Y-106135500D01*
X172200500Y-104033389D01*
X173779500Y-104033389D01*
X173779500Y-104206610D01*
X173805756Y-104372388D01*
X173806598Y-104377701D01*
X173860127Y-104542445D01*
X173938768Y-104696788D01*
X174040586Y-104836928D01*
X174163072Y-104959414D01*
X174303212Y-105061232D01*
X174457555Y-105139873D01*
X174622299Y-105193402D01*
X174793389Y-105220500D01*
X174793390Y-105220500D01*
X174966610Y-105220500D01*
X174966611Y-105220500D01*
X175137701Y-105193402D01*
X175302445Y-105139873D01*
X175456788Y-105061232D01*
X175596928Y-104959414D01*
X175719414Y-104836928D01*
X175821232Y-104696788D01*
X175899873Y-104542445D01*
X175953402Y-104377701D01*
X175980500Y-104206611D01*
X175980500Y-104033389D01*
X175953402Y-103862299D01*
X175899873Y-103697555D01*
X175821232Y-103543212D01*
X175719414Y-103403072D01*
X175596928Y-103280586D01*
X175456788Y-103178768D01*
X175302445Y-103100127D01*
X175137701Y-103046598D01*
X175137699Y-103046597D01*
X175137698Y-103046597D01*
X175006271Y-103025781D01*
X174966611Y-103019500D01*
X174793389Y-103019500D01*
X174753728Y-103025781D01*
X174622302Y-103046597D01*
X174457552Y-103100128D01*
X174303211Y-103178768D01*
X174226856Y-103234244D01*
X174163072Y-103280586D01*
X174163070Y-103280588D01*
X174163069Y-103280588D01*
X174040588Y-103403069D01*
X174040588Y-103403070D01*
X174040586Y-103403072D01*
X174012065Y-103442328D01*
X173938768Y-103543211D01*
X173860128Y-103697552D01*
X173806597Y-103862302D01*
X173779500Y-104033389D01*
X172200500Y-104033389D01*
X172200500Y-101493389D01*
X173779500Y-101493389D01*
X173779500Y-101666610D01*
X173797597Y-101780875D01*
X173806598Y-101837701D01*
X173858674Y-101997974D01*
X173860128Y-102002447D01*
X173915385Y-102110896D01*
X173938768Y-102156788D01*
X174040586Y-102296928D01*
X174163072Y-102419414D01*
X174303212Y-102521232D01*
X174457555Y-102599873D01*
X174622299Y-102653402D01*
X174793389Y-102680500D01*
X174793390Y-102680500D01*
X174966610Y-102680500D01*
X174966611Y-102680500D01*
X175137701Y-102653402D01*
X175302445Y-102599873D01*
X175456788Y-102521232D01*
X175596928Y-102419414D01*
X175719414Y-102296928D01*
X175821232Y-102156788D01*
X175899873Y-102002445D01*
X175953402Y-101837701D01*
X175980500Y-101666611D01*
X175980500Y-101493389D01*
X175953402Y-101322299D01*
X175899873Y-101157555D01*
X175821232Y-101003212D01*
X175719414Y-100863072D01*
X175596928Y-100740586D01*
X175456788Y-100638768D01*
X175302445Y-100560127D01*
X175137701Y-100506598D01*
X175137699Y-100506597D01*
X175137698Y-100506597D01*
X175006271Y-100485781D01*
X174966611Y-100479500D01*
X174793389Y-100479500D01*
X174753728Y-100485781D01*
X174622302Y-100506597D01*
X174457552Y-100560128D01*
X174303211Y-100638768D01*
X174283751Y-100652907D01*
X174163072Y-100740586D01*
X174163070Y-100740588D01*
X174163069Y-100740588D01*
X174040588Y-100863069D01*
X174040588Y-100863070D01*
X174040586Y-100863072D01*
X173996859Y-100923256D01*
X173938768Y-101003211D01*
X173860128Y-101157552D01*
X173806597Y-101322302D01*
X173779500Y-101493389D01*
X172200500Y-101493389D01*
X172200500Y-98953389D01*
X173779500Y-98953389D01*
X173779500Y-99126610D01*
X173806314Y-99295913D01*
X173806598Y-99297701D01*
X173860127Y-99462445D01*
X173938768Y-99616788D01*
X174040586Y-99756928D01*
X174163072Y-99879414D01*
X174303212Y-99981232D01*
X174457555Y-100059873D01*
X174622299Y-100113402D01*
X174793389Y-100140500D01*
X174793390Y-100140500D01*
X174966610Y-100140500D01*
X174966611Y-100140500D01*
X175137701Y-100113402D01*
X175302445Y-100059873D01*
X175456788Y-99981232D01*
X175596928Y-99879414D01*
X175719414Y-99756928D01*
X175821232Y-99616788D01*
X175899873Y-99462445D01*
X175953402Y-99297701D01*
X175980500Y-99126611D01*
X175980500Y-99003681D01*
X184789500Y-99003681D01*
X184789500Y-99346318D01*
X184827858Y-99686768D01*
X184827861Y-99686782D01*
X184904102Y-100020816D01*
X184904103Y-100020818D01*
X185017264Y-100344216D01*
X185165922Y-100652907D01*
X185221016Y-100740588D01*
X185348211Y-100943018D01*
X185561834Y-101210893D01*
X185804107Y-101453166D01*
X186071982Y-101666789D01*
X186343987Y-101837701D01*
X186362092Y-101849077D01*
X186379938Y-101857671D01*
X186670785Y-101997736D01*
X186994183Y-102110897D01*
X187328217Y-102187139D01*
X187328226Y-102187140D01*
X187328231Y-102187141D01*
X187555197Y-102212713D01*
X187668682Y-102225499D01*
X187668685Y-102225500D01*
X187668688Y-102225500D01*
X188011315Y-102225500D01*
X188011316Y-102225499D01*
X188185311Y-102205895D01*
X188351768Y-102187141D01*
X188351771Y-102187140D01*
X188351783Y-102187139D01*
X188685817Y-102110897D01*
X189009215Y-101997736D01*
X189317910Y-101849076D01*
X189608018Y-101666789D01*
X189875893Y-101453166D01*
X190118166Y-101210893D01*
X190331789Y-100943018D01*
X190514076Y-100652910D01*
X190662736Y-100344215D01*
X190775897Y-100020817D01*
X190852139Y-99686783D01*
X190860026Y-99616788D01*
X190890499Y-99346318D01*
X190890500Y-99346314D01*
X190890500Y-99003685D01*
X190890499Y-99003681D01*
X190852141Y-98663231D01*
X190852140Y-98663226D01*
X190852139Y-98663217D01*
X190775897Y-98329183D01*
X190662736Y-98005785D01*
X190514076Y-97697090D01*
X190331789Y-97406982D01*
X190118166Y-97139107D01*
X189875893Y-96896834D01*
X189857897Y-96882483D01*
X189785782Y-96824973D01*
X189608018Y-96683211D01*
X189317910Y-96500924D01*
X189317907Y-96500922D01*
X189009216Y-96352264D01*
X188685818Y-96239103D01*
X188685816Y-96239102D01*
X188428024Y-96180262D01*
X188351783Y-96162861D01*
X188351780Y-96162860D01*
X188351768Y-96162858D01*
X188011318Y-96124500D01*
X188011312Y-96124500D01*
X187668688Y-96124500D01*
X187668681Y-96124500D01*
X187328231Y-96162858D01*
X187328217Y-96162861D01*
X186994183Y-96239102D01*
X186994181Y-96239103D01*
X186670783Y-96352264D01*
X186362092Y-96500922D01*
X186071983Y-96683210D01*
X185804107Y-96896833D01*
X185561833Y-97139107D01*
X185348210Y-97406983D01*
X185165922Y-97697092D01*
X185017264Y-98005783D01*
X184904103Y-98329181D01*
X184904102Y-98329183D01*
X184827861Y-98663217D01*
X184827858Y-98663231D01*
X184789500Y-99003681D01*
X175980500Y-99003681D01*
X175980500Y-98953389D01*
X175953402Y-98782299D01*
X175899873Y-98617555D01*
X175821232Y-98463212D01*
X175719414Y-98323072D01*
X175596928Y-98200586D01*
X175456788Y-98098768D01*
X175302445Y-98020127D01*
X175137701Y-97966598D01*
X175137699Y-97966597D01*
X175137698Y-97966597D01*
X175006271Y-97945781D01*
X174966611Y-97939500D01*
X174793389Y-97939500D01*
X174753728Y-97945781D01*
X174622302Y-97966597D01*
X174457552Y-98020128D01*
X174303211Y-98098768D01*
X174223256Y-98156859D01*
X174163072Y-98200586D01*
X174163070Y-98200588D01*
X174163069Y-98200588D01*
X174040588Y-98323069D01*
X174040588Y-98323070D01*
X174040586Y-98323072D01*
X174002495Y-98375500D01*
X173938768Y-98463211D01*
X173860128Y-98617552D01*
X173806597Y-98782302D01*
X173779500Y-98953389D01*
X172200500Y-98953389D01*
X172200500Y-96413389D01*
X173779500Y-96413389D01*
X173779500Y-96586610D01*
X173806102Y-96754573D01*
X173806598Y-96757701D01*
X173860127Y-96922445D01*
X173938768Y-97076788D01*
X174040586Y-97216928D01*
X174163072Y-97339414D01*
X174303212Y-97441232D01*
X174457555Y-97519873D01*
X174622299Y-97573402D01*
X174793389Y-97600500D01*
X174793390Y-97600500D01*
X174966610Y-97600500D01*
X174966611Y-97600500D01*
X175137701Y-97573402D01*
X175302445Y-97519873D01*
X175456788Y-97441232D01*
X175596928Y-97339414D01*
X175719414Y-97216928D01*
X175821232Y-97076788D01*
X175899873Y-96922445D01*
X175953402Y-96757701D01*
X175980500Y-96586611D01*
X175980500Y-96413389D01*
X175953402Y-96242299D01*
X175899873Y-96077555D01*
X175821232Y-95923212D01*
X175719414Y-95783072D01*
X175596928Y-95660586D01*
X175456788Y-95558768D01*
X175302445Y-95480127D01*
X175137701Y-95426598D01*
X175137699Y-95426597D01*
X175137698Y-95426597D01*
X175006271Y-95405781D01*
X174966611Y-95399500D01*
X174793389Y-95399500D01*
X174753728Y-95405781D01*
X174622302Y-95426597D01*
X174457552Y-95480128D01*
X174303211Y-95558768D01*
X174223256Y-95616859D01*
X174163072Y-95660586D01*
X174163070Y-95660588D01*
X174163069Y-95660588D01*
X174040588Y-95783069D01*
X174040588Y-95783070D01*
X174040586Y-95783072D01*
X173999891Y-95839084D01*
X173938768Y-95923211D01*
X173860128Y-96077552D01*
X173806597Y-96242302D01*
X173779500Y-96413389D01*
X172200500Y-96413389D01*
X172200500Y-96122275D01*
X172200500Y-96122273D01*
X172173207Y-96020413D01*
X172173207Y-96020412D01*
X172120480Y-95929087D01*
X170064782Y-93873389D01*
X173779500Y-93873389D01*
X173779500Y-94046610D01*
X173796927Y-94156645D01*
X173806598Y-94217701D01*
X173846169Y-94339488D01*
X173860128Y-94382447D01*
X173878083Y-94417686D01*
X173938768Y-94536788D01*
X174040586Y-94676928D01*
X174163072Y-94799414D01*
X174303212Y-94901232D01*
X174457555Y-94979873D01*
X174622299Y-95033402D01*
X174793389Y-95060500D01*
X174793390Y-95060500D01*
X174966610Y-95060500D01*
X174966611Y-95060500D01*
X175137701Y-95033402D01*
X175302445Y-94979873D01*
X175456788Y-94901232D01*
X175596928Y-94799414D01*
X175719414Y-94676928D01*
X175821232Y-94536788D01*
X175899873Y-94382445D01*
X175953402Y-94217701D01*
X175980500Y-94046611D01*
X175980500Y-93873389D01*
X175953402Y-93702299D01*
X175899873Y-93537555D01*
X175821232Y-93383212D01*
X175719414Y-93243072D01*
X175596928Y-93120586D01*
X175456788Y-93018768D01*
X175302445Y-92940127D01*
X175137701Y-92886598D01*
X175137699Y-92886597D01*
X175137698Y-92886597D01*
X174998180Y-92864500D01*
X174966611Y-92859500D01*
X174793389Y-92859500D01*
X174761820Y-92864500D01*
X174622302Y-92886597D01*
X174622299Y-92886598D01*
X174462923Y-92938383D01*
X174457552Y-92940128D01*
X174303211Y-93018768D01*
X174223256Y-93076859D01*
X174163072Y-93120586D01*
X174163070Y-93120588D01*
X174163069Y-93120588D01*
X174040588Y-93243069D01*
X174040588Y-93243070D01*
X174040586Y-93243072D01*
X173996859Y-93303256D01*
X173938768Y-93383211D01*
X173860128Y-93537552D01*
X173806597Y-93702302D01*
X173779500Y-93873389D01*
X170064782Y-93873389D01*
X167524782Y-91333389D01*
X173779500Y-91333389D01*
X173779500Y-91506610D01*
X173804727Y-91665893D01*
X173806598Y-91677701D01*
X173860127Y-91842445D01*
X173938768Y-91996788D01*
X174040586Y-92136928D01*
X174163072Y-92259414D01*
X174303212Y-92361232D01*
X174457555Y-92439873D01*
X174622299Y-92493402D01*
X174793389Y-92520500D01*
X174793390Y-92520500D01*
X174966610Y-92520500D01*
X174966611Y-92520500D01*
X175137701Y-92493402D01*
X175302445Y-92439873D01*
X175456788Y-92361232D01*
X175596928Y-92259414D01*
X175719414Y-92136928D01*
X175821232Y-91996788D01*
X175899873Y-91842445D01*
X175953402Y-91677701D01*
X175980500Y-91506611D01*
X175980500Y-91333389D01*
X175953402Y-91162299D01*
X175899873Y-90997555D01*
X175821232Y-90843212D01*
X175719414Y-90703072D01*
X175596928Y-90580586D01*
X175456788Y-90478768D01*
X175302445Y-90400127D01*
X175137701Y-90346598D01*
X175137699Y-90346597D01*
X175137698Y-90346597D01*
X175006271Y-90325781D01*
X174966611Y-90319500D01*
X174793389Y-90319500D01*
X174753728Y-90325781D01*
X174622302Y-90346597D01*
X174457552Y-90400128D01*
X174303211Y-90478768D01*
X174233958Y-90529084D01*
X174163072Y-90580586D01*
X174163070Y-90580588D01*
X174163069Y-90580588D01*
X174040588Y-90703069D01*
X174040588Y-90703070D01*
X174040586Y-90703072D01*
X174026638Y-90722270D01*
X173938768Y-90843211D01*
X173860128Y-90997552D01*
X173806597Y-91162302D01*
X173779500Y-91333389D01*
X167524782Y-91333389D01*
X164560795Y-88369402D01*
X166369168Y-88369402D01*
X166394166Y-88495069D01*
X166394168Y-88495075D01*
X166443202Y-88613455D01*
X166443207Y-88613464D01*
X166514392Y-88719999D01*
X166514395Y-88720003D01*
X166604996Y-88810604D01*
X166605000Y-88810607D01*
X166711535Y-88881792D01*
X166711544Y-88881797D01*
X166719895Y-88885256D01*
X166829925Y-88930832D01*
X166829929Y-88930832D01*
X166829930Y-88930833D01*
X166955597Y-88955831D01*
X166955600Y-88955831D01*
X167083740Y-88955831D01*
X167168284Y-88939013D01*
X167209413Y-88930832D01*
X167327796Y-88881796D01*
X167434338Y-88810607D01*
X167451556Y-88793389D01*
X173779500Y-88793389D01*
X173779500Y-88966611D01*
X173806598Y-89137701D01*
X173860127Y-89302445D01*
X173938768Y-89456788D01*
X174040586Y-89596928D01*
X174163072Y-89719414D01*
X174303212Y-89821232D01*
X174457555Y-89899873D01*
X174622299Y-89953402D01*
X174793389Y-89980500D01*
X174793390Y-89980500D01*
X174966610Y-89980500D01*
X174966611Y-89980500D01*
X175137701Y-89953402D01*
X175302445Y-89899873D01*
X175456788Y-89821232D01*
X175596928Y-89719414D01*
X175719414Y-89596928D01*
X175821232Y-89456788D01*
X175899873Y-89302445D01*
X175953402Y-89137701D01*
X175980500Y-88966611D01*
X175980500Y-88793389D01*
X175953402Y-88622299D01*
X175899873Y-88457555D01*
X175821232Y-88303212D01*
X175719414Y-88163072D01*
X175596928Y-88040586D01*
X175456788Y-87938768D01*
X175302445Y-87860127D01*
X175137701Y-87806598D01*
X175137699Y-87806597D01*
X175137698Y-87806597D01*
X175006271Y-87785781D01*
X174966611Y-87779500D01*
X174793389Y-87779500D01*
X174753728Y-87785781D01*
X174622302Y-87806597D01*
X174457552Y-87860128D01*
X174303211Y-87938768D01*
X174223256Y-87996859D01*
X174163072Y-88040586D01*
X174163070Y-88040588D01*
X174163069Y-88040588D01*
X174040588Y-88163069D01*
X174040588Y-88163070D01*
X174040586Y-88163072D01*
X174024724Y-88184904D01*
X173938768Y-88303211D01*
X173860128Y-88457552D01*
X173806597Y-88622302D01*
X173783701Y-88766866D01*
X173779500Y-88793389D01*
X167451556Y-88793389D01*
X167524945Y-88720000D01*
X167596134Y-88613458D01*
X167645170Y-88495075D01*
X167670169Y-88369400D01*
X167670169Y-88272585D01*
X167689854Y-88205546D01*
X167706488Y-88184904D01*
X169114573Y-86776819D01*
X169175896Y-86743334D01*
X169202254Y-86740500D01*
X173772958Y-86740500D01*
X173839997Y-86760185D01*
X173883443Y-86808206D01*
X173938766Y-86916786D01*
X173969357Y-86958890D01*
X174040586Y-87056928D01*
X174163072Y-87179414D01*
X174303212Y-87281232D01*
X174457555Y-87359873D01*
X174622299Y-87413402D01*
X174793389Y-87440500D01*
X174793390Y-87440500D01*
X174966610Y-87440500D01*
X174966611Y-87440500D01*
X175137701Y-87413402D01*
X175302445Y-87359873D01*
X175456788Y-87281232D01*
X175596928Y-87179414D01*
X175719414Y-87056928D01*
X175821232Y-86916788D01*
X175876557Y-86808206D01*
X175924531Y-86757409D01*
X175987042Y-86740500D01*
X182447745Y-86740500D01*
X182514784Y-86760185D01*
X182535426Y-86776819D01*
X191973181Y-96214574D01*
X192006666Y-96275897D01*
X192009500Y-96302255D01*
X192009500Y-112322745D01*
X191989815Y-112389784D01*
X191973181Y-112410426D01*
X189969522Y-114414084D01*
X189969520Y-114414087D01*
X189916794Y-114505410D01*
X189897800Y-114576293D01*
X189897800Y-114576296D01*
X189889500Y-114607273D01*
X189889500Y-114607276D01*
X189889500Y-116817726D01*
X189916793Y-116919589D01*
X189943156Y-116965250D01*
X189969520Y-117010913D01*
X189969522Y-117010915D01*
X190088181Y-117129574D01*
X190121666Y-117190897D01*
X190124500Y-117217255D01*
X190124500Y-117314069D01*
X190124500Y-117314071D01*
X190124499Y-117314071D01*
X190149497Y-117439738D01*
X190149499Y-117439744D01*
X190198533Y-117558124D01*
X190198538Y-117558133D01*
X190269723Y-117664668D01*
X190269726Y-117664672D01*
X190360327Y-117755273D01*
X190360331Y-117755276D01*
X190466866Y-117826461D01*
X190466872Y-117826464D01*
X190466873Y-117826465D01*
X190585256Y-117875501D01*
X190585260Y-117875501D01*
X190585261Y-117875502D01*
X190710928Y-117900500D01*
X190710931Y-117900500D01*
X190839071Y-117900500D01*
X190923615Y-117883682D01*
X190964744Y-117875501D01*
X191083127Y-117826465D01*
X191189669Y-117755276D01*
X191280276Y-117664669D01*
X191351465Y-117558127D01*
X191400501Y-117439744D01*
X191425500Y-117314069D01*
X191425500Y-117185931D01*
X191425500Y-117185928D01*
X191400502Y-117060261D01*
X191400501Y-117060260D01*
X191400501Y-117060256D01*
X191351465Y-116941873D01*
X191351464Y-116941872D01*
X191351461Y-116941866D01*
X191280276Y-116835331D01*
X191280273Y-116835327D01*
X191189672Y-116744726D01*
X191189668Y-116744723D01*
X191083133Y-116673538D01*
X191083124Y-116673533D01*
X190964744Y-116624499D01*
X190964738Y-116624497D01*
X190839071Y-116599500D01*
X190839069Y-116599500D01*
X190814500Y-116599500D01*
X190747461Y-116579815D01*
X190701706Y-116527011D01*
X190690500Y-116475500D01*
X190690500Y-114877253D01*
X190710185Y-114810214D01*
X190726814Y-114789577D01*
X192655910Y-112860481D01*
X192655913Y-112860480D01*
X192730480Y-112785913D01*
X192756843Y-112740250D01*
X192783207Y-112694588D01*
X192810501Y-112592727D01*
X192810501Y-112487273D01*
X192810501Y-112479678D01*
X192810500Y-112479660D01*
X192810500Y-104033389D01*
X199819500Y-104033389D01*
X199819500Y-104206610D01*
X199845756Y-104372388D01*
X199846598Y-104377701D01*
X199900127Y-104542445D01*
X199978768Y-104696788D01*
X200080586Y-104836928D01*
X200203072Y-104959414D01*
X200343212Y-105061232D01*
X200497555Y-105139873D01*
X200662299Y-105193402D01*
X200833389Y-105220500D01*
X200833390Y-105220500D01*
X201006610Y-105220500D01*
X201006611Y-105220500D01*
X201177701Y-105193402D01*
X201342445Y-105139873D01*
X201496788Y-105061232D01*
X201636928Y-104959414D01*
X201759414Y-104836928D01*
X201861232Y-104696788D01*
X201939873Y-104542445D01*
X201993402Y-104377701D01*
X202020500Y-104206611D01*
X202020500Y-104033389D01*
X201993402Y-103862299D01*
X201939873Y-103697555D01*
X201861232Y-103543212D01*
X201759414Y-103403072D01*
X201636928Y-103280586D01*
X201496788Y-103178768D01*
X201342445Y-103100127D01*
X201177701Y-103046598D01*
X201177699Y-103046597D01*
X201177698Y-103046597D01*
X201046271Y-103025781D01*
X201006611Y-103019500D01*
X200833389Y-103019500D01*
X200793728Y-103025781D01*
X200662302Y-103046597D01*
X200497552Y-103100128D01*
X200343211Y-103178768D01*
X200266856Y-103234244D01*
X200203072Y-103280586D01*
X200203070Y-103280588D01*
X200203069Y-103280588D01*
X200080588Y-103403069D01*
X200080588Y-103403070D01*
X200080586Y-103403072D01*
X200052065Y-103442328D01*
X199978768Y-103543211D01*
X199900128Y-103697552D01*
X199846597Y-103862302D01*
X199819500Y-104033389D01*
X192810500Y-104033389D01*
X192810500Y-101493389D01*
X199819500Y-101493389D01*
X199819500Y-101666610D01*
X199837597Y-101780875D01*
X199846598Y-101837701D01*
X199898674Y-101997974D01*
X199900128Y-102002447D01*
X199955385Y-102110896D01*
X199978768Y-102156788D01*
X200080586Y-102296928D01*
X200203072Y-102419414D01*
X200343212Y-102521232D01*
X200497555Y-102599873D01*
X200662299Y-102653402D01*
X200833389Y-102680500D01*
X200833390Y-102680500D01*
X201006610Y-102680500D01*
X201006611Y-102680500D01*
X201177701Y-102653402D01*
X201342445Y-102599873D01*
X201496788Y-102521232D01*
X201636928Y-102419414D01*
X201759414Y-102296928D01*
X201861232Y-102156788D01*
X201939873Y-102002445D01*
X201993402Y-101837701D01*
X202020500Y-101666611D01*
X202020500Y-101493389D01*
X201993402Y-101322299D01*
X201939873Y-101157555D01*
X201861232Y-101003212D01*
X201759414Y-100863072D01*
X201636928Y-100740586D01*
X201496788Y-100638768D01*
X201342445Y-100560127D01*
X201177701Y-100506598D01*
X201177699Y-100506597D01*
X201177698Y-100506597D01*
X201046271Y-100485781D01*
X201006611Y-100479500D01*
X200833389Y-100479500D01*
X200793728Y-100485781D01*
X200662302Y-100506597D01*
X200497552Y-100560128D01*
X200343211Y-100638768D01*
X200323751Y-100652907D01*
X200203072Y-100740586D01*
X200203070Y-100740588D01*
X200203069Y-100740588D01*
X200080588Y-100863069D01*
X200080588Y-100863070D01*
X200080586Y-100863072D01*
X200036859Y-100923256D01*
X199978768Y-101003211D01*
X199900128Y-101157552D01*
X199846597Y-101322302D01*
X199819500Y-101493389D01*
X192810500Y-101493389D01*
X192810500Y-98953389D01*
X199819500Y-98953389D01*
X199819500Y-99126610D01*
X199846314Y-99295913D01*
X199846598Y-99297701D01*
X199900127Y-99462445D01*
X199978768Y-99616788D01*
X200080586Y-99756928D01*
X200203072Y-99879414D01*
X200343212Y-99981232D01*
X200497555Y-100059873D01*
X200662299Y-100113402D01*
X200833389Y-100140500D01*
X200833390Y-100140500D01*
X201006610Y-100140500D01*
X201006611Y-100140500D01*
X201177701Y-100113402D01*
X201342445Y-100059873D01*
X201496788Y-99981232D01*
X201636928Y-99879414D01*
X201759414Y-99756928D01*
X201861232Y-99616788D01*
X201939873Y-99462445D01*
X201993402Y-99297701D01*
X202020500Y-99126611D01*
X202020500Y-98953389D01*
X201993402Y-98782299D01*
X201939873Y-98617555D01*
X201861232Y-98463212D01*
X201759414Y-98323072D01*
X201636928Y-98200586D01*
X201496788Y-98098768D01*
X201342445Y-98020127D01*
X201177701Y-97966598D01*
X201177699Y-97966597D01*
X201177698Y-97966597D01*
X201046271Y-97945781D01*
X201006611Y-97939500D01*
X200833389Y-97939500D01*
X200793728Y-97945781D01*
X200662302Y-97966597D01*
X200497552Y-98020128D01*
X200343211Y-98098768D01*
X200263256Y-98156859D01*
X200203072Y-98200586D01*
X200203070Y-98200588D01*
X200203069Y-98200588D01*
X200080588Y-98323069D01*
X200080588Y-98323070D01*
X200080586Y-98323072D01*
X200042495Y-98375500D01*
X199978768Y-98463211D01*
X199900128Y-98617552D01*
X199846597Y-98782302D01*
X199819500Y-98953389D01*
X192810500Y-98953389D01*
X192810500Y-96413389D01*
X199819500Y-96413389D01*
X199819500Y-96586610D01*
X199846102Y-96754573D01*
X199846598Y-96757701D01*
X199900127Y-96922445D01*
X199978768Y-97076788D01*
X200080586Y-97216928D01*
X200203072Y-97339414D01*
X200343212Y-97441232D01*
X200497555Y-97519873D01*
X200662299Y-97573402D01*
X200833389Y-97600500D01*
X200833390Y-97600500D01*
X201006610Y-97600500D01*
X201006611Y-97600500D01*
X201177701Y-97573402D01*
X201342445Y-97519873D01*
X201496788Y-97441232D01*
X201636928Y-97339414D01*
X201759414Y-97216928D01*
X201861232Y-97076788D01*
X201939873Y-96922445D01*
X201993402Y-96757701D01*
X202020500Y-96586611D01*
X202020500Y-96413389D01*
X201993402Y-96242299D01*
X201939873Y-96077555D01*
X201861232Y-95923212D01*
X201759414Y-95783072D01*
X201636928Y-95660586D01*
X201496788Y-95558768D01*
X201342445Y-95480127D01*
X201177701Y-95426598D01*
X201177699Y-95426597D01*
X201177698Y-95426597D01*
X201046271Y-95405781D01*
X201006611Y-95399500D01*
X200833389Y-95399500D01*
X200793728Y-95405781D01*
X200662302Y-95426597D01*
X200497552Y-95480128D01*
X200343211Y-95558768D01*
X200263256Y-95616859D01*
X200203072Y-95660586D01*
X200203070Y-95660588D01*
X200203069Y-95660588D01*
X200080588Y-95783069D01*
X200080588Y-95783070D01*
X200080586Y-95783072D01*
X200039891Y-95839084D01*
X199978768Y-95923211D01*
X199900128Y-96077552D01*
X199846597Y-96242302D01*
X199819500Y-96413389D01*
X192810500Y-96413389D01*
X192810500Y-96032275D01*
X192810500Y-96032273D01*
X192783207Y-95930413D01*
X192783207Y-95930412D01*
X192730480Y-95839087D01*
X188061393Y-91170000D01*
X199592769Y-91170000D01*
X200486988Y-91170000D01*
X200454075Y-91227007D01*
X200420000Y-91354174D01*
X200420000Y-91485826D01*
X200454075Y-91612993D01*
X200486988Y-91670000D01*
X199592769Y-91670000D01*
X199603242Y-91736126D01*
X199603242Y-91736129D01*
X199668904Y-91938217D01*
X199765379Y-92127557D01*
X199890272Y-92299459D01*
X199890276Y-92299464D01*
X200040535Y-92449723D01*
X200040540Y-92449727D01*
X200212442Y-92574620D01*
X200401784Y-92671096D01*
X200500711Y-92703239D01*
X200558387Y-92742676D01*
X200585586Y-92807034D01*
X200573672Y-92875881D01*
X200526428Y-92927357D01*
X200500722Y-92939097D01*
X200499522Y-92939487D01*
X200497550Y-92940128D01*
X200343211Y-93018768D01*
X200263256Y-93076859D01*
X200203072Y-93120586D01*
X200203070Y-93120588D01*
X200203069Y-93120588D01*
X200080588Y-93243069D01*
X200080588Y-93243070D01*
X200080586Y-93243072D01*
X200036859Y-93303256D01*
X199978768Y-93383211D01*
X199900128Y-93537552D01*
X199846597Y-93702302D01*
X199819500Y-93873389D01*
X199819500Y-94046610D01*
X199836927Y-94156645D01*
X199846598Y-94217701D01*
X199886169Y-94339488D01*
X199900128Y-94382447D01*
X199918083Y-94417686D01*
X199978768Y-94536788D01*
X200080586Y-94676928D01*
X200203072Y-94799414D01*
X200343212Y-94901232D01*
X200497555Y-94979873D01*
X200662299Y-95033402D01*
X200833389Y-95060500D01*
X200833390Y-95060500D01*
X201006610Y-95060500D01*
X201006611Y-95060500D01*
X201177701Y-95033402D01*
X201342445Y-94979873D01*
X201496788Y-94901232D01*
X201636928Y-94799414D01*
X201759414Y-94676928D01*
X201861232Y-94536788D01*
X201939873Y-94382445D01*
X201993402Y-94217701D01*
X202020500Y-94046611D01*
X202020500Y-93873389D01*
X201993402Y-93702299D01*
X201939873Y-93537555D01*
X201861232Y-93383212D01*
X201759414Y-93243072D01*
X201636928Y-93120586D01*
X201496788Y-93018768D01*
X201342446Y-92940127D01*
X201339284Y-92939100D01*
X201338236Y-92938383D01*
X201337952Y-92938266D01*
X201337976Y-92938206D01*
X201281609Y-92899661D01*
X201254413Y-92835302D01*
X201266329Y-92766456D01*
X201313574Y-92714981D01*
X201339288Y-92703239D01*
X201438215Y-92671096D01*
X201627557Y-92574620D01*
X201799459Y-92449727D01*
X201799464Y-92449723D01*
X201949723Y-92299464D01*
X201949727Y-92299459D01*
X202074620Y-92127557D01*
X202171095Y-91938217D01*
X202236757Y-91736129D01*
X202236757Y-91736126D01*
X202247231Y-91670000D01*
X201353012Y-91670000D01*
X201385925Y-91612993D01*
X201420000Y-91485826D01*
X201420000Y-91354174D01*
X201385925Y-91227007D01*
X201353012Y-91170000D01*
X202247231Y-91170000D01*
X202236757Y-91103873D01*
X202236757Y-91103870D01*
X202171095Y-90901782D01*
X202074620Y-90712442D01*
X201949727Y-90540540D01*
X201949723Y-90540535D01*
X201799464Y-90390276D01*
X201799459Y-90390272D01*
X201627557Y-90265379D01*
X201438217Y-90168904D01*
X201339287Y-90136760D01*
X201281611Y-90097323D01*
X201254413Y-90032964D01*
X201266328Y-89964118D01*
X201313572Y-89912642D01*
X201339290Y-89900897D01*
X201342445Y-89899873D01*
X201496788Y-89821232D01*
X201636928Y-89719414D01*
X201759414Y-89596928D01*
X201861232Y-89456788D01*
X201939873Y-89302445D01*
X201993402Y-89137701D01*
X202020500Y-88966611D01*
X202020500Y-88793389D01*
X201993402Y-88622299D01*
X201939873Y-88457555D01*
X201861232Y-88303212D01*
X201759414Y-88163072D01*
X201636928Y-88040586D01*
X201496788Y-87938768D01*
X201342445Y-87860127D01*
X201177701Y-87806598D01*
X201177699Y-87806597D01*
X201177698Y-87806597D01*
X201046271Y-87785781D01*
X201006611Y-87779500D01*
X200833389Y-87779500D01*
X200793728Y-87785781D01*
X200662302Y-87806597D01*
X200497552Y-87860128D01*
X200343211Y-87938768D01*
X200263256Y-87996859D01*
X200203072Y-88040586D01*
X200203070Y-88040588D01*
X200203069Y-88040588D01*
X200080588Y-88163069D01*
X200080588Y-88163070D01*
X200080586Y-88163072D01*
X200064724Y-88184904D01*
X199978768Y-88303211D01*
X199900128Y-88457552D01*
X199846597Y-88622302D01*
X199823701Y-88766866D01*
X199819500Y-88793389D01*
X199819500Y-88966611D01*
X199846598Y-89137701D01*
X199900127Y-89302445D01*
X199978768Y-89456788D01*
X200080586Y-89596928D01*
X200203072Y-89719414D01*
X200343212Y-89821232D01*
X200497555Y-89899873D01*
X200500708Y-89900897D01*
X200501752Y-89901611D01*
X200502048Y-89901734D01*
X200502022Y-89901795D01*
X200558383Y-89940330D01*
X200585585Y-90004688D01*
X200573674Y-90073535D01*
X200526433Y-90125013D01*
X200500712Y-90136760D01*
X200401783Y-90168904D01*
X200212442Y-90265379D01*
X200040540Y-90390272D01*
X200040535Y-90390276D01*
X199890276Y-90540535D01*
X199890272Y-90540540D01*
X199765379Y-90712442D01*
X199668904Y-90901782D01*
X199603242Y-91103870D01*
X199603242Y-91103873D01*
X199592769Y-91170000D01*
X188061393Y-91170000D01*
X183144782Y-86253389D01*
X199819500Y-86253389D01*
X199819500Y-86426611D01*
X199846598Y-86597701D01*
X199900127Y-86762445D01*
X199978768Y-86916788D01*
X200080586Y-87056928D01*
X200203072Y-87179414D01*
X200343212Y-87281232D01*
X200497555Y-87359873D01*
X200662299Y-87413402D01*
X200833389Y-87440500D01*
X200833390Y-87440500D01*
X201006610Y-87440500D01*
X201006611Y-87440500D01*
X201177701Y-87413402D01*
X201342445Y-87359873D01*
X201496788Y-87281232D01*
X201636928Y-87179414D01*
X201759414Y-87056928D01*
X201861232Y-86916788D01*
X201939873Y-86762445D01*
X201993402Y-86597701D01*
X202020500Y-86426611D01*
X202020500Y-86253389D01*
X201993402Y-86082299D01*
X201939873Y-85917555D01*
X201861232Y-85763212D01*
X201759414Y-85623072D01*
X201636928Y-85500586D01*
X201496788Y-85398768D01*
X201342445Y-85320127D01*
X201177701Y-85266598D01*
X201177699Y-85266597D01*
X201177698Y-85266597D01*
X201046271Y-85245781D01*
X201006611Y-85239500D01*
X200833389Y-85239500D01*
X200793728Y-85245781D01*
X200662302Y-85266597D01*
X200497552Y-85320128D01*
X200343211Y-85398768D01*
X200263256Y-85456859D01*
X200203072Y-85500586D01*
X200203070Y-85500588D01*
X200203069Y-85500588D01*
X200080588Y-85623069D01*
X200080588Y-85623070D01*
X200080586Y-85623072D01*
X200036859Y-85683256D01*
X199978768Y-85763211D01*
X199900128Y-85917552D01*
X199846597Y-86082302D01*
X199819500Y-86253389D01*
X183144782Y-86253389D01*
X182910913Y-86019520D01*
X182842018Y-85979743D01*
X182819589Y-85966793D01*
X182768657Y-85953146D01*
X182717727Y-85939500D01*
X182717726Y-85939500D01*
X175987042Y-85939500D01*
X175920003Y-85919815D01*
X175876557Y-85871794D01*
X175821233Y-85763213D01*
X175805937Y-85742160D01*
X175719414Y-85623072D01*
X175596928Y-85500586D01*
X175456788Y-85398768D01*
X175302445Y-85320127D01*
X175137701Y-85266598D01*
X175137699Y-85266597D01*
X175137698Y-85266597D01*
X175006271Y-85245781D01*
X174966611Y-85239500D01*
X174793389Y-85239500D01*
X174753728Y-85245781D01*
X174622302Y-85266597D01*
X174457552Y-85320128D01*
X174303211Y-85398768D01*
X174223256Y-85456859D01*
X174163072Y-85500586D01*
X174163070Y-85500588D01*
X174163069Y-85500588D01*
X174040588Y-85623069D01*
X174040588Y-85623070D01*
X174040586Y-85623072D01*
X174009996Y-85665174D01*
X173938766Y-85763213D01*
X173883443Y-85871794D01*
X173835469Y-85922591D01*
X173772958Y-85939500D01*
X169045339Y-85939500D01*
X169045323Y-85939499D01*
X169037727Y-85939499D01*
X168932273Y-85939499D01*
X168855877Y-85959969D01*
X168830411Y-85966793D01*
X168807982Y-85979743D01*
X168807980Y-85979744D01*
X168799735Y-85984505D01*
X168739087Y-86019520D01*
X168664520Y-86094087D01*
X168664518Y-86094089D01*
X168659761Y-86098845D01*
X168659756Y-86098850D01*
X167140094Y-87618512D01*
X167078771Y-87651997D01*
X167052413Y-87654831D01*
X166955598Y-87654831D01*
X166829930Y-87679828D01*
X166829924Y-87679830D01*
X166711544Y-87728864D01*
X166711535Y-87728869D01*
X166605000Y-87800054D01*
X166604996Y-87800057D01*
X166514395Y-87890658D01*
X166514392Y-87890662D01*
X166443207Y-87997197D01*
X166443202Y-87997206D01*
X166394168Y-88115586D01*
X166394166Y-88115592D01*
X166369169Y-88241259D01*
X166369169Y-88241262D01*
X166369169Y-88369400D01*
X166369169Y-88369402D01*
X166369168Y-88369402D01*
X164560795Y-88369402D01*
X164336819Y-88145426D01*
X164303334Y-88084103D01*
X164300500Y-88057745D01*
X164300500Y-83713389D01*
X173779500Y-83713389D01*
X173779500Y-83886610D01*
X173806311Y-84055893D01*
X173806598Y-84057701D01*
X173860127Y-84222445D01*
X173938768Y-84376788D01*
X174040586Y-84516928D01*
X174163072Y-84639414D01*
X174303212Y-84741232D01*
X174457555Y-84819873D01*
X174622299Y-84873402D01*
X174793389Y-84900500D01*
X174793390Y-84900500D01*
X174966610Y-84900500D01*
X174966611Y-84900500D01*
X175137701Y-84873402D01*
X175302445Y-84819873D01*
X175456788Y-84741232D01*
X175596928Y-84639414D01*
X175719414Y-84516928D01*
X175821232Y-84376788D01*
X175899873Y-84222445D01*
X175953402Y-84057701D01*
X175980500Y-83886611D01*
X175980500Y-83713389D01*
X175953402Y-83542299D01*
X175899873Y-83377555D01*
X175821232Y-83223212D01*
X175719414Y-83083072D01*
X175596928Y-82960586D01*
X175456788Y-82858768D01*
X175302445Y-82780127D01*
X175137701Y-82726598D01*
X175137699Y-82726597D01*
X175137698Y-82726597D01*
X174997245Y-82704352D01*
X174966611Y-82699500D01*
X174793389Y-82699500D01*
X174762755Y-82704352D01*
X174622302Y-82726597D01*
X174457552Y-82780128D01*
X174303211Y-82858768D01*
X174285064Y-82871953D01*
X174163072Y-82960586D01*
X174163070Y-82960588D01*
X174163069Y-82960588D01*
X174040588Y-83083069D01*
X174040588Y-83083070D01*
X174040586Y-83083072D01*
X173996859Y-83143256D01*
X173938768Y-83223211D01*
X173860128Y-83377552D01*
X173806597Y-83542302D01*
X173779500Y-83713389D01*
X164300500Y-83713389D01*
X164300500Y-83695807D01*
X164320185Y-83628768D01*
X164336814Y-83608130D01*
X164405276Y-83539669D01*
X164476465Y-83433127D01*
X164525501Y-83314744D01*
X164533682Y-83273615D01*
X164550500Y-83189071D01*
X164550500Y-83060928D01*
X164525502Y-82935261D01*
X164525501Y-82935260D01*
X164525501Y-82935256D01*
X164499280Y-82871953D01*
X164491811Y-82802483D01*
X164523086Y-82740004D01*
X164583175Y-82704352D01*
X164613841Y-82700500D01*
X167572725Y-82700500D01*
X167572727Y-82700500D01*
X167674588Y-82673207D01*
X167765913Y-82620480D01*
X169213004Y-81173389D01*
X173779500Y-81173389D01*
X173779500Y-81346611D01*
X173806598Y-81517701D01*
X173859042Y-81679107D01*
X173860128Y-81682447D01*
X173883208Y-81727745D01*
X173938768Y-81836788D01*
X174040586Y-81976928D01*
X174163072Y-82099414D01*
X174303212Y-82201232D01*
X174457555Y-82279873D01*
X174622299Y-82333402D01*
X174793389Y-82360500D01*
X174793390Y-82360500D01*
X174966610Y-82360500D01*
X174966611Y-82360500D01*
X175137701Y-82333402D01*
X175302445Y-82279873D01*
X175456788Y-82201232D01*
X175596928Y-82099414D01*
X175719414Y-81976928D01*
X175812591Y-81848681D01*
X184749500Y-81848681D01*
X184749500Y-82191318D01*
X184787858Y-82531768D01*
X184787861Y-82531782D01*
X184864102Y-82865816D01*
X184864103Y-82865818D01*
X184977264Y-83189216D01*
X185125922Y-83497907D01*
X185125924Y-83497910D01*
X185308211Y-83788018D01*
X185521834Y-84055893D01*
X185764107Y-84298166D01*
X186031982Y-84511789D01*
X186322090Y-84694076D01*
X186630785Y-84842736D01*
X186954183Y-84955897D01*
X187288217Y-85032139D01*
X187288226Y-85032140D01*
X187288231Y-85032141D01*
X187515197Y-85057713D01*
X187628682Y-85070499D01*
X187628685Y-85070500D01*
X187628688Y-85070500D01*
X187971315Y-85070500D01*
X187971316Y-85070499D01*
X188145311Y-85050895D01*
X188311768Y-85032141D01*
X188311771Y-85032140D01*
X188311783Y-85032139D01*
X188645817Y-84955897D01*
X188969215Y-84842736D01*
X189277910Y-84694076D01*
X189568018Y-84511789D01*
X189835893Y-84298166D01*
X190078166Y-84055893D01*
X190291789Y-83788018D01*
X190338682Y-83713389D01*
X199819500Y-83713389D01*
X199819500Y-83886610D01*
X199846311Y-84055893D01*
X199846598Y-84057701D01*
X199900127Y-84222445D01*
X199978768Y-84376788D01*
X200080586Y-84516928D01*
X200203072Y-84639414D01*
X200343212Y-84741232D01*
X200497555Y-84819873D01*
X200662299Y-84873402D01*
X200833389Y-84900500D01*
X200833390Y-84900500D01*
X201006610Y-84900500D01*
X201006611Y-84900500D01*
X201177701Y-84873402D01*
X201342445Y-84819873D01*
X201496788Y-84741232D01*
X201636928Y-84639414D01*
X201759414Y-84516928D01*
X201861232Y-84376788D01*
X201939873Y-84222445D01*
X201993402Y-84057701D01*
X202020500Y-83886611D01*
X202020500Y-83713389D01*
X201993402Y-83542299D01*
X201939873Y-83377555D01*
X201861232Y-83223212D01*
X201759414Y-83083072D01*
X201636928Y-82960586D01*
X201496788Y-82858768D01*
X201342445Y-82780127D01*
X201177701Y-82726598D01*
X201177699Y-82726597D01*
X201177698Y-82726597D01*
X201037245Y-82704352D01*
X201006611Y-82699500D01*
X200833389Y-82699500D01*
X200802755Y-82704352D01*
X200662302Y-82726597D01*
X200497552Y-82780128D01*
X200343211Y-82858768D01*
X200325064Y-82871953D01*
X200203072Y-82960586D01*
X200203070Y-82960588D01*
X200203069Y-82960588D01*
X200080588Y-83083069D01*
X200080588Y-83083070D01*
X200080586Y-83083072D01*
X200036859Y-83143256D01*
X199978768Y-83223211D01*
X199900128Y-83377552D01*
X199846597Y-83542302D01*
X199819500Y-83713389D01*
X190338682Y-83713389D01*
X190384957Y-83639743D01*
X190404823Y-83608125D01*
X190474076Y-83497910D01*
X190622736Y-83189215D01*
X190735897Y-82865817D01*
X190812139Y-82531783D01*
X190850500Y-82191312D01*
X190850500Y-81848688D01*
X190813208Y-81517701D01*
X190812141Y-81508231D01*
X190812140Y-81508226D01*
X190812139Y-81508217D01*
X190735897Y-81174183D01*
X190622736Y-80850785D01*
X190474076Y-80542090D01*
X190291789Y-80251982D01*
X190078166Y-79984107D01*
X189835893Y-79741834D01*
X189833431Y-79739871D01*
X189607145Y-79559414D01*
X189568018Y-79528211D01*
X189277910Y-79345924D01*
X189277907Y-79345922D01*
X188969216Y-79197264D01*
X188645818Y-79084103D01*
X188645816Y-79084102D01*
X188378413Y-79023069D01*
X188311783Y-79007861D01*
X188311780Y-79007860D01*
X188311768Y-79007858D01*
X187971318Y-78969500D01*
X187971312Y-78969500D01*
X187628688Y-78969500D01*
X187628681Y-78969500D01*
X187288231Y-79007858D01*
X187288217Y-79007861D01*
X186954183Y-79084102D01*
X186954181Y-79084103D01*
X186630783Y-79197264D01*
X186322092Y-79345922D01*
X186031983Y-79528210D01*
X185764107Y-79741833D01*
X185521833Y-79984107D01*
X185308210Y-80251983D01*
X185125922Y-80542092D01*
X184977264Y-80850783D01*
X184864103Y-81174181D01*
X184864102Y-81174183D01*
X184787861Y-81508217D01*
X184787858Y-81508231D01*
X184749500Y-81848681D01*
X175812591Y-81848681D01*
X175821232Y-81836788D01*
X175899873Y-81682445D01*
X175953402Y-81517701D01*
X175980500Y-81346611D01*
X175980500Y-81173389D01*
X175953402Y-81002299D01*
X175899873Y-80837555D01*
X175821232Y-80683212D01*
X175719414Y-80543072D01*
X175596928Y-80420586D01*
X175456788Y-80318768D01*
X175302445Y-80240127D01*
X175137701Y-80186598D01*
X175137699Y-80186597D01*
X175137698Y-80186597D01*
X175006271Y-80165781D01*
X174966611Y-80159500D01*
X174793389Y-80159500D01*
X174753728Y-80165781D01*
X174622302Y-80186597D01*
X174622299Y-80186598D01*
X174512384Y-80222312D01*
X174457552Y-80240128D01*
X174303211Y-80318768D01*
X174267038Y-80345050D01*
X174163072Y-80420586D01*
X174163070Y-80420588D01*
X174163069Y-80420588D01*
X174040588Y-80543069D01*
X174040588Y-80543070D01*
X174040586Y-80543072D01*
X174014184Y-80579411D01*
X173938768Y-80683211D01*
X173860128Y-80837552D01*
X173806597Y-81002302D01*
X173779500Y-81173389D01*
X169213004Y-81173389D01*
X170895480Y-79490913D01*
X170926648Y-79436928D01*
X170948207Y-79399587D01*
X170975500Y-79297727D01*
X170975500Y-78633389D01*
X173779500Y-78633389D01*
X173779500Y-78806611D01*
X173806598Y-78977701D01*
X173860127Y-79142445D01*
X173938768Y-79296788D01*
X174040586Y-79436928D01*
X174163072Y-79559414D01*
X174303212Y-79661232D01*
X174457555Y-79739873D01*
X174622299Y-79793402D01*
X174793389Y-79820500D01*
X174793390Y-79820500D01*
X174966610Y-79820500D01*
X174966611Y-79820500D01*
X175137701Y-79793402D01*
X175302445Y-79739873D01*
X175456788Y-79661232D01*
X175596928Y-79559414D01*
X175719414Y-79436928D01*
X175821232Y-79296788D01*
X175899873Y-79142445D01*
X175953402Y-78977701D01*
X175980500Y-78806611D01*
X175980500Y-78633389D01*
X175953402Y-78462299D01*
X175899873Y-78297555D01*
X175821232Y-78143212D01*
X175719414Y-78003072D01*
X175596928Y-77880586D01*
X175456788Y-77778768D01*
X175302445Y-77700127D01*
X175137701Y-77646598D01*
X175137699Y-77646597D01*
X175137698Y-77646597D01*
X175006271Y-77625781D01*
X174966611Y-77619500D01*
X174793389Y-77619500D01*
X174753728Y-77625781D01*
X174622302Y-77646597D01*
X174457552Y-77700128D01*
X174303211Y-77778768D01*
X174223256Y-77836859D01*
X174163072Y-77880586D01*
X174163070Y-77880588D01*
X174163069Y-77880588D01*
X174040588Y-78003069D01*
X174040588Y-78003070D01*
X174040586Y-78003072D01*
X174025018Y-78024500D01*
X173938768Y-78143211D01*
X173860128Y-78297552D01*
X173806597Y-78462302D01*
X173795430Y-78532809D01*
X173779500Y-78633389D01*
X170975500Y-78633389D01*
X170975500Y-71467255D01*
X170980571Y-71449986D01*
X173500001Y-71449986D01*
X173510494Y-71552697D01*
X173565641Y-71719119D01*
X173565643Y-71719124D01*
X173657684Y-71868345D01*
X173781654Y-71992315D01*
X173930875Y-72084356D01*
X173930880Y-72084358D01*
X174023140Y-72114930D01*
X174080585Y-72154702D01*
X174107408Y-72219218D01*
X174095093Y-72287994D01*
X174047550Y-72339194D01*
X174027471Y-72348817D01*
X174007674Y-72356201D01*
X174007664Y-72356206D01*
X173892455Y-72442452D01*
X173892452Y-72442455D01*
X173806206Y-72557664D01*
X173806204Y-72557669D01*
X173780413Y-72626819D01*
X173755909Y-72692517D01*
X173749500Y-72752127D01*
X173749500Y-72752134D01*
X173749500Y-72752135D01*
X173749500Y-73522870D01*
X173749501Y-73522876D01*
X173755908Y-73582483D01*
X173806202Y-73717328D01*
X173806206Y-73717335D01*
X173892452Y-73832544D01*
X173892455Y-73832547D01*
X174007664Y-73918793D01*
X174007671Y-73918797D01*
X174143833Y-73969582D01*
X174199767Y-74011453D01*
X174224184Y-74076917D01*
X174224500Y-74085764D01*
X174224500Y-74955500D01*
X174204815Y-75022539D01*
X174152011Y-75068294D01*
X174100500Y-75079500D01*
X174005323Y-75079500D01*
X173932264Y-75094032D01*
X173932260Y-75094033D01*
X173849399Y-75149399D01*
X173794033Y-75232260D01*
X173794032Y-75232264D01*
X173779500Y-75305321D01*
X173779500Y-77054678D01*
X173794032Y-77127735D01*
X173794033Y-77127739D01*
X173794034Y-77127740D01*
X173849399Y-77210601D01*
X173932260Y-77265966D01*
X173932264Y-77265967D01*
X174005321Y-77280499D01*
X174005324Y-77280500D01*
X174005326Y-77280500D01*
X175754676Y-77280500D01*
X175754677Y-77280499D01*
X175827740Y-77265966D01*
X175910601Y-77210601D01*
X175965966Y-77127740D01*
X175980500Y-77054674D01*
X175980500Y-75305326D01*
X175980500Y-75305323D01*
X175980499Y-75305321D01*
X175965967Y-75232264D01*
X175965966Y-75232260D01*
X175910601Y-75149399D01*
X175827740Y-75094034D01*
X175827739Y-75094033D01*
X175827735Y-75094032D01*
X175754677Y-75079500D01*
X175754674Y-75079500D01*
X175349500Y-75079500D01*
X175282461Y-75059815D01*
X175236706Y-75007011D01*
X175225500Y-74955500D01*
X175225500Y-74085764D01*
X175245185Y-74018725D01*
X175297989Y-73972970D01*
X175306167Y-73969582D01*
X175442328Y-73918797D01*
X175442327Y-73918797D01*
X175442331Y-73918796D01*
X175557546Y-73832546D01*
X175643796Y-73717331D01*
X175694091Y-73582483D01*
X175700500Y-73522873D01*
X175700499Y-72752128D01*
X175694091Y-72692517D01*
X175643796Y-72557669D01*
X175643793Y-72557664D01*
X175557547Y-72442455D01*
X175557544Y-72442452D01*
X175442335Y-72356206D01*
X175442329Y-72356203D01*
X175422529Y-72348818D01*
X175366596Y-72306946D01*
X175342179Y-72241482D01*
X175357031Y-72173209D01*
X175406437Y-72123804D01*
X175426860Y-72114930D01*
X175519117Y-72084359D01*
X175519124Y-72084356D01*
X175668345Y-71992315D01*
X175792315Y-71868345D01*
X175884356Y-71719124D01*
X175884358Y-71719119D01*
X175939505Y-71552697D01*
X175939506Y-71552690D01*
X175949999Y-71449986D01*
X175950000Y-71449973D01*
X175950000Y-71312500D01*
X173500001Y-71312500D01*
X173500001Y-71449986D01*
X170980571Y-71449986D01*
X170995185Y-71400216D01*
X171011819Y-71379574D01*
X171716380Y-70675013D01*
X173500000Y-70675013D01*
X173500000Y-70812500D01*
X174475000Y-70812500D01*
X174975000Y-70812500D01*
X175949999Y-70812500D01*
X175949999Y-70675028D01*
X175949998Y-70675013D01*
X175939505Y-70572302D01*
X175884358Y-70405880D01*
X175884356Y-70405875D01*
X175792315Y-70256654D01*
X175668345Y-70132684D01*
X175519124Y-70040643D01*
X175519119Y-70040641D01*
X175352697Y-69985494D01*
X175352690Y-69985493D01*
X175249986Y-69975000D01*
X174975000Y-69975000D01*
X174975000Y-70812500D01*
X174475000Y-70812500D01*
X174475000Y-69975000D01*
X174200029Y-69975000D01*
X174200012Y-69975001D01*
X174097302Y-69985494D01*
X173930880Y-70040641D01*
X173930875Y-70040643D01*
X173781654Y-70132684D01*
X173657684Y-70256654D01*
X173565643Y-70405875D01*
X173565641Y-70405880D01*
X173510494Y-70572302D01*
X173510493Y-70572309D01*
X173500000Y-70675013D01*
X171716380Y-70675013D01*
X173424574Y-68966819D01*
X173485897Y-68933334D01*
X173512255Y-68930500D01*
X180037745Y-68930500D01*
X180104784Y-68950185D01*
X180125426Y-68966819D01*
X183594518Y-72435910D01*
X183594520Y-72435913D01*
X183669087Y-72510480D01*
X183750821Y-72557669D01*
X183758371Y-72562028D01*
X183758375Y-72562031D01*
X183760409Y-72563205D01*
X183760410Y-72563206D01*
X183760412Y-72563206D01*
X183760413Y-72563207D01*
X183862273Y-72590501D01*
X183862275Y-72590501D01*
X183975323Y-72590501D01*
X183975339Y-72590500D01*
X186122745Y-72590500D01*
X186189784Y-72610185D01*
X186210426Y-72626819D01*
X195164087Y-81580480D01*
X195255412Y-81633207D01*
X195357273Y-81660500D01*
X199812958Y-81660500D01*
X199879997Y-81680185D01*
X199923443Y-81728206D01*
X199978766Y-81836786D01*
X200009357Y-81878890D01*
X200080586Y-81976928D01*
X200203072Y-82099414D01*
X200343212Y-82201232D01*
X200497555Y-82279873D01*
X200662299Y-82333402D01*
X200833389Y-82360500D01*
X200833390Y-82360500D01*
X201006610Y-82360500D01*
X201006611Y-82360500D01*
X201177701Y-82333402D01*
X201342445Y-82279873D01*
X201496788Y-82201232D01*
X201636928Y-82099414D01*
X201759414Y-81976928D01*
X201861232Y-81836788D01*
X201939873Y-81682445D01*
X201993402Y-81517701D01*
X202020500Y-81346611D01*
X202020500Y-81173389D01*
X201993402Y-81002299D01*
X201939873Y-80837555D01*
X201861232Y-80683212D01*
X201759414Y-80543072D01*
X201636928Y-80420586D01*
X201496788Y-80318768D01*
X201342445Y-80240127D01*
X201177701Y-80186598D01*
X201177699Y-80186597D01*
X201177698Y-80186597D01*
X201046271Y-80165781D01*
X201006611Y-80159500D01*
X200833389Y-80159500D01*
X200793728Y-80165781D01*
X200662302Y-80186597D01*
X200662299Y-80186598D01*
X200552384Y-80222312D01*
X200497552Y-80240128D01*
X200343211Y-80318768D01*
X200307038Y-80345050D01*
X200203072Y-80420586D01*
X200203070Y-80420588D01*
X200203069Y-80420588D01*
X200080588Y-80543069D01*
X200080588Y-80543070D01*
X200080586Y-80543072D01*
X200054184Y-80579411D01*
X199978766Y-80683213D01*
X199923443Y-80791794D01*
X199875469Y-80842591D01*
X199812958Y-80859500D01*
X195627255Y-80859500D01*
X195560216Y-80839815D01*
X195539574Y-80823181D01*
X189998548Y-75282155D01*
X199570000Y-75282155D01*
X199570000Y-75930000D01*
X200486988Y-75930000D01*
X200454075Y-75987007D01*
X200420000Y-76114174D01*
X200420000Y-76245826D01*
X200454075Y-76372993D01*
X200486988Y-76430000D01*
X199570000Y-76430000D01*
X199570000Y-77077844D01*
X199576401Y-77137372D01*
X199576403Y-77137379D01*
X199626645Y-77272086D01*
X199626649Y-77272093D01*
X199712809Y-77387187D01*
X199712812Y-77387190D01*
X199827906Y-77473350D01*
X199827913Y-77473354D01*
X199962620Y-77523596D01*
X199962627Y-77523598D01*
X200022155Y-77529999D01*
X200022172Y-77530000D01*
X200314949Y-77530000D01*
X200381988Y-77549685D01*
X200427743Y-77602489D01*
X200437687Y-77671647D01*
X200408662Y-77735203D01*
X200371244Y-77764485D01*
X200343211Y-77778768D01*
X200263256Y-77836859D01*
X200203072Y-77880586D01*
X200203070Y-77880588D01*
X200203069Y-77880588D01*
X200080588Y-78003069D01*
X200080588Y-78003070D01*
X200080586Y-78003072D01*
X200065018Y-78024500D01*
X199978768Y-78143211D01*
X199900128Y-78297552D01*
X199846597Y-78462302D01*
X199835430Y-78532809D01*
X199819500Y-78633389D01*
X199819500Y-78806611D01*
X199846598Y-78977701D01*
X199900127Y-79142445D01*
X199978768Y-79296788D01*
X200080586Y-79436928D01*
X200203072Y-79559414D01*
X200343212Y-79661232D01*
X200497555Y-79739873D01*
X200662299Y-79793402D01*
X200833389Y-79820500D01*
X200833390Y-79820500D01*
X201006610Y-79820500D01*
X201006611Y-79820500D01*
X201177701Y-79793402D01*
X201342445Y-79739873D01*
X201496788Y-79661232D01*
X201636928Y-79559414D01*
X201759414Y-79436928D01*
X201861232Y-79296788D01*
X201890167Y-79240000D01*
X201916557Y-79188206D01*
X201964531Y-79137409D01*
X202027042Y-79120500D01*
X203073789Y-79120500D01*
X203073791Y-79120500D01*
X203175652Y-79093207D01*
X203266977Y-79040480D01*
X203948349Y-78359108D01*
X204574500Y-78359108D01*
X204574500Y-84655612D01*
X204574500Y-84787396D01*
X204583365Y-84820480D01*
X204608608Y-84914691D01*
X204621384Y-84936819D01*
X204674500Y-85028818D01*
X204674502Y-85028820D01*
X208938181Y-89292499D01*
X208971666Y-89353822D01*
X208974500Y-89380180D01*
X208974500Y-95050500D01*
X208954815Y-95117539D01*
X208902011Y-95163294D01*
X208850500Y-95174500D01*
X208352129Y-95174500D01*
X208352123Y-95174501D01*
X208292516Y-95180908D01*
X208157671Y-95231202D01*
X208157664Y-95231206D01*
X208042455Y-95317452D01*
X208042452Y-95317455D01*
X207956206Y-95432664D01*
X207956202Y-95432671D01*
X207905908Y-95567517D01*
X207899501Y-95627116D01*
X207899500Y-95627135D01*
X207899500Y-96822870D01*
X207899501Y-96822876D01*
X207905908Y-96882483D01*
X207956202Y-97017328D01*
X207956206Y-97017335D01*
X208042452Y-97132544D01*
X208042455Y-97132547D01*
X208157664Y-97218793D01*
X208157671Y-97218797D01*
X208202618Y-97235561D01*
X208292517Y-97269091D01*
X208352127Y-97275500D01*
X208850500Y-97275499D01*
X208917539Y-97295183D01*
X208963294Y-97347987D01*
X208974500Y-97399499D01*
X208974500Y-101475500D01*
X208954815Y-101542539D01*
X208902011Y-101588294D01*
X208850500Y-101599500D01*
X208402129Y-101599500D01*
X208402123Y-101599501D01*
X208342516Y-101605908D01*
X208207671Y-101656202D01*
X208207664Y-101656206D01*
X208092455Y-101742452D01*
X208092452Y-101742455D01*
X208006206Y-101857664D01*
X208006202Y-101857671D01*
X207955908Y-101992517D01*
X207949501Y-102052116D01*
X207949500Y-102052135D01*
X207949500Y-103247870D01*
X207949501Y-103247876D01*
X207955908Y-103307483D01*
X208006202Y-103442328D01*
X208006206Y-103442335D01*
X208092452Y-103557544D01*
X208092455Y-103557547D01*
X208207664Y-103643793D01*
X208207671Y-103643797D01*
X208252618Y-103660561D01*
X208342517Y-103694091D01*
X208402127Y-103700500D01*
X208900500Y-103700499D01*
X208967539Y-103720183D01*
X209013294Y-103772987D01*
X209024500Y-103824499D01*
X209024500Y-108248000D01*
X209004815Y-108315039D01*
X208952011Y-108360794D01*
X208900500Y-108372000D01*
X208297129Y-108372000D01*
X208297123Y-108372001D01*
X208237516Y-108378408D01*
X208102671Y-108428702D01*
X208102664Y-108428706D01*
X207987455Y-108514952D01*
X207987452Y-108514955D01*
X207901206Y-108630164D01*
X207901204Y-108630168D01*
X207901204Y-108630169D01*
X207897039Y-108641334D01*
X207855171Y-108697266D01*
X207789707Y-108721684D01*
X207780859Y-108722000D01*
X207256608Y-108722000D01*
X207129312Y-108756108D01*
X207015186Y-108822000D01*
X207015183Y-108822002D01*
X206674502Y-109162683D01*
X206674500Y-109162686D01*
X206608608Y-109276812D01*
X206574500Y-109404108D01*
X206574500Y-127242581D01*
X206554815Y-127309620D01*
X206502011Y-127355375D01*
X206432853Y-127365319D01*
X206407168Y-127358763D01*
X206332485Y-127330909D01*
X206332483Y-127330908D01*
X206272883Y-127324501D01*
X206272881Y-127324500D01*
X206272873Y-127324500D01*
X206272864Y-127324500D01*
X205377129Y-127324500D01*
X205377123Y-127324501D01*
X205317516Y-127330908D01*
X205182671Y-127381202D01*
X205182664Y-127381206D01*
X205067455Y-127467452D01*
X205067452Y-127467455D01*
X204981206Y-127582664D01*
X204981202Y-127582671D01*
X204930908Y-127717517D01*
X204924501Y-127777116D01*
X204924501Y-127777123D01*
X204924500Y-127777135D01*
X204924500Y-129122870D01*
X204924501Y-129122876D01*
X204930908Y-129182483D01*
X204981202Y-129317328D01*
X204981206Y-129317335D01*
X205067452Y-129432544D01*
X205067455Y-129432547D01*
X205182664Y-129518793D01*
X205182671Y-129518797D01*
X205317517Y-129569091D01*
X205317516Y-129569091D01*
X205324444Y-129569835D01*
X205377127Y-129575500D01*
X206272872Y-129575499D01*
X206332483Y-129569091D01*
X206467331Y-129518796D01*
X206582546Y-129432546D01*
X206668796Y-129317331D01*
X206719091Y-129182483D01*
X206725500Y-129122873D01*
X206725499Y-128844326D01*
X206745183Y-128777288D01*
X206787501Y-128736939D01*
X206794788Y-128732731D01*
X206807314Y-128725500D01*
X207475500Y-128057314D01*
X207541392Y-127943186D01*
X207575500Y-127815892D01*
X207575500Y-127684107D01*
X207575500Y-113384635D01*
X207844500Y-113384635D01*
X207844500Y-114180370D01*
X207844501Y-114180376D01*
X207850908Y-114239983D01*
X207901202Y-114374828D01*
X207901206Y-114374835D01*
X207987452Y-114490044D01*
X207987455Y-114490047D01*
X208102664Y-114576293D01*
X208102671Y-114576297D01*
X208147618Y-114593061D01*
X208237517Y-114626591D01*
X208297127Y-114633000D01*
X208625500Y-114632999D01*
X208692539Y-114652683D01*
X208738294Y-114705487D01*
X208749500Y-114756999D01*
X208749500Y-119314235D01*
X208729815Y-119381274D01*
X208677011Y-119427029D01*
X208668834Y-119430417D01*
X208532669Y-119481203D01*
X208532664Y-119481206D01*
X208417455Y-119567452D01*
X208417452Y-119567455D01*
X208331206Y-119682664D01*
X208331202Y-119682671D01*
X208280908Y-119817517D01*
X208274501Y-119877116D01*
X208274500Y-119877135D01*
X208274500Y-121072870D01*
X208274501Y-121072876D01*
X208280908Y-121132483D01*
X208331202Y-121267328D01*
X208331206Y-121267335D01*
X208417452Y-121382544D01*
X208417455Y-121382547D01*
X208532664Y-121468793D01*
X208532671Y-121468797D01*
X208556145Y-121477552D01*
X208667517Y-121519091D01*
X208727127Y-121525500D01*
X209225500Y-121525499D01*
X209292539Y-121545183D01*
X209338294Y-121597987D01*
X209349500Y-121649499D01*
X209349500Y-127150500D01*
X209329815Y-127217539D01*
X209277011Y-127263294D01*
X209225500Y-127274500D01*
X208727129Y-127274500D01*
X208727123Y-127274501D01*
X208667516Y-127280908D01*
X208532671Y-127331202D01*
X208532664Y-127331206D01*
X208417455Y-127417452D01*
X208417452Y-127417455D01*
X208331206Y-127532664D01*
X208331202Y-127532671D01*
X208280908Y-127667517D01*
X208274501Y-127727116D01*
X208274500Y-127727135D01*
X208274500Y-128922870D01*
X208274501Y-128922876D01*
X208280908Y-128982483D01*
X208331202Y-129117328D01*
X208331206Y-129117335D01*
X208417452Y-129232544D01*
X208417455Y-129232547D01*
X208532664Y-129318793D01*
X208532671Y-129318797D01*
X208577618Y-129335561D01*
X208667517Y-129369091D01*
X208727127Y-129375500D01*
X209225500Y-129375499D01*
X209292539Y-129395183D01*
X209338294Y-129447987D01*
X209349500Y-129499499D01*
X209349500Y-130965891D01*
X209383608Y-131093187D01*
X209416554Y-131150250D01*
X209449500Y-131207314D01*
X210192686Y-131950500D01*
X210306814Y-132016392D01*
X210434108Y-132050500D01*
X210434110Y-132050500D01*
X222465890Y-132050500D01*
X222465892Y-132050500D01*
X222593186Y-132016392D01*
X222707314Y-131950500D01*
X226600500Y-128057314D01*
X226623379Y-128017686D01*
X226666392Y-127943186D01*
X226700500Y-127815892D01*
X226700500Y-94659108D01*
X226691383Y-94625084D01*
X226666392Y-94531814D01*
X226652729Y-94508149D01*
X226600500Y-94417686D01*
X226507314Y-94324500D01*
X225147314Y-92964500D01*
X225082981Y-92927357D01*
X225033187Y-92898608D01*
X224948367Y-92875881D01*
X224905892Y-92864500D01*
X224905891Y-92864500D01*
X224124499Y-92864500D01*
X224057460Y-92844815D01*
X224011705Y-92792011D01*
X224000499Y-92740500D01*
X224000499Y-92651989D01*
X224000498Y-92651979D01*
X223994312Y-92573355D01*
X223945320Y-92390512D01*
X223898926Y-92299459D01*
X223859385Y-92221853D01*
X223790614Y-92136929D01*
X223740257Y-92074743D01*
X223643991Y-91996788D01*
X223593146Y-91955614D01*
X223467868Y-91891783D01*
X223424488Y-91869680D01*
X223322852Y-91842447D01*
X223241643Y-91820687D01*
X223169736Y-91815028D01*
X223163021Y-91814500D01*
X223163020Y-91814500D01*
X221336989Y-91814500D01*
X221336970Y-91814501D01*
X221258356Y-91820687D01*
X221075512Y-91869680D01*
X220906853Y-91955614D01*
X220759743Y-92074743D01*
X220640614Y-92221853D01*
X220554680Y-92390512D01*
X220505687Y-92573356D01*
X220505687Y-92573357D01*
X220499500Y-92651973D01*
X220499500Y-94078010D01*
X220499501Y-94078029D01*
X220505687Y-94156643D01*
X220536747Y-94272562D01*
X220554680Y-94339488D01*
X220576568Y-94382445D01*
X220640614Y-94508146D01*
X220663808Y-94536788D01*
X220759743Y-94655257D01*
X220866311Y-94741554D01*
X220906853Y-94774385D01*
X220990371Y-94816938D01*
X221075512Y-94860320D01*
X221258355Y-94909312D01*
X221336979Y-94915500D01*
X223163020Y-94915499D01*
X223241645Y-94909312D01*
X223424488Y-94860320D01*
X223553008Y-94794835D01*
X223593146Y-94774385D01*
X223593147Y-94774383D01*
X223593149Y-94774383D01*
X223740257Y-94655257D01*
X223859383Y-94508149D01*
X223945320Y-94339488D01*
X223994312Y-94156645D01*
X224000500Y-94078021D01*
X224000500Y-93989500D01*
X224020185Y-93922461D01*
X224072989Y-93876706D01*
X224124500Y-93865500D01*
X224581324Y-93865500D01*
X224648363Y-93885185D01*
X224669005Y-93901819D01*
X225663181Y-94895995D01*
X225696666Y-94957318D01*
X225699500Y-94983676D01*
X225699500Y-127491324D01*
X225679815Y-127558363D01*
X225663181Y-127579005D01*
X222229005Y-131013181D01*
X222167682Y-131046666D01*
X222141324Y-131049500D01*
X210758676Y-131049500D01*
X210691637Y-131029815D01*
X210670995Y-131013181D01*
X210386819Y-130729005D01*
X210353334Y-130667682D01*
X210350500Y-130641324D01*
X210350500Y-129499499D01*
X210370185Y-129432460D01*
X210422989Y-129386705D01*
X210474500Y-129375499D01*
X210972871Y-129375499D01*
X210972872Y-129375499D01*
X211032483Y-129369091D01*
X211167331Y-129318796D01*
X211282546Y-129232546D01*
X211282554Y-129232534D01*
X211284090Y-129231000D01*
X211286018Y-129229946D01*
X211289645Y-129227232D01*
X211290035Y-129227753D01*
X211345411Y-129197511D01*
X211415103Y-129202491D01*
X211471039Y-129244359D01*
X211477316Y-129253579D01*
X211532684Y-129343345D01*
X211656654Y-129467315D01*
X211805875Y-129559356D01*
X211805880Y-129559358D01*
X211972302Y-129614505D01*
X211972309Y-129614506D01*
X212075019Y-129624999D01*
X212949999Y-129624999D01*
X213450000Y-129624999D01*
X214324972Y-129624999D01*
X214324986Y-129624998D01*
X214427697Y-129614505D01*
X214594119Y-129559358D01*
X214594124Y-129559356D01*
X214743345Y-129467315D01*
X214867315Y-129343345D01*
X214959356Y-129194124D01*
X214959358Y-129194119D01*
X215014505Y-129027697D01*
X215014506Y-129027690D01*
X215024999Y-128924986D01*
X215025000Y-128924973D01*
X215025000Y-128575000D01*
X213450000Y-128575000D01*
X213450000Y-129624999D01*
X212949999Y-129624999D01*
X212950000Y-129624998D01*
X212950000Y-128075000D01*
X213450000Y-128075000D01*
X215024999Y-128075000D01*
X215024999Y-127725028D01*
X215024998Y-127725013D01*
X215014505Y-127622302D01*
X214959358Y-127455880D01*
X214959356Y-127455875D01*
X214867315Y-127306654D01*
X214743345Y-127182684D01*
X214594124Y-127090643D01*
X214594119Y-127090641D01*
X214427697Y-127035494D01*
X214427690Y-127035493D01*
X214324986Y-127025000D01*
X213450000Y-127025000D01*
X213450000Y-128075000D01*
X212950000Y-128075000D01*
X212950000Y-127025000D01*
X212075028Y-127025000D01*
X212075012Y-127025001D01*
X211972302Y-127035494D01*
X211805880Y-127090641D01*
X211805875Y-127090643D01*
X211656654Y-127182684D01*
X211532683Y-127306655D01*
X211532680Y-127306659D01*
X211477315Y-127396420D01*
X211425367Y-127443145D01*
X211356405Y-127454366D01*
X211292323Y-127426523D01*
X211284096Y-127419004D01*
X211282544Y-127417452D01*
X211167335Y-127331206D01*
X211167328Y-127331202D01*
X211032482Y-127280908D01*
X211032483Y-127280908D01*
X210972883Y-127274501D01*
X210972881Y-127274500D01*
X210972873Y-127274500D01*
X210972865Y-127274500D01*
X210474500Y-127274500D01*
X210407461Y-127254815D01*
X210361706Y-127202011D01*
X210350500Y-127150500D01*
X210350500Y-126231341D01*
X216427500Y-126231341D01*
X216427500Y-128201142D01*
X216427501Y-128201159D01*
X216433651Y-128279317D01*
X216482358Y-128461094D01*
X216567792Y-128628771D01*
X216686226Y-128775023D01*
X216832478Y-128893457D01*
X217000155Y-128978891D01*
X217181933Y-129027598D01*
X217260097Y-129033749D01*
X217762500Y-129033749D01*
X217762500Y-129033748D01*
X218376051Y-129033748D01*
X218376052Y-129033749D01*
X221303947Y-129033749D01*
X221303947Y-129033748D01*
X219840000Y-127569802D01*
X218376051Y-129033748D01*
X217762500Y-129033748D01*
X217770511Y-129014410D01*
X217769921Y-129013330D01*
X217774905Y-128943638D01*
X217803406Y-128899291D01*
X219486447Y-127216249D01*
X220193552Y-127216249D01*
X220193552Y-127216250D01*
X221876592Y-128899290D01*
X221910077Y-128960613D01*
X221906709Y-129007703D01*
X221917498Y-129033749D01*
X222419893Y-129033749D01*
X222419909Y-129033748D01*
X222498067Y-129027598D01*
X222679844Y-128978891D01*
X222847521Y-128893457D01*
X222993773Y-128775023D01*
X223112207Y-128628771D01*
X223197641Y-128461094D01*
X223246348Y-128279317D01*
X223246348Y-128279316D01*
X223252499Y-128201158D01*
X223252499Y-126231357D01*
X223252498Y-126231340D01*
X223246348Y-126153182D01*
X223197641Y-125971405D01*
X223112207Y-125803728D01*
X222993773Y-125657476D01*
X222847521Y-125539042D01*
X222679844Y-125453608D01*
X222498066Y-125404901D01*
X222419908Y-125398750D01*
X221917498Y-125398750D01*
X221909487Y-125418088D01*
X221910078Y-125419169D01*
X221905094Y-125488861D01*
X221876593Y-125533208D01*
X220193552Y-127216249D01*
X219486447Y-127216249D01*
X217803405Y-125533207D01*
X217799066Y-125525261D01*
X217791819Y-125519836D01*
X217782584Y-125495076D01*
X217769920Y-125471884D01*
X217770565Y-125462854D01*
X217767402Y-125454372D01*
X217773018Y-125428551D01*
X217773287Y-125424790D01*
X217762501Y-125398750D01*
X218376051Y-125398750D01*
X219840000Y-126862698D01*
X219840001Y-126862698D01*
X221303947Y-125398750D01*
X218376051Y-125398750D01*
X217762501Y-125398750D01*
X217260107Y-125398750D01*
X217260090Y-125398751D01*
X217181932Y-125404901D01*
X217000155Y-125453608D01*
X216832478Y-125539042D01*
X216686226Y-125657476D01*
X216567792Y-125803728D01*
X216482358Y-125971405D01*
X216433651Y-126153182D01*
X216433651Y-126153183D01*
X216427500Y-126231341D01*
X210350500Y-126231341D01*
X210350500Y-121649499D01*
X210370185Y-121582460D01*
X210422989Y-121536705D01*
X210474500Y-121525499D01*
X210972871Y-121525499D01*
X210972872Y-121525499D01*
X211032483Y-121519091D01*
X211167331Y-121468796D01*
X211282546Y-121382546D01*
X211282554Y-121382534D01*
X211284090Y-121381000D01*
X211286018Y-121379946D01*
X211289645Y-121377232D01*
X211290035Y-121377753D01*
X211345411Y-121347511D01*
X211415103Y-121352491D01*
X211471039Y-121394359D01*
X211477316Y-121403579D01*
X211532684Y-121493345D01*
X211656654Y-121617315D01*
X211805875Y-121709356D01*
X211805880Y-121709358D01*
X211972302Y-121764505D01*
X211972309Y-121764506D01*
X212075019Y-121774999D01*
X212949999Y-121774999D01*
X213450000Y-121774999D01*
X214324972Y-121774999D01*
X214324986Y-121774998D01*
X214427697Y-121764505D01*
X214594119Y-121709358D01*
X214594124Y-121709356D01*
X214743345Y-121617315D01*
X214867315Y-121493345D01*
X214959356Y-121344124D01*
X214959358Y-121344119D01*
X215014505Y-121177697D01*
X215014506Y-121177689D01*
X215017715Y-121146280D01*
X216649500Y-121146280D01*
X216649500Y-123121219D01*
X216652380Y-123157818D01*
X216652381Y-123157824D01*
X216697898Y-123314491D01*
X216697899Y-123314494D01*
X216780950Y-123454927D01*
X216780956Y-123454935D01*
X216896314Y-123570293D01*
X216896318Y-123570296D01*
X216896320Y-123570298D01*
X217036754Y-123653350D01*
X217078072Y-123665354D01*
X217193425Y-123698868D01*
X217193428Y-123698868D01*
X217193430Y-123698869D01*
X217230038Y-123701750D01*
X217230046Y-123701750D01*
X222422454Y-123701750D01*
X222422462Y-123701750D01*
X222459070Y-123698869D01*
X222459072Y-123698868D01*
X222459074Y-123698868D01*
X222500388Y-123686864D01*
X222615746Y-123653350D01*
X222756180Y-123570298D01*
X222871548Y-123454930D01*
X222954600Y-123314496D01*
X223000119Y-123157820D01*
X223003000Y-123121212D01*
X223003000Y-121146288D01*
X223000119Y-121109680D01*
X222990039Y-121074986D01*
X222962323Y-120979588D01*
X222954600Y-120953004D01*
X222871548Y-120812570D01*
X222871546Y-120812568D01*
X222871543Y-120812564D01*
X222756185Y-120697206D01*
X222756177Y-120697200D01*
X222615744Y-120614149D01*
X222615741Y-120614148D01*
X222459074Y-120568631D01*
X222459068Y-120568630D01*
X222422469Y-120565750D01*
X222422462Y-120565750D01*
X220450750Y-120565750D01*
X220383711Y-120546065D01*
X220337956Y-120493261D01*
X220326750Y-120441750D01*
X220326750Y-118107426D01*
X220346435Y-118040387D01*
X220363069Y-118019745D01*
X221476204Y-116906610D01*
X222650500Y-115732314D01*
X222716392Y-115618186D01*
X222750500Y-115490893D01*
X222750500Y-115359108D01*
X222750500Y-99739499D01*
X222770185Y-99672460D01*
X222822989Y-99626705D01*
X222874500Y-99615499D01*
X223163011Y-99615499D01*
X223163020Y-99615499D01*
X223241645Y-99609312D01*
X223424488Y-99560320D01*
X223553008Y-99494835D01*
X223593146Y-99474385D01*
X223593147Y-99474383D01*
X223593149Y-99474383D01*
X223740257Y-99355257D01*
X223859383Y-99208149D01*
X223861198Y-99204588D01*
X223888902Y-99150214D01*
X223945320Y-99039488D01*
X223994312Y-98856645D01*
X224000500Y-98778021D01*
X224000499Y-97351980D01*
X223994312Y-97273355D01*
X223945320Y-97090512D01*
X223882651Y-96967517D01*
X223859385Y-96921853D01*
X223787166Y-96832671D01*
X223740257Y-96774743D01*
X223627225Y-96683211D01*
X223593146Y-96655614D01*
X223446524Y-96580908D01*
X223424488Y-96569680D01*
X223357562Y-96551747D01*
X223241643Y-96520687D01*
X223169736Y-96515028D01*
X223163021Y-96514500D01*
X223163020Y-96514500D01*
X221336989Y-96514500D01*
X221336970Y-96514501D01*
X221258356Y-96520687D01*
X221075512Y-96569680D01*
X220906853Y-96655614D01*
X220759743Y-96774743D01*
X220640614Y-96921853D01*
X220554680Y-97090512D01*
X220505687Y-97273356D01*
X220505687Y-97273357D01*
X220499500Y-97351973D01*
X220499500Y-98778010D01*
X220499501Y-98778029D01*
X220505687Y-98856643D01*
X220505688Y-98856645D01*
X220554680Y-99039488D01*
X220576783Y-99082868D01*
X220640614Y-99208146D01*
X220647989Y-99217253D01*
X220759743Y-99355257D01*
X220866311Y-99441554D01*
X220906853Y-99474385D01*
X220990371Y-99516938D01*
X221075512Y-99560320D01*
X221258355Y-99609312D01*
X221336979Y-99615500D01*
X221625501Y-99615499D01*
X221692539Y-99635183D01*
X221738294Y-99687987D01*
X221749500Y-99739499D01*
X221749500Y-115166324D01*
X221729815Y-115233363D01*
X221713181Y-115254005D01*
X219425752Y-117541433D01*
X219425750Y-117541436D01*
X219359858Y-117655562D01*
X219325750Y-117782858D01*
X219325750Y-120441750D01*
X219306065Y-120508789D01*
X219253261Y-120554544D01*
X219201750Y-120565750D01*
X217230030Y-120565750D01*
X217193431Y-120568630D01*
X217193425Y-120568631D01*
X217036758Y-120614148D01*
X217036755Y-120614149D01*
X216896322Y-120697200D01*
X216896314Y-120697206D01*
X216780956Y-120812564D01*
X216780950Y-120812572D01*
X216697899Y-120953005D01*
X216697898Y-120953008D01*
X216652381Y-121109675D01*
X216652380Y-121109681D01*
X216649500Y-121146280D01*
X215017715Y-121146280D01*
X215019251Y-121131251D01*
X215019251Y-121131250D01*
X215024999Y-121074986D01*
X215025000Y-121074973D01*
X215025000Y-120725000D01*
X213450000Y-120725000D01*
X213450000Y-121774999D01*
X212949999Y-121774999D01*
X212950000Y-121774998D01*
X212950000Y-120225000D01*
X213450000Y-120225000D01*
X215024999Y-120225000D01*
X215024999Y-119875028D01*
X215024998Y-119875013D01*
X215014505Y-119772302D01*
X214959358Y-119605880D01*
X214959356Y-119605875D01*
X214867315Y-119456654D01*
X214743345Y-119332684D01*
X214594124Y-119240643D01*
X214594119Y-119240641D01*
X214427697Y-119185494D01*
X214427690Y-119185493D01*
X214324986Y-119175000D01*
X213450000Y-119175000D01*
X213450000Y-120225000D01*
X212950000Y-120225000D01*
X212950000Y-119175000D01*
X212075028Y-119175000D01*
X212075012Y-119175001D01*
X211972302Y-119185494D01*
X211805880Y-119240641D01*
X211805875Y-119240643D01*
X211656654Y-119332684D01*
X211532683Y-119456655D01*
X211532680Y-119456659D01*
X211477315Y-119546420D01*
X211425367Y-119593145D01*
X211356405Y-119604366D01*
X211292323Y-119576523D01*
X211284096Y-119569004D01*
X211282544Y-119567452D01*
X211167335Y-119481206D01*
X211167328Y-119481202D01*
X211032482Y-119430908D01*
X211032483Y-119430908D01*
X210972883Y-119424501D01*
X210972881Y-119424500D01*
X210972873Y-119424500D01*
X210972865Y-119424500D01*
X209874500Y-119424500D01*
X209807461Y-119404815D01*
X209761706Y-119352011D01*
X209750500Y-119300500D01*
X209750500Y-114756999D01*
X209770185Y-114689960D01*
X209822989Y-114644205D01*
X209874500Y-114632999D01*
X210092871Y-114632999D01*
X210092872Y-114632999D01*
X210152483Y-114626591D01*
X210287331Y-114576296D01*
X210402546Y-114490046D01*
X210488796Y-114374831D01*
X210539091Y-114239983D01*
X210543111Y-114202594D01*
X211795000Y-114202594D01*
X211795134Y-114203787D01*
X211805494Y-114305199D01*
X211860640Y-114471620D01*
X211860642Y-114471625D01*
X211952683Y-114620846D01*
X212076653Y-114744816D01*
X212225874Y-114836857D01*
X212225879Y-114836859D01*
X212392302Y-114892006D01*
X212392300Y-114892006D01*
X212451134Y-114898016D01*
X212451137Y-114898016D01*
X212501305Y-114903142D01*
X212508461Y-114903873D01*
X212516419Y-114902500D01*
X212546375Y-114902500D01*
X212546384Y-114902499D01*
X213570000Y-114902499D01*
X214070000Y-114902499D01*
X215245000Y-114902499D01*
X215745000Y-114902499D01*
X216919999Y-114902499D01*
X217420000Y-114902499D01*
X218494974Y-114902499D01*
X218494988Y-114902498D01*
X218597699Y-114892005D01*
X218764120Y-114836859D01*
X218764125Y-114836857D01*
X218913346Y-114744816D01*
X219037316Y-114620846D01*
X219129357Y-114471625D01*
X219129359Y-114471620D01*
X219184505Y-114305198D01*
X219194999Y-114202488D01*
X219195000Y-114202475D01*
X219195000Y-113277500D01*
X217420000Y-113277500D01*
X217420000Y-114902499D01*
X216919999Y-114902499D01*
X216920000Y-114902498D01*
X216920000Y-113277500D01*
X215745000Y-113277500D01*
X215745000Y-114902499D01*
X215245000Y-114902499D01*
X215245000Y-113277500D01*
X214070000Y-113277500D01*
X214070000Y-114902499D01*
X213570000Y-114902499D01*
X213570000Y-113277500D01*
X211795000Y-113277500D01*
X211795000Y-114202594D01*
X210543111Y-114202594D01*
X210545500Y-114180373D01*
X210545499Y-113384628D01*
X210539091Y-113325017D01*
X210528049Y-113295413D01*
X210518374Y-113269471D01*
X210488797Y-113190171D01*
X210488793Y-113190164D01*
X210402547Y-113074955D01*
X210402544Y-113074952D01*
X210287335Y-112988706D01*
X210287328Y-112988702D01*
X210152482Y-112938408D01*
X210152483Y-112938408D01*
X210092883Y-112932001D01*
X210092881Y-112932000D01*
X210092873Y-112932000D01*
X210092864Y-112932000D01*
X208297129Y-112932000D01*
X208297123Y-112932001D01*
X208237516Y-112938408D01*
X208102671Y-112988702D01*
X208102664Y-112988706D01*
X207987455Y-113074952D01*
X207987452Y-113074955D01*
X207901206Y-113190164D01*
X207901202Y-113190171D01*
X207850908Y-113325017D01*
X207844501Y-113384616D01*
X207844501Y-113384623D01*
X207844500Y-113384635D01*
X207575500Y-113384635D01*
X207575500Y-112777500D01*
X211795000Y-112777500D01*
X213570000Y-112777500D01*
X214070000Y-112777500D01*
X215245000Y-112777500D01*
X215745000Y-112777500D01*
X216920000Y-112777500D01*
X217420000Y-112777500D01*
X219194999Y-112777500D01*
X219194999Y-111752500D01*
X217420000Y-111752500D01*
X217420000Y-112777500D01*
X216920000Y-112777500D01*
X216920000Y-111752500D01*
X215745000Y-111752500D01*
X215745000Y-112777500D01*
X215245000Y-112777500D01*
X215245000Y-111752500D01*
X214070000Y-111752500D01*
X214070000Y-112777500D01*
X213570000Y-112777500D01*
X213570000Y-111752500D01*
X211795000Y-111752500D01*
X211795000Y-112777500D01*
X207575500Y-112777500D01*
X207575500Y-111252500D01*
X211795000Y-111252500D01*
X213570000Y-111252500D01*
X214070000Y-111252500D01*
X215245000Y-111252500D01*
X215745000Y-111252500D01*
X216920000Y-111252500D01*
X217420000Y-111252500D01*
X219194999Y-111252500D01*
X219194999Y-111158613D01*
X219195000Y-111158592D01*
X219195000Y-110227500D01*
X217420000Y-110227500D01*
X217420000Y-111252500D01*
X216920000Y-111252500D01*
X216920000Y-110227500D01*
X215745000Y-110227500D01*
X215745000Y-111252500D01*
X215245000Y-111252500D01*
X215245000Y-110227500D01*
X214070000Y-110227500D01*
X214070000Y-111252500D01*
X213570000Y-111252500D01*
X213570000Y-110227500D01*
X211795000Y-110227500D01*
X211795000Y-111252500D01*
X207575500Y-111252500D01*
X207575500Y-109847000D01*
X207578050Y-109838314D01*
X207576762Y-109829353D01*
X207587740Y-109805312D01*
X207595185Y-109779961D01*
X207602025Y-109774033D01*
X207605787Y-109765797D01*
X207628021Y-109751507D01*
X207647989Y-109734206D01*
X207658503Y-109731918D01*
X207664565Y-109728023D01*
X207699500Y-109723000D01*
X207780859Y-109723000D01*
X207847898Y-109742685D01*
X207893653Y-109795489D01*
X207897030Y-109803640D01*
X207901204Y-109814831D01*
X207901205Y-109814832D01*
X207901206Y-109814835D01*
X207987452Y-109930044D01*
X207987455Y-109930047D01*
X208102664Y-110016293D01*
X208102671Y-110016297D01*
X208237517Y-110066591D01*
X208237516Y-110066591D01*
X208244444Y-110067335D01*
X208297127Y-110073000D01*
X210092872Y-110072999D01*
X210152483Y-110066591D01*
X210170273Y-110059956D01*
X210287328Y-110016297D01*
X210287327Y-110016297D01*
X210287331Y-110016296D01*
X210402546Y-109930046D01*
X210488796Y-109814831D01*
X210539091Y-109679983D01*
X210545500Y-109620373D01*
X210545499Y-108824628D01*
X210543121Y-108802511D01*
X211795000Y-108802511D01*
X211795000Y-109727500D01*
X213570000Y-109727500D01*
X214070000Y-109727500D01*
X215245000Y-109727500D01*
X215745000Y-109727500D01*
X216920000Y-109727500D01*
X217420000Y-109727500D01*
X219194999Y-109727500D01*
X219194999Y-108802528D01*
X219194998Y-108802513D01*
X219185148Y-108706089D01*
X219184976Y-108702719D01*
X219184505Y-108699800D01*
X219129359Y-108533379D01*
X219129357Y-108533374D01*
X219037316Y-108384153D01*
X218913346Y-108260183D01*
X218764125Y-108168142D01*
X218764120Y-108168140D01*
X218597698Y-108112994D01*
X218494988Y-108102500D01*
X217420000Y-108102500D01*
X217420000Y-109727500D01*
X216920000Y-109727500D01*
X216920000Y-108102500D01*
X215745000Y-108102500D01*
X215745000Y-109727500D01*
X215245000Y-109727500D01*
X215245000Y-108102500D01*
X214070000Y-108102500D01*
X214070000Y-109727500D01*
X213570000Y-109727500D01*
X213570000Y-108102500D01*
X212494197Y-108102500D01*
X212491364Y-108102874D01*
X212392300Y-108112994D01*
X212225879Y-108168140D01*
X212225874Y-108168142D01*
X212076653Y-108260183D01*
X211952683Y-108384153D01*
X211860642Y-108533374D01*
X211860640Y-108533379D01*
X211805494Y-108699801D01*
X211795000Y-108802511D01*
X210543121Y-108802511D01*
X210542446Y-108796235D01*
X210539091Y-108765017D01*
X210488796Y-108630169D01*
X210488795Y-108630168D01*
X210488793Y-108630164D01*
X210402547Y-108514955D01*
X210402544Y-108514952D01*
X210287335Y-108428706D01*
X210287328Y-108428702D01*
X210152483Y-108378409D01*
X210136240Y-108376662D01*
X210071690Y-108349921D01*
X210031844Y-108292527D01*
X210025500Y-108253373D01*
X210025500Y-103824499D01*
X210045185Y-103757460D01*
X210097989Y-103711705D01*
X210149500Y-103700499D01*
X210647871Y-103700499D01*
X210647872Y-103700499D01*
X210707483Y-103694091D01*
X210842331Y-103643796D01*
X210957546Y-103557546D01*
X210957554Y-103557534D01*
X210959090Y-103556000D01*
X210961018Y-103554946D01*
X210964645Y-103552232D01*
X210965035Y-103552753D01*
X211020411Y-103522511D01*
X211090103Y-103527491D01*
X211146039Y-103569359D01*
X211152316Y-103578579D01*
X211207684Y-103668345D01*
X211331654Y-103792315D01*
X211480875Y-103884356D01*
X211480880Y-103884358D01*
X211647302Y-103939505D01*
X211647309Y-103939506D01*
X211750019Y-103949999D01*
X212624999Y-103949999D01*
X213125000Y-103949999D01*
X213999972Y-103949999D01*
X213999986Y-103949998D01*
X214102697Y-103939505D01*
X214269119Y-103884358D01*
X214269124Y-103884356D01*
X214418345Y-103792315D01*
X214542315Y-103668345D01*
X214634356Y-103519124D01*
X214634358Y-103519119D01*
X214689505Y-103352697D01*
X214689506Y-103352690D01*
X214699999Y-103249986D01*
X214700000Y-103249973D01*
X214700000Y-102900000D01*
X213125000Y-102900000D01*
X213125000Y-103949999D01*
X212624999Y-103949999D01*
X212625000Y-103949998D01*
X212625000Y-102400000D01*
X213125000Y-102400000D01*
X214699999Y-102400000D01*
X214699999Y-102050028D01*
X214699998Y-102050013D01*
X214689505Y-101947302D01*
X214634358Y-101780880D01*
X214634356Y-101780875D01*
X214542315Y-101631654D01*
X214418345Y-101507684D01*
X214269124Y-101415643D01*
X214269119Y-101415641D01*
X214102697Y-101360494D01*
X214102690Y-101360493D01*
X213999986Y-101350000D01*
X213125000Y-101350000D01*
X213125000Y-102400000D01*
X212625000Y-102400000D01*
X212625000Y-101350000D01*
X211750028Y-101350000D01*
X211750012Y-101350001D01*
X211647302Y-101360494D01*
X211480880Y-101415641D01*
X211480875Y-101415643D01*
X211331654Y-101507684D01*
X211207683Y-101631655D01*
X211207680Y-101631659D01*
X211152315Y-101721420D01*
X211100367Y-101768145D01*
X211031405Y-101779366D01*
X210967323Y-101751523D01*
X210959096Y-101744004D01*
X210957544Y-101742452D01*
X210842335Y-101656206D01*
X210842328Y-101656202D01*
X210707482Y-101605908D01*
X210707483Y-101605908D01*
X210647883Y-101599501D01*
X210647881Y-101599500D01*
X210647873Y-101599500D01*
X210647865Y-101599500D01*
X210099500Y-101599500D01*
X210032461Y-101579815D01*
X209986706Y-101527011D01*
X209975500Y-101475500D01*
X209975500Y-97399499D01*
X209995185Y-97332460D01*
X210047989Y-97286705D01*
X210099500Y-97275499D01*
X210597871Y-97275499D01*
X210597872Y-97275499D01*
X210657483Y-97269091D01*
X210792331Y-97218796D01*
X210907546Y-97132546D01*
X210907554Y-97132534D01*
X210909090Y-97131000D01*
X210911018Y-97129946D01*
X210914645Y-97127232D01*
X210915035Y-97127753D01*
X210970411Y-97097511D01*
X211040103Y-97102491D01*
X211096039Y-97144359D01*
X211102316Y-97153579D01*
X211157684Y-97243345D01*
X211281654Y-97367315D01*
X211430875Y-97459356D01*
X211430880Y-97459358D01*
X211597302Y-97514505D01*
X211597309Y-97514506D01*
X211700019Y-97524999D01*
X212574999Y-97524999D01*
X213075000Y-97524999D01*
X213949972Y-97524999D01*
X213949986Y-97524998D01*
X214052697Y-97514505D01*
X214219119Y-97459358D01*
X214219124Y-97459356D01*
X214368345Y-97367315D01*
X214492315Y-97243345D01*
X214584356Y-97094124D01*
X214584358Y-97094119D01*
X214639505Y-96927697D01*
X214639506Y-96927690D01*
X214649999Y-96824986D01*
X214650000Y-96824973D01*
X214650000Y-96475000D01*
X213075000Y-96475000D01*
X213075000Y-97524999D01*
X212574999Y-97524999D01*
X212575000Y-97524998D01*
X212575000Y-95975000D01*
X213075000Y-95975000D01*
X214649999Y-95975000D01*
X214649999Y-95625028D01*
X214649998Y-95625013D01*
X214639505Y-95522302D01*
X214584358Y-95355880D01*
X214584356Y-95355875D01*
X214492315Y-95206654D01*
X214368345Y-95082684D01*
X214219124Y-94990643D01*
X214219119Y-94990641D01*
X214052697Y-94935494D01*
X214052690Y-94935493D01*
X213949986Y-94925000D01*
X213075000Y-94925000D01*
X213075000Y-95975000D01*
X212575000Y-95975000D01*
X212575000Y-94925000D01*
X211700028Y-94925000D01*
X211700012Y-94925001D01*
X211597302Y-94935494D01*
X211430880Y-94990641D01*
X211430875Y-94990643D01*
X211281654Y-95082684D01*
X211157683Y-95206655D01*
X211157680Y-95206659D01*
X211102315Y-95296420D01*
X211050367Y-95343145D01*
X210981405Y-95354366D01*
X210917323Y-95326523D01*
X210909096Y-95319004D01*
X210907544Y-95317452D01*
X210792335Y-95231206D01*
X210792328Y-95231202D01*
X210657482Y-95180908D01*
X210657483Y-95180908D01*
X210597883Y-95174501D01*
X210597881Y-95174500D01*
X210597873Y-95174500D01*
X210597865Y-95174500D01*
X210099500Y-95174500D01*
X210032461Y-95154815D01*
X209986706Y-95102011D01*
X209975500Y-95050500D01*
X209975500Y-89055614D01*
X209975500Y-89055612D01*
X209941392Y-88928318D01*
X209875500Y-88814190D01*
X209782314Y-88721004D01*
X205625381Y-84564071D01*
X211699499Y-84564071D01*
X211724497Y-84689738D01*
X211724499Y-84689744D01*
X211773533Y-84808124D01*
X211773538Y-84808133D01*
X211844723Y-84914668D01*
X211844726Y-84914672D01*
X211935327Y-85005273D01*
X211935331Y-85005276D01*
X212041866Y-85076461D01*
X212041872Y-85076464D01*
X212041873Y-85076465D01*
X212160256Y-85125501D01*
X212160260Y-85125501D01*
X212160261Y-85125502D01*
X212285928Y-85150500D01*
X212285931Y-85150500D01*
X212414071Y-85150500D01*
X212498615Y-85133682D01*
X212539744Y-85125501D01*
X212658127Y-85076465D01*
X212764669Y-85005276D01*
X212833127Y-84936817D01*
X212894448Y-84903334D01*
X212920807Y-84900500D01*
X213827725Y-84900500D01*
X213827727Y-84900500D01*
X213929588Y-84873207D01*
X214020913Y-84820480D01*
X216565703Y-82275687D01*
X216565708Y-82275684D01*
X216575911Y-82265480D01*
X216575913Y-82265480D01*
X216650480Y-82190913D01*
X216703207Y-82099587D01*
X216715399Y-82054087D01*
X216730501Y-81997727D01*
X216730501Y-81892273D01*
X216730501Y-81884678D01*
X216730500Y-81884660D01*
X216730500Y-80847042D01*
X216750185Y-80780003D01*
X216798206Y-80736557D01*
X216906786Y-80681233D01*
X216906785Y-80681233D01*
X216906788Y-80681232D01*
X217046928Y-80579414D01*
X217169414Y-80456928D01*
X217271232Y-80316788D01*
X217349873Y-80162445D01*
X217403402Y-79997701D01*
X217430500Y-79826611D01*
X217430500Y-79653389D01*
X217403402Y-79482299D01*
X217349873Y-79317555D01*
X217271232Y-79163212D01*
X217169414Y-79023072D01*
X217046928Y-78900586D01*
X216906788Y-78798768D01*
X216752445Y-78720127D01*
X216587701Y-78666598D01*
X216587699Y-78666597D01*
X216587698Y-78666597D01*
X216456271Y-78645781D01*
X216416611Y-78639500D01*
X216243389Y-78639500D01*
X216203728Y-78645781D01*
X216072302Y-78666597D01*
X215907552Y-78720128D01*
X215753211Y-78798768D01*
X215673256Y-78856859D01*
X215613072Y-78900586D01*
X215613070Y-78900588D01*
X215613069Y-78900588D01*
X215490588Y-79023069D01*
X215490588Y-79023070D01*
X215490586Y-79023072D01*
X215449874Y-79079107D01*
X215388768Y-79163211D01*
X215310128Y-79317552D01*
X215256597Y-79482302D01*
X215229500Y-79653389D01*
X215229500Y-79826611D01*
X215256598Y-79997701D01*
X215310127Y-80162445D01*
X215388768Y-80316788D01*
X215490586Y-80456928D01*
X215613072Y-80579414D01*
X215693494Y-80637844D01*
X215753213Y-80681233D01*
X215861794Y-80736557D01*
X215912591Y-80784531D01*
X215929500Y-80847042D01*
X215929500Y-81727745D01*
X215909815Y-81794784D01*
X215893181Y-81815426D01*
X213645426Y-84063181D01*
X213584103Y-84096666D01*
X213557745Y-84099500D01*
X212920807Y-84099500D01*
X212853768Y-84079815D01*
X212833130Y-84063185D01*
X212764669Y-83994724D01*
X212764668Y-83994723D01*
X212764667Y-83994722D01*
X212658133Y-83923538D01*
X212658124Y-83923533D01*
X212539744Y-83874499D01*
X212539738Y-83874497D01*
X212414071Y-83849500D01*
X212414069Y-83849500D01*
X212285931Y-83849500D01*
X212285929Y-83849500D01*
X212160261Y-83874497D01*
X212160255Y-83874499D01*
X212041875Y-83923533D01*
X212041866Y-83923538D01*
X211935331Y-83994723D01*
X211935327Y-83994726D01*
X211844726Y-84085327D01*
X211844723Y-84085331D01*
X211773538Y-84191866D01*
X211773533Y-84191875D01*
X211724499Y-84310255D01*
X211724497Y-84310261D01*
X211699500Y-84435928D01*
X211699500Y-84435931D01*
X211699500Y-84564069D01*
X211699500Y-84564071D01*
X211699499Y-84564071D01*
X205625381Y-84564071D01*
X205611819Y-84550509D01*
X205597115Y-84523581D01*
X205580523Y-84497763D01*
X205579631Y-84491562D01*
X205578334Y-84489186D01*
X205575500Y-84462828D01*
X205575500Y-78683676D01*
X205595185Y-78616637D01*
X205611819Y-78595995D01*
X206470995Y-77736819D01*
X206532318Y-77703334D01*
X206558676Y-77700500D01*
X207653910Y-77700500D01*
X207720949Y-77720185D01*
X207764393Y-77768202D01*
X207768765Y-77776783D01*
X207768770Y-77776792D01*
X207811100Y-77835053D01*
X207870586Y-77916928D01*
X207993072Y-78039414D01*
X208133212Y-78141232D01*
X208156213Y-78152951D01*
X208161244Y-78155515D01*
X208212040Y-78203490D01*
X208228835Y-78271311D01*
X208206297Y-78337446D01*
X208151582Y-78380897D01*
X208104949Y-78390000D01*
X207812155Y-78390000D01*
X207752627Y-78396401D01*
X207752620Y-78396403D01*
X207617913Y-78446645D01*
X207617906Y-78446649D01*
X207502812Y-78532809D01*
X207502809Y-78532812D01*
X207416649Y-78647906D01*
X207416645Y-78647913D01*
X207366403Y-78782620D01*
X207366401Y-78782627D01*
X207360000Y-78842155D01*
X207360000Y-79490000D01*
X208276988Y-79490000D01*
X208244075Y-79547007D01*
X208210000Y-79674174D01*
X208210000Y-79805826D01*
X208244075Y-79932993D01*
X208276988Y-79990000D01*
X207360000Y-79990000D01*
X207360000Y-80637844D01*
X207366401Y-80697372D01*
X207366403Y-80697379D01*
X207416645Y-80832086D01*
X207416649Y-80832093D01*
X207502809Y-80947187D01*
X207502812Y-80947190D01*
X207617906Y-81033350D01*
X207617913Y-81033354D01*
X207752620Y-81083596D01*
X207752627Y-81083598D01*
X207812155Y-81089999D01*
X207812172Y-81090000D01*
X208460000Y-81090000D01*
X208460000Y-80173012D01*
X208517007Y-80205925D01*
X208644174Y-80240000D01*
X208775826Y-80240000D01*
X208902993Y-80205925D01*
X208960000Y-80173012D01*
X208960000Y-81090000D01*
X209607828Y-81090000D01*
X209607844Y-81089999D01*
X209667372Y-81083598D01*
X209667379Y-81083596D01*
X209802086Y-81033354D01*
X209802093Y-81033350D01*
X209917187Y-80947190D01*
X209917190Y-80947187D01*
X210003350Y-80832093D01*
X210003354Y-80832086D01*
X210053596Y-80697379D01*
X210053598Y-80697372D01*
X210059999Y-80637844D01*
X210060000Y-80637827D01*
X210060000Y-80345050D01*
X210079685Y-80278011D01*
X210132489Y-80232256D01*
X210201647Y-80222312D01*
X210265203Y-80251337D01*
X210294485Y-80288756D01*
X210308766Y-80316786D01*
X210339357Y-80358890D01*
X210410586Y-80456928D01*
X210533072Y-80579414D01*
X210673212Y-80681232D01*
X210827555Y-80759873D01*
X210992299Y-80813402D01*
X211163389Y-80840500D01*
X211163390Y-80840500D01*
X211336610Y-80840500D01*
X211336611Y-80840500D01*
X211507701Y-80813402D01*
X211672445Y-80759873D01*
X211826788Y-80681232D01*
X211966928Y-80579414D01*
X212089414Y-80456928D01*
X212191232Y-80316788D01*
X212269873Y-80162445D01*
X212323402Y-79997701D01*
X212350500Y-79826611D01*
X212350500Y-79653389D01*
X212689500Y-79653389D01*
X212689500Y-79826611D01*
X212716598Y-79997701D01*
X212770127Y-80162445D01*
X212848768Y-80316788D01*
X212950586Y-80456928D01*
X213073072Y-80579414D01*
X213213212Y-80681232D01*
X213367555Y-80759873D01*
X213532299Y-80813402D01*
X213703389Y-80840500D01*
X213703390Y-80840500D01*
X213876610Y-80840500D01*
X213876611Y-80840500D01*
X214047701Y-80813402D01*
X214212445Y-80759873D01*
X214366788Y-80681232D01*
X214506928Y-80579414D01*
X214629414Y-80456928D01*
X214731232Y-80316788D01*
X214809873Y-80162445D01*
X214863402Y-79997701D01*
X214890500Y-79826611D01*
X214890500Y-79653389D01*
X214863402Y-79482299D01*
X214809873Y-79317555D01*
X214731232Y-79163212D01*
X214629414Y-79023072D01*
X214506928Y-78900586D01*
X214366788Y-78798768D01*
X214212445Y-78720127D01*
X214047701Y-78666598D01*
X214047699Y-78666597D01*
X214047698Y-78666597D01*
X213916271Y-78645781D01*
X213876611Y-78639500D01*
X213703389Y-78639500D01*
X213663728Y-78645781D01*
X213532302Y-78666597D01*
X213367552Y-78720128D01*
X213213211Y-78798768D01*
X213133256Y-78856859D01*
X213073072Y-78900586D01*
X213073070Y-78900588D01*
X213073069Y-78900588D01*
X212950588Y-79023069D01*
X212950588Y-79023070D01*
X212950586Y-79023072D01*
X212909874Y-79079107D01*
X212848768Y-79163211D01*
X212770128Y-79317552D01*
X212716597Y-79482302D01*
X212689500Y-79653389D01*
X212350500Y-79653389D01*
X212323402Y-79482299D01*
X212269873Y-79317555D01*
X212191232Y-79163212D01*
X212089414Y-79023072D01*
X211966928Y-78900586D01*
X211826788Y-78798768D01*
X211672445Y-78720127D01*
X211507701Y-78666598D01*
X211507699Y-78666597D01*
X211507698Y-78666597D01*
X211376271Y-78645781D01*
X211336611Y-78639500D01*
X211163389Y-78639500D01*
X211123728Y-78645781D01*
X210992302Y-78666597D01*
X210827552Y-78720128D01*
X210673211Y-78798768D01*
X210593256Y-78856859D01*
X210533072Y-78900586D01*
X210533070Y-78900588D01*
X210533069Y-78900588D01*
X210410588Y-79023069D01*
X210410588Y-79023070D01*
X210410586Y-79023072D01*
X210369874Y-79079107D01*
X210308768Y-79163211D01*
X210294485Y-79191244D01*
X210246510Y-79242040D01*
X210178689Y-79258835D01*
X210112554Y-79236297D01*
X210069103Y-79181582D01*
X210060000Y-79134949D01*
X210060000Y-78842172D01*
X210059999Y-78842155D01*
X210053598Y-78782627D01*
X210053596Y-78782620D01*
X210003354Y-78647913D01*
X210003350Y-78647906D01*
X209917190Y-78532812D01*
X209917187Y-78532809D01*
X209802093Y-78446649D01*
X209802086Y-78446645D01*
X209667379Y-78396403D01*
X209667372Y-78396401D01*
X209607844Y-78390000D01*
X209315051Y-78390000D01*
X209248012Y-78370315D01*
X209202257Y-78317511D01*
X209192313Y-78248353D01*
X209221338Y-78184797D01*
X209258756Y-78155515D01*
X209261471Y-78154131D01*
X209286788Y-78141232D01*
X209426928Y-78039414D01*
X209549414Y-77916928D01*
X209651232Y-77776788D01*
X209729873Y-77622445D01*
X209783402Y-77457701D01*
X209810500Y-77286611D01*
X209810500Y-77113389D01*
X210149500Y-77113389D01*
X210149500Y-77286611D01*
X210176598Y-77457701D01*
X210230127Y-77622445D01*
X210308768Y-77776788D01*
X210410586Y-77916928D01*
X210533072Y-78039414D01*
X210673212Y-78141232D01*
X210827555Y-78219873D01*
X210992299Y-78273402D01*
X211163389Y-78300500D01*
X211163390Y-78300500D01*
X211336610Y-78300500D01*
X211336611Y-78300500D01*
X211507701Y-78273402D01*
X211672445Y-78219873D01*
X211826788Y-78141232D01*
X211966928Y-78039414D01*
X212089414Y-77916928D01*
X212191232Y-77776788D01*
X212269873Y-77622445D01*
X212323402Y-77457701D01*
X212350500Y-77286611D01*
X212350500Y-77113389D01*
X212323402Y-76942299D01*
X212269873Y-76777555D01*
X212191232Y-76623212D01*
X212089414Y-76483072D01*
X211966928Y-76360586D01*
X211826788Y-76258768D01*
X211672445Y-76180127D01*
X211507701Y-76126598D01*
X211507699Y-76126597D01*
X211507698Y-76126597D01*
X211376271Y-76105781D01*
X211336611Y-76099500D01*
X211163389Y-76099500D01*
X211123728Y-76105781D01*
X210992302Y-76126597D01*
X210827552Y-76180128D01*
X210673211Y-76258768D01*
X210593256Y-76316859D01*
X210533072Y-76360586D01*
X210533070Y-76360588D01*
X210533069Y-76360588D01*
X210410588Y-76483069D01*
X210410588Y-76483070D01*
X210410586Y-76483072D01*
X210366859Y-76543256D01*
X210308768Y-76623211D01*
X210230128Y-76777552D01*
X210176597Y-76942302D01*
X210158799Y-77054676D01*
X210149500Y-77113389D01*
X209810500Y-77113389D01*
X209783402Y-76942299D01*
X209729873Y-76777555D01*
X209651232Y-76623212D01*
X209549414Y-76483072D01*
X209426928Y-76360586D01*
X209286788Y-76258768D01*
X209132445Y-76180127D01*
X208967701Y-76126598D01*
X208967699Y-76126597D01*
X208967698Y-76126597D01*
X208836271Y-76105781D01*
X208796611Y-76099500D01*
X208623389Y-76099500D01*
X208583728Y-76105781D01*
X208452302Y-76126597D01*
X208287552Y-76180128D01*
X208133211Y-76258768D01*
X208053256Y-76316859D01*
X207993072Y-76360586D01*
X207993070Y-76360588D01*
X207993069Y-76360588D01*
X207870588Y-76483069D01*
X207870588Y-76483070D01*
X207870586Y-76483072D01*
X207845040Y-76518232D01*
X207768770Y-76623207D01*
X207768765Y-76623216D01*
X207764393Y-76631798D01*
X207716418Y-76682592D01*
X207653910Y-76699500D01*
X206234108Y-76699500D01*
X206106812Y-76733608D01*
X205992686Y-76799500D01*
X205992683Y-76799502D01*
X204674502Y-78117683D01*
X204674500Y-78117686D01*
X204608608Y-78231812D01*
X204590993Y-78297555D01*
X204574500Y-78359108D01*
X203948349Y-78359108D01*
X206048689Y-76258768D01*
X208720637Y-73586819D01*
X208781960Y-73553334D01*
X208808318Y-73550500D01*
X211532745Y-73550500D01*
X211599784Y-73570185D01*
X211620426Y-73586819D01*
X213353181Y-75319573D01*
X213386666Y-75380896D01*
X213389500Y-75407254D01*
X213389500Y-76092958D01*
X213369815Y-76159997D01*
X213321794Y-76203443D01*
X213213213Y-76258766D01*
X213115174Y-76329996D01*
X213073072Y-76360586D01*
X213073070Y-76360588D01*
X213073069Y-76360588D01*
X212950588Y-76483069D01*
X212950588Y-76483070D01*
X212950586Y-76483072D01*
X212906859Y-76543256D01*
X212848768Y-76623211D01*
X212770128Y-76777552D01*
X212716597Y-76942302D01*
X212698799Y-77054676D01*
X212689500Y-77113389D01*
X212689500Y-77286611D01*
X212716598Y-77457701D01*
X212770127Y-77622445D01*
X212848768Y-77776788D01*
X212950586Y-77916928D01*
X213073072Y-78039414D01*
X213213212Y-78141232D01*
X213367555Y-78219873D01*
X213532299Y-78273402D01*
X213703389Y-78300500D01*
X213703390Y-78300500D01*
X213876610Y-78300500D01*
X213876611Y-78300500D01*
X214047701Y-78273402D01*
X214212445Y-78219873D01*
X214366788Y-78141232D01*
X214506928Y-78039414D01*
X214629414Y-77916928D01*
X214731232Y-77776788D01*
X214809873Y-77622445D01*
X214863402Y-77457701D01*
X214890500Y-77286611D01*
X214890500Y-77113389D01*
X215229500Y-77113389D01*
X215229500Y-77286611D01*
X215256598Y-77457701D01*
X215310127Y-77622445D01*
X215388768Y-77776788D01*
X215490586Y-77916928D01*
X215613072Y-78039414D01*
X215753212Y-78141232D01*
X215907555Y-78219873D01*
X216072299Y-78273402D01*
X216243389Y-78300500D01*
X216243390Y-78300500D01*
X216416610Y-78300500D01*
X216416611Y-78300500D01*
X216587701Y-78273402D01*
X216752445Y-78219873D01*
X216906788Y-78141232D01*
X217046928Y-78039414D01*
X217169414Y-77916928D01*
X217271232Y-77776788D01*
X217349873Y-77622445D01*
X217403402Y-77457701D01*
X217430500Y-77286611D01*
X217430500Y-77113389D01*
X217403402Y-76942299D01*
X217349873Y-76777555D01*
X217271232Y-76623212D01*
X217169414Y-76483072D01*
X217046928Y-76360586D01*
X216906788Y-76258768D01*
X216752445Y-76180127D01*
X216587701Y-76126598D01*
X216587699Y-76126597D01*
X216587698Y-76126597D01*
X216456271Y-76105781D01*
X216416611Y-76099500D01*
X216243389Y-76099500D01*
X216203728Y-76105781D01*
X216072302Y-76126597D01*
X215907552Y-76180128D01*
X215753211Y-76258768D01*
X215673256Y-76316859D01*
X215613072Y-76360586D01*
X215613070Y-76360588D01*
X215613069Y-76360588D01*
X215490588Y-76483069D01*
X215490588Y-76483070D01*
X215490586Y-76483072D01*
X215446859Y-76543256D01*
X215388768Y-76623211D01*
X215310128Y-76777552D01*
X215256597Y-76942302D01*
X215238799Y-77054676D01*
X215229500Y-77113389D01*
X214890500Y-77113389D01*
X214863402Y-76942299D01*
X214809873Y-76777555D01*
X214731232Y-76623212D01*
X214629414Y-76483072D01*
X214506928Y-76360586D01*
X214436858Y-76309677D01*
X214366786Y-76258766D01*
X214258206Y-76203443D01*
X214207409Y-76155469D01*
X214190500Y-76092958D01*
X214190500Y-75252729D01*
X214190501Y-75252716D01*
X214190501Y-75137274D01*
X214190501Y-75137273D01*
X214163207Y-75035413D01*
X214110480Y-74944087D01*
X214035913Y-74869520D01*
X214035912Y-74869519D01*
X214031582Y-74865189D01*
X214031571Y-74865179D01*
X211995915Y-72829522D01*
X211995914Y-72829521D01*
X211995913Y-72829520D01*
X211950250Y-72803156D01*
X211904589Y-72776793D01*
X211853657Y-72763146D01*
X211802727Y-72749500D01*
X211802726Y-72749500D01*
X208651403Y-72749500D01*
X208651387Y-72749499D01*
X208643791Y-72749499D01*
X208538337Y-72749499D01*
X208470430Y-72767695D01*
X208436476Y-72776793D01*
X208345148Y-72829522D01*
X202891490Y-78283181D01*
X202830167Y-78316666D01*
X202803809Y-78319500D01*
X202027042Y-78319500D01*
X201960003Y-78299815D01*
X201916557Y-78251794D01*
X201861233Y-78143213D01*
X201842684Y-78117683D01*
X201759414Y-78003072D01*
X201636928Y-77880586D01*
X201496788Y-77778768D01*
X201468756Y-77764485D01*
X201417960Y-77716510D01*
X201401165Y-77648689D01*
X201423703Y-77582554D01*
X201478418Y-77539103D01*
X201525051Y-77530000D01*
X201817828Y-77530000D01*
X201817844Y-77529999D01*
X201877372Y-77523598D01*
X201877379Y-77523596D01*
X202012086Y-77473354D01*
X202012093Y-77473350D01*
X202127187Y-77387190D01*
X202127190Y-77387187D01*
X202213350Y-77272093D01*
X202213354Y-77272086D01*
X202263596Y-77137379D01*
X202263598Y-77137372D01*
X202269999Y-77077844D01*
X202270000Y-77077827D01*
X202270000Y-76430000D01*
X201353012Y-76430000D01*
X201385925Y-76372993D01*
X201420000Y-76245826D01*
X201420000Y-76114174D01*
X201385925Y-75987007D01*
X201353012Y-75930000D01*
X202270000Y-75930000D01*
X202270000Y-75282172D01*
X202269999Y-75282155D01*
X202263598Y-75222627D01*
X202263596Y-75222620D01*
X202213354Y-75087913D01*
X202213350Y-75087906D01*
X202127190Y-74972812D01*
X202127187Y-74972809D01*
X202012093Y-74886649D01*
X202012086Y-74886645D01*
X201877379Y-74836403D01*
X201877372Y-74836401D01*
X201817844Y-74830000D01*
X201170000Y-74830000D01*
X201170000Y-75746988D01*
X201112993Y-75714075D01*
X200985826Y-75680000D01*
X200854174Y-75680000D01*
X200727007Y-75714075D01*
X200670000Y-75746988D01*
X200670000Y-74830000D01*
X200022155Y-74830000D01*
X199962627Y-74836401D01*
X199962620Y-74836403D01*
X199827913Y-74886645D01*
X199827906Y-74886649D01*
X199712812Y-74972809D01*
X199712809Y-74972812D01*
X199626649Y-75087906D01*
X199626645Y-75087913D01*
X199576403Y-75222620D01*
X199576401Y-75222627D01*
X199570000Y-75282155D01*
X189998548Y-75282155D01*
X186585915Y-71869522D01*
X186585913Y-71869520D01*
X186540250Y-71843156D01*
X186494589Y-71816793D01*
X186443657Y-71803146D01*
X186392727Y-71789500D01*
X186392726Y-71789500D01*
X184132254Y-71789500D01*
X184065215Y-71769815D01*
X184044573Y-71753181D01*
X182276886Y-69985494D01*
X180500913Y-68209520D01*
X180455250Y-68183156D01*
X180409589Y-68156793D01*
X180358657Y-68143146D01*
X180307727Y-68129500D01*
X173347727Y-68129500D01*
X173242273Y-68129500D01*
X173140410Y-68156793D01*
X173049087Y-68209520D01*
X173049084Y-68209522D01*
X170254522Y-71004084D01*
X170254518Y-71004090D01*
X170201792Y-71095412D01*
X170201793Y-71095413D01*
X170174500Y-71197273D01*
X170174500Y-79027745D01*
X170154815Y-79094784D01*
X170138181Y-79115426D01*
X167390426Y-81863181D01*
X167329103Y-81896666D01*
X167302745Y-81899500D01*
X159317255Y-81899500D01*
X159287814Y-81890855D01*
X159257828Y-81884332D01*
X159252812Y-81880577D01*
X159250216Y-81879815D01*
X159229574Y-81863181D01*
X159081819Y-81715426D01*
X159048334Y-81654103D01*
X159045500Y-81627745D01*
X159045500Y-80847042D01*
X159065185Y-80780003D01*
X159113206Y-80736557D01*
X159221786Y-80681233D01*
X159221785Y-80681233D01*
X159221788Y-80681232D01*
X159361928Y-80579414D01*
X159484414Y-80456928D01*
X159586232Y-80316788D01*
X159664873Y-80162445D01*
X159718402Y-79997701D01*
X159745500Y-79826611D01*
X159745500Y-79653389D01*
X160084500Y-79653389D01*
X160084500Y-79826611D01*
X160111598Y-79997701D01*
X160165127Y-80162445D01*
X160243768Y-80316788D01*
X160345586Y-80456928D01*
X160468072Y-80579414D01*
X160608212Y-80681232D01*
X160762555Y-80759873D01*
X160927299Y-80813402D01*
X161098389Y-80840500D01*
X161098390Y-80840500D01*
X161271610Y-80840500D01*
X161271611Y-80840500D01*
X161442701Y-80813402D01*
X161607445Y-80759873D01*
X161761788Y-80681232D01*
X161901928Y-80579414D01*
X162024414Y-80456928D01*
X162126232Y-80316788D01*
X162204873Y-80162445D01*
X162258402Y-79997701D01*
X162285500Y-79826611D01*
X162285500Y-79653389D01*
X162624500Y-79653389D01*
X162624500Y-79826611D01*
X162651598Y-79997701D01*
X162705127Y-80162445D01*
X162783768Y-80316788D01*
X162885586Y-80456928D01*
X163008072Y-80579414D01*
X163148212Y-80681232D01*
X163302555Y-80759873D01*
X163467299Y-80813402D01*
X163638389Y-80840500D01*
X163638390Y-80840500D01*
X163811610Y-80840500D01*
X163811611Y-80840500D01*
X163982701Y-80813402D01*
X164147445Y-80759873D01*
X164301788Y-80681232D01*
X164441928Y-80579414D01*
X164564414Y-80456928D01*
X164666232Y-80316788D01*
X164744873Y-80162445D01*
X164798402Y-79997701D01*
X164825500Y-79826611D01*
X164825500Y-79653389D01*
X164798402Y-79482299D01*
X164744873Y-79317555D01*
X164666232Y-79163212D01*
X164564414Y-79023072D01*
X164441928Y-78900586D01*
X164301788Y-78798768D01*
X164147445Y-78720127D01*
X163982701Y-78666598D01*
X163982699Y-78666597D01*
X163982698Y-78666597D01*
X163851271Y-78645781D01*
X163811611Y-78639500D01*
X163638389Y-78639500D01*
X163598728Y-78645781D01*
X163467302Y-78666597D01*
X163302552Y-78720128D01*
X163148211Y-78798768D01*
X163068256Y-78856859D01*
X163008072Y-78900586D01*
X163008070Y-78900588D01*
X163008069Y-78900588D01*
X162885588Y-79023069D01*
X162885588Y-79023070D01*
X162885586Y-79023072D01*
X162844874Y-79079107D01*
X162783768Y-79163211D01*
X162705128Y-79317552D01*
X162651597Y-79482302D01*
X162624500Y-79653389D01*
X162285500Y-79653389D01*
X162258402Y-79482299D01*
X162204873Y-79317555D01*
X162126232Y-79163212D01*
X162024414Y-79023072D01*
X161901928Y-78900586D01*
X161761788Y-78798768D01*
X161607445Y-78720127D01*
X161442701Y-78666598D01*
X161442699Y-78666597D01*
X161442698Y-78666597D01*
X161311271Y-78645781D01*
X161271611Y-78639500D01*
X161098389Y-78639500D01*
X161058728Y-78645781D01*
X160927302Y-78666597D01*
X160762552Y-78720128D01*
X160608211Y-78798768D01*
X160528256Y-78856859D01*
X160468072Y-78900586D01*
X160468070Y-78900588D01*
X160468069Y-78900588D01*
X160345588Y-79023069D01*
X160345588Y-79023070D01*
X160345586Y-79023072D01*
X160304874Y-79079107D01*
X160243768Y-79163211D01*
X160165128Y-79317552D01*
X160111597Y-79482302D01*
X160084500Y-79653389D01*
X159745500Y-79653389D01*
X159718402Y-79482299D01*
X159664873Y-79317555D01*
X159586232Y-79163212D01*
X159484414Y-79023072D01*
X159361928Y-78900586D01*
X159221788Y-78798768D01*
X159067445Y-78720127D01*
X158902701Y-78666598D01*
X158902699Y-78666597D01*
X158902698Y-78666597D01*
X158771271Y-78645781D01*
X158731611Y-78639500D01*
X158558389Y-78639500D01*
X158518728Y-78645781D01*
X158387302Y-78666597D01*
X158222552Y-78720128D01*
X158068211Y-78798768D01*
X157988256Y-78856859D01*
X157928072Y-78900586D01*
X157928070Y-78900588D01*
X157928069Y-78900588D01*
X157805588Y-79023069D01*
X157805588Y-79023070D01*
X157805586Y-79023072D01*
X157764874Y-79079107D01*
X157703768Y-79163211D01*
X157689485Y-79191244D01*
X157641510Y-79242040D01*
X157573689Y-79258835D01*
X157507554Y-79236297D01*
X157464103Y-79181582D01*
X157455000Y-79134949D01*
X157455000Y-78842172D01*
X157454999Y-78842155D01*
X157448598Y-78782627D01*
X157448596Y-78782620D01*
X157398354Y-78647913D01*
X157398350Y-78647906D01*
X157312190Y-78532812D01*
X157312187Y-78532809D01*
X157197093Y-78446649D01*
X157197086Y-78446645D01*
X157062379Y-78396403D01*
X157062372Y-78396401D01*
X157002844Y-78390000D01*
X156710051Y-78390000D01*
X156643012Y-78370315D01*
X156597257Y-78317511D01*
X156587313Y-78248353D01*
X156616338Y-78184797D01*
X156653756Y-78155515D01*
X156656471Y-78154131D01*
X156681788Y-78141232D01*
X156821928Y-78039414D01*
X156944414Y-77916928D01*
X157046232Y-77776788D01*
X157124873Y-77622445D01*
X157178402Y-77457701D01*
X157205500Y-77286611D01*
X157205500Y-77113389D01*
X157544500Y-77113389D01*
X157544500Y-77286611D01*
X157571598Y-77457701D01*
X157625127Y-77622445D01*
X157703768Y-77776788D01*
X157805586Y-77916928D01*
X157928072Y-78039414D01*
X158068212Y-78141232D01*
X158222555Y-78219873D01*
X158387299Y-78273402D01*
X158558389Y-78300500D01*
X158558390Y-78300500D01*
X158731610Y-78300500D01*
X158731611Y-78300500D01*
X158902701Y-78273402D01*
X159067445Y-78219873D01*
X159221788Y-78141232D01*
X159361928Y-78039414D01*
X159484414Y-77916928D01*
X159586232Y-77776788D01*
X159664873Y-77622445D01*
X159718402Y-77457701D01*
X159745500Y-77286611D01*
X159745500Y-77113389D01*
X159718402Y-76942299D01*
X159664873Y-76777555D01*
X159586232Y-76623212D01*
X159484414Y-76483072D01*
X159361928Y-76360586D01*
X159221788Y-76258768D01*
X159067445Y-76180127D01*
X158902701Y-76126598D01*
X158902699Y-76126597D01*
X158902698Y-76126597D01*
X158771271Y-76105781D01*
X158731611Y-76099500D01*
X158558389Y-76099500D01*
X158518728Y-76105781D01*
X158387302Y-76126597D01*
X158222552Y-76180128D01*
X158068211Y-76258768D01*
X157988256Y-76316859D01*
X157928072Y-76360586D01*
X157928070Y-76360588D01*
X157928069Y-76360588D01*
X157805588Y-76483069D01*
X157805588Y-76483070D01*
X157805586Y-76483072D01*
X157761859Y-76543256D01*
X157703768Y-76623211D01*
X157625128Y-76777552D01*
X157571597Y-76942302D01*
X157553799Y-77054676D01*
X157544500Y-77113389D01*
X157205500Y-77113389D01*
X157178402Y-76942299D01*
X157124873Y-76777555D01*
X157046232Y-76623212D01*
X156944414Y-76483072D01*
X156821928Y-76360586D01*
X156681788Y-76258768D01*
X156527445Y-76180127D01*
X156362701Y-76126598D01*
X156362699Y-76126597D01*
X156362698Y-76126597D01*
X156231271Y-76105781D01*
X156191611Y-76099500D01*
X156018389Y-76099500D01*
X155978728Y-76105781D01*
X155847302Y-76126597D01*
X155682552Y-76180128D01*
X155528211Y-76258768D01*
X155448256Y-76316859D01*
X155388072Y-76360586D01*
X155388070Y-76360588D01*
X155388069Y-76360588D01*
X155265588Y-76483069D01*
X155265588Y-76483070D01*
X155265586Y-76483072D01*
X155221859Y-76543256D01*
X155163768Y-76623211D01*
X155085128Y-76777552D01*
X155031597Y-76942302D01*
X155013799Y-77054676D01*
X155004500Y-77113389D01*
X155004500Y-77286611D01*
X155031598Y-77457701D01*
X155085127Y-77622445D01*
X155163768Y-77776788D01*
X155265586Y-77916928D01*
X155388072Y-78039414D01*
X155528212Y-78141232D01*
X155551213Y-78152951D01*
X155556244Y-78155515D01*
X155607040Y-78203490D01*
X155623835Y-78271311D01*
X155601297Y-78337446D01*
X155546582Y-78380897D01*
X155499949Y-78390000D01*
X155207155Y-78390000D01*
X155147627Y-78396401D01*
X155147620Y-78396403D01*
X155012913Y-78446645D01*
X155012906Y-78446649D01*
X154897812Y-78532809D01*
X154897809Y-78532812D01*
X154811649Y-78647906D01*
X154811645Y-78647913D01*
X154761403Y-78782620D01*
X154761401Y-78782627D01*
X154755000Y-78842155D01*
X154755000Y-79490000D01*
X155671988Y-79490000D01*
X155639075Y-79547007D01*
X155605000Y-79674174D01*
X155605000Y-79805826D01*
X155639075Y-79932993D01*
X155671988Y-79990000D01*
X154755000Y-79990000D01*
X154755000Y-80637844D01*
X154761401Y-80697372D01*
X154761403Y-80697379D01*
X154811645Y-80832086D01*
X154811649Y-80832093D01*
X154897809Y-80947187D01*
X154897812Y-80947190D01*
X155012906Y-81033350D01*
X155012913Y-81033354D01*
X155147620Y-81083596D01*
X155147627Y-81083598D01*
X155207155Y-81089999D01*
X155207172Y-81090000D01*
X155855000Y-81090000D01*
X155855000Y-80173012D01*
X155912007Y-80205925D01*
X156039174Y-80240000D01*
X156170826Y-80240000D01*
X156297993Y-80205925D01*
X156355000Y-80173012D01*
X156355000Y-81090000D01*
X157002828Y-81090000D01*
X157002844Y-81089999D01*
X157062372Y-81083598D01*
X157062379Y-81083596D01*
X157197086Y-81033354D01*
X157197093Y-81033350D01*
X157312187Y-80947190D01*
X157312190Y-80947187D01*
X157398350Y-80832093D01*
X157398354Y-80832086D01*
X157448596Y-80697379D01*
X157448598Y-80697372D01*
X157454999Y-80637844D01*
X157455000Y-80637827D01*
X157455000Y-80345050D01*
X157474685Y-80278011D01*
X157527489Y-80232256D01*
X157596647Y-80222312D01*
X157660203Y-80251337D01*
X157689485Y-80288756D01*
X157703766Y-80316786D01*
X157734357Y-80358890D01*
X157805586Y-80456928D01*
X157928072Y-80579414D01*
X158008494Y-80637844D01*
X158068213Y-80681233D01*
X158176794Y-80736557D01*
X158227591Y-80784531D01*
X158244500Y-80847042D01*
X158244500Y-81897726D01*
X158271793Y-81999589D01*
X158290387Y-82031793D01*
X158324520Y-82090913D01*
X158854087Y-82620480D01*
X158945412Y-82673207D01*
X159047273Y-82700500D01*
X163186159Y-82700500D01*
X163253198Y-82720185D01*
X163298953Y-82772989D01*
X163308897Y-82842147D01*
X163300720Y-82871953D01*
X163274499Y-82935255D01*
X163274497Y-82935261D01*
X163249500Y-83060928D01*
X163249500Y-83060931D01*
X163249500Y-83189069D01*
X163249500Y-83189071D01*
X163249499Y-83189071D01*
X163274497Y-83314738D01*
X163274499Y-83314744D01*
X163323533Y-83433124D01*
X163323538Y-83433133D01*
X163394722Y-83539667D01*
X163394723Y-83539668D01*
X163394724Y-83539669D01*
X163463182Y-83608127D01*
X163496666Y-83669448D01*
X163499500Y-83695807D01*
X163499500Y-88327726D01*
X163526793Y-88429589D01*
X163542938Y-88457552D01*
X163579520Y-88520913D01*
X163579522Y-88520915D01*
X171363181Y-96304574D01*
X171396666Y-96365897D01*
X171399500Y-96392255D01*
X171399500Y-106427726D01*
X171426793Y-106529589D01*
X171452082Y-106573389D01*
X171479520Y-106620913D01*
X171839087Y-106980480D01*
X171930412Y-107033207D01*
X172032273Y-107060500D01*
X172137727Y-107060500D01*
X173772958Y-107060500D01*
X173839997Y-107080185D01*
X173883443Y-107128206D01*
X173938766Y-107236786D01*
X173969357Y-107278890D01*
X174040586Y-107376928D01*
X174163072Y-107499414D01*
X174303212Y-107601232D01*
X174457555Y-107679873D01*
X174460708Y-107680897D01*
X174461752Y-107681611D01*
X174462048Y-107681734D01*
X174462022Y-107681795D01*
X174518383Y-107720330D01*
X174545585Y-107784688D01*
X174533674Y-107853535D01*
X174486433Y-107905013D01*
X174460712Y-107916760D01*
X174361783Y-107948904D01*
X174172442Y-108045379D01*
X174000540Y-108170272D01*
X174000535Y-108170276D01*
X173850276Y-108320535D01*
X173850272Y-108320540D01*
X173725379Y-108492442D01*
X173628904Y-108681782D01*
X173563242Y-108883870D01*
X173563242Y-108883873D01*
X173552769Y-108950000D01*
X174446988Y-108950000D01*
X174414075Y-109007007D01*
X174380000Y-109134174D01*
X174380000Y-109265826D01*
X174414075Y-109392993D01*
X174446988Y-109450000D01*
X173552769Y-109450000D01*
X173563242Y-109516126D01*
X173563242Y-109516129D01*
X173628904Y-109718217D01*
X173725379Y-109907557D01*
X173850272Y-110079459D01*
X173850276Y-110079464D01*
X174000535Y-110229723D01*
X174000540Y-110229727D01*
X174172442Y-110354620D01*
X174361784Y-110451096D01*
X174460711Y-110483239D01*
X174518387Y-110522676D01*
X174545586Y-110587034D01*
X174533672Y-110655881D01*
X174486428Y-110707357D01*
X174460722Y-110719097D01*
X174459522Y-110719487D01*
X174457550Y-110720128D01*
X174303211Y-110798768D01*
X174223256Y-110856859D01*
X174163072Y-110900586D01*
X174163070Y-110900588D01*
X174163069Y-110900588D01*
X174040588Y-111023069D01*
X174040588Y-111023070D01*
X174040586Y-111023072D01*
X174009996Y-111065174D01*
X173938766Y-111163213D01*
X173883443Y-111271794D01*
X173835469Y-111322591D01*
X173772958Y-111339500D01*
X172277255Y-111339500D01*
X172210216Y-111319815D01*
X172189574Y-111303181D01*
X170811819Y-109925426D01*
X170778334Y-109864103D01*
X170775500Y-109837745D01*
X170775500Y-97247275D01*
X170775499Y-97247271D01*
X170774447Y-97243345D01*
X170753478Y-97165084D01*
X170748207Y-97145412D01*
X170695480Y-97054087D01*
X155725913Y-82084520D01*
X155673202Y-82054087D01*
X155634589Y-82031793D01*
X155583657Y-82018146D01*
X155532727Y-82004500D01*
X155532726Y-82004500D01*
X152249500Y-82004500D01*
X152182461Y-81984815D01*
X152136706Y-81932011D01*
X152125500Y-81880500D01*
X152125500Y-75324500D01*
X152145185Y-75257461D01*
X152197989Y-75211706D01*
X152249500Y-75200500D01*
X160232745Y-75200500D01*
X160299784Y-75220185D01*
X160320426Y-75236819D01*
X160748181Y-75664574D01*
X160781666Y-75725897D01*
X160784500Y-75752255D01*
X160784500Y-76092958D01*
X160764815Y-76159997D01*
X160716794Y-76203443D01*
X160608213Y-76258766D01*
X160510174Y-76329996D01*
X160468072Y-76360586D01*
X160468070Y-76360588D01*
X160468069Y-76360588D01*
X160345588Y-76483069D01*
X160345588Y-76483070D01*
X160345586Y-76483072D01*
X160301859Y-76543256D01*
X160243768Y-76623211D01*
X160165128Y-76777552D01*
X160111597Y-76942302D01*
X160093799Y-77054676D01*
X160084500Y-77113389D01*
X160084500Y-77286611D01*
X160111598Y-77457701D01*
X160165127Y-77622445D01*
X160243768Y-77776788D01*
X160345586Y-77916928D01*
X160468072Y-78039414D01*
X160608212Y-78141232D01*
X160762555Y-78219873D01*
X160927299Y-78273402D01*
X161098389Y-78300500D01*
X161098390Y-78300500D01*
X161271610Y-78300500D01*
X161271611Y-78300500D01*
X161442701Y-78273402D01*
X161607445Y-78219873D01*
X161761788Y-78141232D01*
X161901928Y-78039414D01*
X162024414Y-77916928D01*
X162126232Y-77776788D01*
X162204873Y-77622445D01*
X162258402Y-77457701D01*
X162285500Y-77286611D01*
X162285500Y-77113389D01*
X162624500Y-77113389D01*
X162624500Y-77286611D01*
X162651598Y-77457701D01*
X162705127Y-77622445D01*
X162783768Y-77776788D01*
X162885586Y-77916928D01*
X163008072Y-78039414D01*
X163148212Y-78141232D01*
X163302555Y-78219873D01*
X163467299Y-78273402D01*
X163638389Y-78300500D01*
X163638390Y-78300500D01*
X163811610Y-78300500D01*
X163811611Y-78300500D01*
X163982701Y-78273402D01*
X164147445Y-78219873D01*
X164301788Y-78141232D01*
X164441928Y-78039414D01*
X164564414Y-77916928D01*
X164666232Y-77776788D01*
X164744873Y-77622445D01*
X164798402Y-77457701D01*
X164825500Y-77286611D01*
X164825500Y-77113389D01*
X164798402Y-76942299D01*
X164744873Y-76777555D01*
X164666232Y-76623212D01*
X164564414Y-76483072D01*
X164441928Y-76360586D01*
X164301788Y-76258768D01*
X164147445Y-76180127D01*
X163982701Y-76126598D01*
X163982699Y-76126597D01*
X163982698Y-76126597D01*
X163851271Y-76105781D01*
X163811611Y-76099500D01*
X163638389Y-76099500D01*
X163598728Y-76105781D01*
X163467302Y-76126597D01*
X163302552Y-76180128D01*
X163148211Y-76258768D01*
X163068256Y-76316859D01*
X163008072Y-76360586D01*
X163008070Y-76360588D01*
X163008069Y-76360588D01*
X162885588Y-76483069D01*
X162885588Y-76483070D01*
X162885586Y-76483072D01*
X162841859Y-76543256D01*
X162783768Y-76623211D01*
X162705128Y-76777552D01*
X162651597Y-76942302D01*
X162633799Y-77054676D01*
X162624500Y-77113389D01*
X162285500Y-77113389D01*
X162258402Y-76942299D01*
X162204873Y-76777555D01*
X162126232Y-76623212D01*
X162024414Y-76483072D01*
X161901928Y-76360586D01*
X161831858Y-76309677D01*
X161761786Y-76258766D01*
X161653206Y-76203443D01*
X161602409Y-76155469D01*
X161585500Y-76092958D01*
X161585500Y-75482275D01*
X161585500Y-75482273D01*
X161558207Y-75380413D01*
X161558207Y-75380412D01*
X161505480Y-75289087D01*
X160695913Y-74479520D01*
X160650250Y-74453156D01*
X160604589Y-74426793D01*
X160553657Y-74413146D01*
X160502727Y-74399500D01*
X151777727Y-74399500D01*
X151672273Y-74399500D01*
X151570413Y-74426793D01*
X151570410Y-74426794D01*
X151479085Y-74479521D01*
X151404521Y-74554085D01*
X151351794Y-74645410D01*
X151351793Y-74645413D01*
X151324500Y-74747273D01*
X148125000Y-74747273D01*
X148125000Y-66464071D01*
X171324499Y-66464071D01*
X171349497Y-66589738D01*
X171349499Y-66589744D01*
X171398533Y-66708124D01*
X171398538Y-66708133D01*
X171469723Y-66814668D01*
X171469726Y-66814672D01*
X171560327Y-66905273D01*
X171560331Y-66905276D01*
X171666866Y-66976461D01*
X171666872Y-66976464D01*
X171666873Y-66976465D01*
X171785256Y-67025501D01*
X171785260Y-67025501D01*
X171785261Y-67025502D01*
X171910928Y-67050500D01*
X171910931Y-67050500D01*
X172039071Y-67050500D01*
X172123615Y-67033682D01*
X172164744Y-67025501D01*
X172283127Y-66976465D01*
X172389669Y-66905276D01*
X172458127Y-66836817D01*
X172519448Y-66803334D01*
X172545807Y-66800500D01*
X182898842Y-66800500D01*
X182965881Y-66820185D01*
X183001945Y-66855611D01*
X183034722Y-66904667D01*
X183034726Y-66904672D01*
X183125327Y-66995273D01*
X183125331Y-66995276D01*
X183231866Y-67066461D01*
X183231872Y-67066464D01*
X183231873Y-67066465D01*
X183350256Y-67115501D01*
X183350260Y-67115501D01*
X183350261Y-67115502D01*
X183475928Y-67140500D01*
X183475931Y-67140500D01*
X183604071Y-67140500D01*
X183688615Y-67123682D01*
X183729744Y-67115501D01*
X183848127Y-67066465D01*
X183954669Y-66995276D01*
X184045276Y-66904669D01*
X184116465Y-66798127D01*
X184165501Y-66679744D01*
X184190500Y-66554069D01*
X184190500Y-66425931D01*
X184190500Y-66425928D01*
X184165502Y-66300261D01*
X184165501Y-66300260D01*
X184165501Y-66300256D01*
X184116465Y-66181873D01*
X184116464Y-66181872D01*
X184116461Y-66181866D01*
X184045276Y-66075331D01*
X184045273Y-66075327D01*
X183954672Y-65984726D01*
X183954668Y-65984723D01*
X183848133Y-65913538D01*
X183848124Y-65913533D01*
X183729744Y-65864499D01*
X183729738Y-65864497D01*
X183604071Y-65839500D01*
X183604069Y-65839500D01*
X183475931Y-65839500D01*
X183475929Y-65839500D01*
X183350261Y-65864497D01*
X183350255Y-65864499D01*
X183231875Y-65913533D01*
X183231866Y-65913538D01*
X183134493Y-65978602D01*
X183067816Y-65999480D01*
X183065602Y-65999500D01*
X172545807Y-65999500D01*
X172478768Y-65979815D01*
X172458130Y-65963185D01*
X172389669Y-65894724D01*
X172389668Y-65894723D01*
X172389667Y-65894722D01*
X172283133Y-65823538D01*
X172283124Y-65823533D01*
X172164744Y-65774499D01*
X172164738Y-65774497D01*
X172039071Y-65749500D01*
X172039069Y-65749500D01*
X171910931Y-65749500D01*
X171910929Y-65749500D01*
X171785261Y-65774497D01*
X171785255Y-65774499D01*
X171666875Y-65823533D01*
X171666866Y-65823538D01*
X171560331Y-65894723D01*
X171560327Y-65894726D01*
X171469726Y-65985327D01*
X171469723Y-65985331D01*
X171398538Y-66091866D01*
X171398533Y-66091875D01*
X171349499Y-66210255D01*
X171349497Y-66210261D01*
X171324500Y-66335928D01*
X171324500Y-66335931D01*
X171324500Y-66464069D01*
X171324500Y-66464071D01*
X171324499Y-66464071D01*
X148125000Y-66464071D01*
X148125000Y-49524000D01*
X148144685Y-49456961D01*
X148197489Y-49411206D01*
X148249000Y-49400000D01*
X227576000Y-49400000D01*
X227643039Y-49419685D01*
G37*
%TD.AperFunction*%
%TD*%
M02*
