%TF.GenerationSoftware,KiCad,Pcbnew,9.0.0*%
%TF.CreationDate,2025-07-11T11:02:08-04:00*%
%TF.ProjectId,jammerBT_v3,6a616d6d-6572-4425-945f-76332e6b6963,rev?*%
%TF.SameCoordinates,Original*%
%TF.FileFunction,Soldermask,Bot*%
%TF.FilePolarity,Negative*%
%FSLAX46Y46*%
G04 Gerber Fmt 4.6, Leading zero omitted, Abs format (unit mm)*
G04 Created by KiCad (PCBNEW 9.0.0) date 2025-07-11 11:02:08*
%MOMM*%
%LPD*%
G01*
G04 APERTURE LIST*
G04 Aperture macros list*
%AMRoundRect*
0 Rectangle with rounded corners*
0 $1 Rounding radius*
0 $2 $3 $4 $5 $6 $7 $8 $9 X,Y pos of 4 corners*
0 Add a 4 corners polygon primitive as box body*
4,1,4,$2,$3,$4,$5,$6,$7,$8,$9,$2,$3,0*
0 Add four circle primitives for the rounded corners*
1,1,$1+$1,$2,$3*
1,1,$1+$1,$4,$5*
1,1,$1+$1,$6,$7*
1,1,$1+$1,$8,$9*
0 Add four rect primitives between the rounded corners*
20,1,$1+$1,$2,$3,$4,$5,0*
20,1,$1+$1,$4,$5,$6,$7,0*
20,1,$1+$1,$6,$7,$8,$9,0*
20,1,$1+$1,$8,$9,$2,$3,0*%
G04 Aperture macros list end*
%ADD10R,1.700000X1.700000*%
%ADD11O,1.700000X1.700000*%
%ADD12C,1.700000*%
%ADD13R,1.800000X1.800000*%
%ADD14C,1.800000*%
%ADD15C,5.600000*%
%ADD16RoundRect,0.650000X0.850000X-0.650000X0.850000X0.650000X-0.850000X0.650000X-0.850000X-0.650000X0*%
%ADD17RoundRect,0.250000X-0.625000X0.400000X-0.625000X-0.400000X0.625000X-0.400000X0.625000X0.400000X0*%
%ADD18RoundRect,0.250000X-1.075000X-0.550000X1.075000X-0.550000X1.075000X0.550000X-1.075000X0.550000X0*%
%ADD19RoundRect,0.250000X0.475000X-0.337500X0.475000X0.337500X-0.475000X0.337500X-0.475000X-0.337500X0*%
%ADD20RoundRect,0.250000X-0.850000X-0.350000X0.850000X-0.350000X0.850000X0.350000X-0.850000X0.350000X0*%
%ADD21RoundRect,0.249997X-2.950003X-2.650003X2.950003X-2.650003X2.950003X2.650003X-2.950003X2.650003X0*%
%ADD22RoundRect,0.250000X0.400000X0.625000X-0.400000X0.625000X-0.400000X-0.625000X0.400000X-0.625000X0*%
%ADD23RoundRect,0.395250X2.531000X0.922250X-2.531000X0.922250X-2.531000X-0.922250X2.531000X-0.922250X0*%
%ADD24RoundRect,0.395250X2.517250X0.922250X-2.517250X0.922250X-2.517250X-0.922250X2.517250X-0.922250X0*%
G04 APERTURE END LIST*
D10*
%TO.C,J3*%
X174880000Y-76180000D03*
D11*
X174880000Y-78720000D03*
X174880000Y-81260000D03*
X174880000Y-83800000D03*
X174880000Y-86340000D03*
X174880000Y-88880000D03*
X174880000Y-91420000D03*
X174880000Y-93960000D03*
X174880000Y-96500000D03*
X174880000Y-99040000D03*
X174880000Y-101580000D03*
X174880000Y-104120000D03*
X174880000Y-106660000D03*
X174880000Y-109200000D03*
X174880000Y-111740000D03*
X174880000Y-114280000D03*
X174880000Y-116820000D03*
X174880000Y-119360000D03*
X174880000Y-121900000D03*
%TD*%
D10*
%TO.C,J4*%
X200920000Y-76180000D03*
D11*
X200920000Y-78720000D03*
X200920000Y-81260000D03*
X200920000Y-83800000D03*
X200920000Y-86340000D03*
X200920000Y-88880000D03*
X200920000Y-91420000D03*
X200920000Y-93960000D03*
X200920000Y-96500000D03*
X200920000Y-99040000D03*
X200920000Y-101580000D03*
X200920000Y-104120000D03*
X200920000Y-106660000D03*
X200920000Y-109200000D03*
X200920000Y-111740000D03*
X200920000Y-114280000D03*
X200920000Y-116820000D03*
X200920000Y-119360000D03*
X200920000Y-121900000D03*
%TD*%
D10*
%TO.C,U2*%
X208710000Y-79740000D03*
D12*
X208710000Y-77200000D03*
X211250000Y-79740000D03*
X211250000Y-77200000D03*
X213790000Y-79740000D03*
X213790000Y-77200000D03*
X216330000Y-79740000D03*
X216330000Y-77200000D03*
%TD*%
D13*
%TO.C,D1*%
X157260000Y-103175000D03*
D14*
X159419000Y-103175000D03*
X161578000Y-103175000D03*
X163737000Y-103175000D03*
%TD*%
D15*
%TO.C,H2*%
X187840000Y-99175000D03*
%TD*%
D16*
%TO.C,SW1*%
X222250000Y-98065000D03*
X222250000Y-93365000D03*
%TD*%
D10*
%TO.C,U3*%
X156105000Y-79740000D03*
D12*
X156105000Y-77200000D03*
X158645000Y-79740000D03*
X158645000Y-77200000D03*
X161185000Y-79740000D03*
X161185000Y-77200000D03*
X163725000Y-79740000D03*
X163725000Y-77200000D03*
%TD*%
D15*
%TO.C,H1*%
X187800000Y-82020000D03*
%TD*%
D17*
%TO.C,R2*%
X164575000Y-94375000D03*
X164575000Y-97475000D03*
%TD*%
D18*
%TO.C,C2*%
X209850000Y-128325000D03*
X213200000Y-128325000D03*
%TD*%
D17*
%TO.C,R1*%
X156675000Y-94375000D03*
X156675000Y-97475000D03*
%TD*%
D19*
%TO.C,C6*%
X174725000Y-73137500D03*
X174725000Y-71062500D03*
%TD*%
D17*
%TO.C,R3*%
X160450000Y-94375000D03*
X160450000Y-97475000D03*
%TD*%
D18*
%TO.C,C5*%
X209475000Y-96225000D03*
X212825000Y-96225000D03*
%TD*%
D20*
%TO.C,U1*%
X209195000Y-113782500D03*
D21*
X215495000Y-111502500D03*
D20*
X209195000Y-109222500D03*
%TD*%
D18*
%TO.C,C4*%
X209525000Y-102650000D03*
X212875000Y-102650000D03*
%TD*%
D22*
%TO.C,R4*%
X205825000Y-128450000D03*
X202725000Y-128450000D03*
%TD*%
D18*
%TO.C,C3*%
X209850000Y-120475000D03*
X213200000Y-120475000D03*
%TD*%
D23*
%TO.C,J1*%
X219826250Y-122133750D03*
D24*
X219840000Y-127216250D03*
%TD*%
M02*
