%TF.GenerationSoftware,KiCad,Pcbnew,9.0.0*%
%TF.CreationDate,2025-07-11T11:02:10-04:00*%
%TF.ProjectId,jammerBT_v3,6a616d6d-6572-4425-945f-76332e6b6963,rev?*%
%TF.SameCoordinates,Original*%
%TF.FileFunction,Drillmap*%
%TF.FilePolarity,Positive*%
%FSLAX45Y45*%
G04 Gerber Fmt 4.5, Leading zero omitted, Abs format (unit mm)*
G04 Created by KiCad (PCBNEW 9.0.0) date 2025-07-11 11:02:10*
%MOMM*%
%LPD*%
G01*
G04 APERTURE LIST*
%ADD10C,0.100000*%
%ADD11C,0.200000*%
G04 APERTURE END LIST*
D10*
X14558500Y-4195500D02*
X23004500Y-4195500D01*
X23004500Y-13746000D01*
X14558500Y-13746000D01*
X14558500Y-4195500D01*
D11*
X14814277Y-14062484D02*
X14814277Y-13862484D01*
X14814277Y-13862484D02*
X14861896Y-13862484D01*
X14861896Y-13862484D02*
X14890467Y-13872008D01*
X14890467Y-13872008D02*
X14909515Y-13891055D01*
X14909515Y-13891055D02*
X14919039Y-13910103D01*
X14919039Y-13910103D02*
X14928562Y-13948198D01*
X14928562Y-13948198D02*
X14928562Y-13976769D01*
X14928562Y-13976769D02*
X14919039Y-14014865D01*
X14919039Y-14014865D02*
X14909515Y-14033912D01*
X14909515Y-14033912D02*
X14890467Y-14052960D01*
X14890467Y-14052960D02*
X14861896Y-14062484D01*
X14861896Y-14062484D02*
X14814277Y-14062484D01*
X15014277Y-14062484D02*
X15014277Y-13929150D01*
X15014277Y-13967246D02*
X15023801Y-13948198D01*
X15023801Y-13948198D02*
X15033324Y-13938674D01*
X15033324Y-13938674D02*
X15052372Y-13929150D01*
X15052372Y-13929150D02*
X15071420Y-13929150D01*
X15138086Y-14062484D02*
X15138086Y-13929150D01*
X15138086Y-13862484D02*
X15128562Y-13872008D01*
X15128562Y-13872008D02*
X15138086Y-13881531D01*
X15138086Y-13881531D02*
X15147610Y-13872008D01*
X15147610Y-13872008D02*
X15138086Y-13862484D01*
X15138086Y-13862484D02*
X15138086Y-13881531D01*
X15261896Y-14062484D02*
X15242848Y-14052960D01*
X15242848Y-14052960D02*
X15233324Y-14033912D01*
X15233324Y-14033912D02*
X15233324Y-13862484D01*
X15366658Y-14062484D02*
X15347610Y-14052960D01*
X15347610Y-14052960D02*
X15338086Y-14033912D01*
X15338086Y-14033912D02*
X15338086Y-13862484D01*
X15595229Y-14062484D02*
X15595229Y-13862484D01*
X15595229Y-13862484D02*
X15661896Y-14005341D01*
X15661896Y-14005341D02*
X15728562Y-13862484D01*
X15728562Y-13862484D02*
X15728562Y-14062484D01*
X15909515Y-14062484D02*
X15909515Y-13957722D01*
X15909515Y-13957722D02*
X15899991Y-13938674D01*
X15899991Y-13938674D02*
X15880943Y-13929150D01*
X15880943Y-13929150D02*
X15842848Y-13929150D01*
X15842848Y-13929150D02*
X15823801Y-13938674D01*
X15909515Y-14052960D02*
X15890467Y-14062484D01*
X15890467Y-14062484D02*
X15842848Y-14062484D01*
X15842848Y-14062484D02*
X15823801Y-14052960D01*
X15823801Y-14052960D02*
X15814277Y-14033912D01*
X15814277Y-14033912D02*
X15814277Y-14014865D01*
X15814277Y-14014865D02*
X15823801Y-13995817D01*
X15823801Y-13995817D02*
X15842848Y-13986293D01*
X15842848Y-13986293D02*
X15890467Y-13986293D01*
X15890467Y-13986293D02*
X15909515Y-13976769D01*
X16004753Y-13929150D02*
X16004753Y-14129150D01*
X16004753Y-13938674D02*
X16023801Y-13929150D01*
X16023801Y-13929150D02*
X16061896Y-13929150D01*
X16061896Y-13929150D02*
X16080943Y-13938674D01*
X16080943Y-13938674D02*
X16090467Y-13948198D01*
X16090467Y-13948198D02*
X16099991Y-13967246D01*
X16099991Y-13967246D02*
X16099991Y-14024388D01*
X16099991Y-14024388D02*
X16090467Y-14043436D01*
X16090467Y-14043436D02*
X16080943Y-14052960D01*
X16080943Y-14052960D02*
X16061896Y-14062484D01*
X16061896Y-14062484D02*
X16023801Y-14062484D01*
X16023801Y-14062484D02*
X16004753Y-14052960D01*
X16185705Y-14043436D02*
X16195229Y-14052960D01*
X16195229Y-14052960D02*
X16185705Y-14062484D01*
X16185705Y-14062484D02*
X16176182Y-14052960D01*
X16176182Y-14052960D02*
X16185705Y-14043436D01*
X16185705Y-14043436D02*
X16185705Y-14062484D01*
X16185705Y-13938674D02*
X16195229Y-13948198D01*
X16195229Y-13948198D02*
X16185705Y-13957722D01*
X16185705Y-13957722D02*
X16176182Y-13948198D01*
X16176182Y-13948198D02*
X16185705Y-13938674D01*
X16185705Y-13938674D02*
X16185705Y-13957722D01*
M02*
