%TF.GenerationSoftware,KiCad,Pcbnew,9.0.0*%
%TF.CreationDate,2025-07-11T11:02:08-04:00*%
%TF.ProjectId,jammerBT_v3,6a616d6d-6572-4425-945f-76332e6b6963,rev?*%
%TF.SameCoordinates,Original*%
%TF.FileFunction,Copper,L1,Top*%
%TF.FilePolarity,Positive*%
%FSLAX46Y46*%
G04 Gerber Fmt 4.6, Leading zero omitted, Abs format (unit mm)*
G04 Created by KiCad (PCBNEW 9.0.0) date 2025-07-11 11:02:08*
%MOMM*%
%LPD*%
G01*
G04 APERTURE LIST*
G04 Aperture macros list*
%AMRoundRect*
0 Rectangle with rounded corners*
0 $1 Rounding radius*
0 $2 $3 $4 $5 $6 $7 $8 $9 X,Y pos of 4 corners*
0 Add a 4 corners polygon primitive as box body*
4,1,4,$2,$3,$4,$5,$6,$7,$8,$9,$2,$3,0*
0 Add four circle primitives for the rounded corners*
1,1,$1+$1,$2,$3*
1,1,$1+$1,$4,$5*
1,1,$1+$1,$6,$7*
1,1,$1+$1,$8,$9*
0 Add four rect primitives between the rounded corners*
20,1,$1+$1,$2,$3,$4,$5,0*
20,1,$1+$1,$4,$5,$6,$7,0*
20,1,$1+$1,$6,$7,$8,$9,0*
20,1,$1+$1,$8,$9,$2,$3,0*%
G04 Aperture macros list end*
%TA.AperFunction,ComponentPad*%
%ADD10R,1.700000X1.700000*%
%TD*%
%TA.AperFunction,ComponentPad*%
%ADD11O,1.700000X1.700000*%
%TD*%
%TA.AperFunction,ComponentPad*%
%ADD12C,1.700000*%
%TD*%
%TA.AperFunction,ComponentPad*%
%ADD13R,1.800000X1.800000*%
%TD*%
%TA.AperFunction,ComponentPad*%
%ADD14C,1.800000*%
%TD*%
%TA.AperFunction,SMDPad,CuDef*%
%ADD15R,2.800000X1.000000*%
%TD*%
%TA.AperFunction,ComponentPad*%
%ADD16C,5.600000*%
%TD*%
%TA.AperFunction,ComponentPad*%
%ADD17RoundRect,0.650000X0.850000X-0.650000X0.850000X0.650000X-0.850000X0.650000X-0.850000X-0.650000X0*%
%TD*%
%TA.AperFunction,ViaPad*%
%ADD18C,0.800000*%
%TD*%
%TA.AperFunction,Conductor*%
%ADD19C,0.500000*%
%TD*%
%TA.AperFunction,Conductor*%
%ADD20C,0.300000*%
%TD*%
G04 APERTURE END LIST*
D10*
%TO.P,J3,1,Pin_1*%
%TO.N,+3.3V*%
X174880000Y-76180000D03*
D11*
%TO.P,J3,2,Pin_2*%
%TO.N,unconnected-(J3-Pin_2-Pad2)*%
X174880000Y-78720000D03*
%TO.P,J3,3,Pin_3*%
%TO.N,unconnected-(J3-Pin_3-Pad3)*%
X174880000Y-81260000D03*
%TO.P,J3,4,Pin_4*%
%TO.N,unconnected-(J3-Pin_4-Pad4)*%
X174880000Y-83800000D03*
%TO.P,J3,5,Pin_5*%
%TO.N,Net-(J3-Pin_5)*%
X174880000Y-86340000D03*
%TO.P,J3,6,Pin_6*%
%TO.N,unconnected-(J3-Pin_6-Pad6)*%
X174880000Y-88880000D03*
%TO.P,J3,7,Pin_7*%
%TO.N,unconnected-(J3-Pin_7-Pad7)*%
X174880000Y-91420000D03*
%TO.P,J3,8,Pin_8*%
%TO.N,unconnected-(J3-Pin_8-Pad8)*%
X174880000Y-93960000D03*
%TO.P,J3,9,Pin_9*%
%TO.N,unconnected-(J3-Pin_9-Pad9)*%
X174880000Y-96500000D03*
%TO.P,J3,10,Pin_10*%
%TO.N,unconnected-(J3-Pin_10-Pad10)*%
X174880000Y-99040000D03*
%TO.P,J3,11,Pin_11*%
%TO.N,unconnected-(J3-Pin_11-Pad11)*%
X174880000Y-101580000D03*
%TO.P,J3,12,Pin_12*%
%TO.N,Net-(J3-Pin_12)*%
X174880000Y-104120000D03*
%TO.P,J3,13,Pin_13*%
%TO.N,Net-(J3-Pin_13)*%
X174880000Y-106660000D03*
%TO.P,J3,14,Pin_14*%
%TO.N,GND*%
X174880000Y-109200000D03*
%TO.P,J3,15,Pin_15*%
%TO.N,Net-(J3-Pin_15)*%
X174880000Y-111740000D03*
%TO.P,J3,16,Pin_16*%
%TO.N,unconnected-(J3-Pin_16-Pad16)*%
X174880000Y-114280000D03*
%TO.P,J3,17,Pin_17*%
%TO.N,unconnected-(J3-Pin_17-Pad17)*%
X174880000Y-116820000D03*
%TO.P,J3,18,Pin_18*%
%TO.N,unconnected-(J3-Pin_18-Pad18)*%
X174880000Y-119360000D03*
%TO.P,J3,19,Pin_19*%
%TO.N,unconnected-(J3-Pin_19-Pad19)*%
X174880000Y-121900000D03*
%TD*%
D10*
%TO.P,J4,1,Pin_1*%
%TO.N,GND*%
X200920000Y-76180000D03*
D11*
%TO.P,J4,2,Pin_2*%
%TO.N,Net-(J4-Pin_2)*%
X200920000Y-78720000D03*
%TO.P,J4,3,Pin_3*%
%TO.N,Net-(J4-Pin_3)*%
X200920000Y-81260000D03*
%TO.P,J4,4,Pin_4*%
%TO.N,unconnected-(J4-Pin_4-Pad4)*%
X200920000Y-83800000D03*
%TO.P,J4,5,Pin_5*%
%TO.N,unconnected-(J4-Pin_5-Pad5)*%
X200920000Y-86340000D03*
%TO.P,J4,6,Pin_6*%
%TO.N,Net-(J4-Pin_6)*%
X200920000Y-88880000D03*
%TO.P,J4,7,Pin_7*%
%TO.N,GND*%
X200920000Y-91420000D03*
%TO.P,J4,8,Pin_8*%
%TO.N,Net-(J4-Pin_8)*%
X200920000Y-93960000D03*
%TO.P,J4,9,Pin_9*%
%TO.N,Net-(J4-Pin_9)*%
X200920000Y-96500000D03*
%TO.P,J4,10,Pin_10*%
%TO.N,Net-(J4-Pin_10)*%
X200920000Y-99040000D03*
%TO.P,J4,11,Pin_11*%
%TO.N,unconnected-(J4-Pin_11-Pad11)*%
X200920000Y-101580000D03*
%TO.P,J4,12,Pin_12*%
%TO.N,Net-(J4-Pin_12)*%
X200920000Y-104120000D03*
%TO.P,J4,13,Pin_13*%
%TO.N,Net-(J4-Pin_13)*%
X200920000Y-106660000D03*
%TO.P,J4,14,Pin_14*%
%TO.N,unconnected-(J4-Pin_14-Pad14)*%
X200920000Y-109200000D03*
%TO.P,J4,15,Pin_15*%
%TO.N,Net-(J4-Pin_15)*%
X200920000Y-111740000D03*
%TO.P,J4,16,Pin_16*%
%TO.N,Net-(J4-Pin_16)*%
X200920000Y-114280000D03*
%TO.P,J4,17,Pin_17*%
%TO.N,unconnected-(J4-Pin_17-Pad17)*%
X200920000Y-116820000D03*
%TO.P,J4,18,Pin_18*%
%TO.N,unconnected-(J4-Pin_18-Pad18)*%
X200920000Y-119360000D03*
%TO.P,J4,19,Pin_19*%
%TO.N,unconnected-(J4-Pin_19-Pad19)*%
X200920000Y-121900000D03*
%TD*%
D10*
%TO.P,U2,1,GND*%
%TO.N,GND*%
X208710000Y-79740000D03*
D12*
%TO.P,U2,2,VCC*%
%TO.N,+3.3V*%
X208710000Y-77200000D03*
%TO.P,U2,3,CE*%
%TO.N,Net-(J4-Pin_16)*%
X211250000Y-79740000D03*
%TO.P,U2,4,~{CSN}*%
%TO.N,Net-(J4-Pin_10)*%
X211250000Y-77200000D03*
%TO.P,U2,5,SCK*%
%TO.N,Net-(J4-Pin_9)*%
X213790000Y-79740000D03*
%TO.P,U2,6,MOSI*%
%TO.N,Net-(J4-Pin_2)*%
X213790000Y-77200000D03*
%TO.P,U2,7,MISO*%
%TO.N,Net-(J4-Pin_8)*%
X216330000Y-79740000D03*
%TO.P,U2,8,IRQ*%
%TO.N,unconnected-(U2-IRQ-Pad8)*%
X216330000Y-77200000D03*
%TD*%
D13*
%TO.P,D1,1,BA*%
%TO.N,Net-(D1-BA)*%
X157260000Y-103175000D03*
D14*
%TO.P,D1,2,GA*%
%TO.N,Net-(D1-GA)*%
X159419000Y-103175000D03*
%TO.P,D1,3,K*%
%TO.N,GND*%
X161578000Y-103175000D03*
%TO.P,D1,4,RA*%
%TO.N,Net-(D1-RA)*%
X163737000Y-103175000D03*
%TD*%
D15*
%TO.P,SW2,1,1*%
%TO.N,Net-(J3-Pin_5)*%
X157800000Y-112100000D03*
X163600000Y-112100000D03*
%TO.P,SW2,2,2*%
%TO.N,GND*%
X157800000Y-116100000D03*
X163600000Y-116100000D03*
%TD*%
D16*
%TO.P,H2,1*%
%TO.N,N/C*%
X187840000Y-99175000D03*
%TD*%
D17*
%TO.P,SW1,1*%
%TO.N,+BATT*%
X222250000Y-98065000D03*
%TO.P,SW1,2*%
%TO.N,+5V*%
X222250000Y-93365000D03*
%TD*%
D10*
%TO.P,U3,1,GND*%
%TO.N,GND*%
X156105000Y-79740000D03*
D12*
%TO.P,U3,2,VCC*%
%TO.N,+3.3V*%
X156105000Y-77200000D03*
%TO.P,U3,3,CE*%
%TO.N,Net-(J4-Pin_3)*%
X158645000Y-79740000D03*
%TO.P,U3,4,~{CSN}*%
%TO.N,Net-(J4-Pin_6)*%
X158645000Y-77200000D03*
%TO.P,U3,5,SCK*%
%TO.N,Net-(J3-Pin_12)*%
X161185000Y-79740000D03*
%TO.P,U3,6,MOSI*%
%TO.N,Net-(J3-Pin_15)*%
X161185000Y-77200000D03*
%TO.P,U3,7,MISO*%
%TO.N,Net-(J3-Pin_13)*%
X163725000Y-79740000D03*
%TO.P,U3,8,IRQ*%
%TO.N,unconnected-(U3-IRQ-Pad8)*%
X163725000Y-77200000D03*
%TD*%
D16*
%TO.P,H1,1*%
%TO.N,N/C*%
X187800000Y-82020000D03*
%TD*%
D18*
%TO.N,GND*%
X165820000Y-118405000D03*
%TO.N,Net-(J3-Pin_5)*%
X167019669Y-88305331D03*
X190775000Y-117250000D03*
X196120000Y-127160000D03*
%TO.N,Net-(J3-Pin_13)*%
X163900000Y-83125000D03*
%TO.N,Net-(J4-Pin_8)*%
X212350000Y-84500000D03*
%TO.N,Net-(J4-Pin_16)*%
X206625000Y-89075000D03*
%TO.N,Net-(J4-Pin_12)*%
X156700000Y-91275000D03*
%TO.N,Net-(J4-Pin_6)*%
X171975000Y-66400000D03*
X183540000Y-66490000D03*
%TD*%
D19*
%TO.N,GND*%
X165820000Y-116405000D02*
X165820000Y-118405000D01*
X163600000Y-116100000D02*
X157800000Y-116100000D01*
X163600000Y-116100000D02*
X165515000Y-116100000D01*
X165515000Y-116100000D02*
X165820000Y-116405000D01*
%TO.N,+3.3V*%
X208710000Y-77200000D02*
X208710000Y-70610000D01*
X161430000Y-65200000D02*
X174875000Y-65200000D01*
X208710000Y-70610000D02*
X203300000Y-65200000D01*
X156075000Y-77170000D02*
X156075000Y-70555000D01*
X203300000Y-65200000D02*
X174875000Y-65200000D01*
X174880000Y-76180000D02*
X174880000Y-65205000D01*
X156075000Y-70555000D02*
X161430000Y-65200000D01*
X174880000Y-65205000D02*
X174875000Y-65200000D01*
D20*
%TO.N,Net-(J3-Pin_12)*%
X170400000Y-103650000D02*
X170870000Y-104120000D01*
X161185000Y-82660000D02*
X162675000Y-84150000D01*
X167350000Y-84150000D02*
X170400000Y-87200000D01*
X170870000Y-104120000D02*
X174880000Y-104120000D01*
X161185000Y-79740000D02*
X161185000Y-82660000D01*
X162675000Y-84150000D02*
X167350000Y-84150000D01*
X170400000Y-87200000D02*
X170400000Y-103650000D01*
%TO.N,Net-(J3-Pin_5)*%
X166550000Y-112100000D02*
X163600000Y-112100000D01*
X157800000Y-112100000D02*
X163600000Y-112100000D01*
X191425000Y-117900000D02*
X191425000Y-122465000D01*
X191425000Y-122465000D02*
X196120000Y-127160000D01*
X190775000Y-117250000D02*
X191425000Y-117900000D01*
X166875000Y-88450000D02*
X166875000Y-111775000D01*
X167019669Y-88305331D02*
X166875000Y-88450000D01*
X166875000Y-111775000D02*
X166550000Y-112100000D01*
%TO.N,Net-(J3-Pin_13)*%
X163900000Y-83125000D02*
X163900000Y-79915000D01*
%TO.N,Net-(J4-Pin_9)*%
X213790000Y-79740000D02*
X213790000Y-85710000D01*
X203000000Y-96500000D02*
X200920000Y-96500000D01*
X213790000Y-85710000D02*
X203000000Y-96500000D01*
%TO.N,Net-(J4-Pin_8)*%
X212350000Y-84500000D02*
X212350000Y-85575000D01*
X212350000Y-85575000D02*
X203965000Y-93960000D01*
X203965000Y-93960000D02*
X200920000Y-93960000D01*
%TO.N,Net-(J4-Pin_16)*%
X206700000Y-89075000D02*
X206625000Y-89075000D01*
X211250000Y-79740000D02*
X211250000Y-84525000D01*
X211250000Y-84525000D02*
X206700000Y-89075000D01*
%TO.N,Net-(J4-Pin_12)*%
X200920000Y-104120000D02*
X183720000Y-104120000D01*
X155231000Y-92744000D02*
X155175000Y-92744000D01*
X155175000Y-92744000D02*
X155175000Y-121145000D01*
X156700000Y-91275000D02*
X155231000Y-92744000D01*
X179600000Y-125500000D02*
X179600000Y-108360000D01*
X155175000Y-121145000D02*
X159530000Y-125500000D01*
X183720000Y-104120000D02*
X179560000Y-108280000D01*
X159530000Y-125500000D02*
X179600000Y-125500000D01*
%TO.N,Net-(J4-Pin_10)*%
X212225000Y-74200000D02*
X219300000Y-74200000D01*
X202710000Y-99040000D02*
X200920000Y-99040000D01*
X219300000Y-82450000D02*
X202710000Y-99040000D01*
X211250000Y-77200000D02*
X211250000Y-75175000D01*
X219300000Y-74200000D02*
X219300000Y-82450000D01*
X211250000Y-75175000D02*
X212225000Y-74200000D01*
%TO.N,Net-(J4-Pin_6)*%
X171975000Y-66400000D02*
X170750000Y-66400000D01*
X188755000Y-88880000D02*
X200920000Y-88880000D01*
X158645000Y-74930000D02*
X158645000Y-77200000D01*
X183540000Y-66490000D02*
X183540000Y-83665000D01*
X162350000Y-74800000D02*
X158775000Y-74800000D01*
X170750000Y-66400000D02*
X162350000Y-74800000D01*
X183540000Y-83665000D02*
X188755000Y-88880000D01*
X158775000Y-74800000D02*
X158645000Y-74930000D01*
%TD*%
M02*
