%TF.GenerationSoftware,KiCad,Pcbnew,9.0.0*%
%TF.CreationDate,2025-07-11T11:02:08-04:00*%
%TF.ProjectId,jammerBT_v3,6a616d6d-6572-4425-945f-76332e6b6963,rev?*%
%TF.SameCoordinates,Original*%
%TF.FileFunction,Legend,Bot*%
%TF.FilePolarity,Positive*%
%FSLAX46Y46*%
G04 Gerber Fmt 4.6, Leading zero omitted, Abs format (unit mm)*
G04 Created by KiCad (PCBNEW 9.0.0) date 2025-07-11 11:02:08*
%MOMM*%
%LPD*%
G01*
G04 APERTURE LIST*
%ADD10C,0.200000*%
%ADD11C,0.150000*%
%ADD12C,0.120000*%
G04 APERTURE END LIST*
D10*
X224346266Y-119053571D02*
X224346266Y-119815476D01*
X224727219Y-119434523D02*
X223965314Y-119434523D01*
X224203409Y-120624999D02*
X224251028Y-120767856D01*
X224251028Y-120767856D02*
X224298647Y-120815475D01*
X224298647Y-120815475D02*
X224393885Y-120863094D01*
X224393885Y-120863094D02*
X224536742Y-120863094D01*
X224536742Y-120863094D02*
X224631980Y-120815475D01*
X224631980Y-120815475D02*
X224679600Y-120767856D01*
X224679600Y-120767856D02*
X224727219Y-120672618D01*
X224727219Y-120672618D02*
X224727219Y-120291666D01*
X224727219Y-120291666D02*
X223727219Y-120291666D01*
X223727219Y-120291666D02*
X223727219Y-120624999D01*
X223727219Y-120624999D02*
X223774838Y-120720237D01*
X223774838Y-120720237D02*
X223822457Y-120767856D01*
X223822457Y-120767856D02*
X223917695Y-120815475D01*
X223917695Y-120815475D02*
X224012933Y-120815475D01*
X224012933Y-120815475D02*
X224108171Y-120767856D01*
X224108171Y-120767856D02*
X224155790Y-120720237D01*
X224155790Y-120720237D02*
X224203409Y-120624999D01*
X224203409Y-120624999D02*
X224203409Y-120291666D01*
X224441504Y-121244047D02*
X224441504Y-121720237D01*
X224727219Y-121148809D02*
X223727219Y-121482142D01*
X223727219Y-121482142D02*
X224727219Y-121815475D01*
X223727219Y-122005952D02*
X223727219Y-122577380D01*
X224727219Y-122291666D02*
X223727219Y-122291666D01*
X223727219Y-122767857D02*
X223727219Y-123339285D01*
X224727219Y-123053571D02*
X223727219Y-123053571D01*
X224421266Y-124478571D02*
X224421266Y-125240476D01*
X224278409Y-126049999D02*
X224326028Y-126192856D01*
X224326028Y-126192856D02*
X224373647Y-126240475D01*
X224373647Y-126240475D02*
X224468885Y-126288094D01*
X224468885Y-126288094D02*
X224611742Y-126288094D01*
X224611742Y-126288094D02*
X224706980Y-126240475D01*
X224706980Y-126240475D02*
X224754600Y-126192856D01*
X224754600Y-126192856D02*
X224802219Y-126097618D01*
X224802219Y-126097618D02*
X224802219Y-125716666D01*
X224802219Y-125716666D02*
X223802219Y-125716666D01*
X223802219Y-125716666D02*
X223802219Y-126049999D01*
X223802219Y-126049999D02*
X223849838Y-126145237D01*
X223849838Y-126145237D02*
X223897457Y-126192856D01*
X223897457Y-126192856D02*
X223992695Y-126240475D01*
X223992695Y-126240475D02*
X224087933Y-126240475D01*
X224087933Y-126240475D02*
X224183171Y-126192856D01*
X224183171Y-126192856D02*
X224230790Y-126145237D01*
X224230790Y-126145237D02*
X224278409Y-126049999D01*
X224278409Y-126049999D02*
X224278409Y-125716666D01*
X224516504Y-126669047D02*
X224516504Y-127145237D01*
X224802219Y-126573809D02*
X223802219Y-126907142D01*
X223802219Y-126907142D02*
X224802219Y-127240475D01*
X223802219Y-127430952D02*
X223802219Y-128002380D01*
X224802219Y-127716666D02*
X223802219Y-127716666D01*
X223802219Y-128192857D02*
X223802219Y-128764285D01*
X224802219Y-128478571D02*
X223802219Y-128478571D01*
D11*
X163209819Y-95758333D02*
X162733628Y-95425000D01*
X163209819Y-95186905D02*
X162209819Y-95186905D01*
X162209819Y-95186905D02*
X162209819Y-95567857D01*
X162209819Y-95567857D02*
X162257438Y-95663095D01*
X162257438Y-95663095D02*
X162305057Y-95710714D01*
X162305057Y-95710714D02*
X162400295Y-95758333D01*
X162400295Y-95758333D02*
X162543152Y-95758333D01*
X162543152Y-95758333D02*
X162638390Y-95710714D01*
X162638390Y-95710714D02*
X162686009Y-95663095D01*
X162686009Y-95663095D02*
X162733628Y-95567857D01*
X162733628Y-95567857D02*
X162733628Y-95186905D01*
X162305057Y-96139286D02*
X162257438Y-96186905D01*
X162257438Y-96186905D02*
X162209819Y-96282143D01*
X162209819Y-96282143D02*
X162209819Y-96520238D01*
X162209819Y-96520238D02*
X162257438Y-96615476D01*
X162257438Y-96615476D02*
X162305057Y-96663095D01*
X162305057Y-96663095D02*
X162400295Y-96710714D01*
X162400295Y-96710714D02*
X162495533Y-96710714D01*
X162495533Y-96710714D02*
X162638390Y-96663095D01*
X162638390Y-96663095D02*
X163209819Y-96091667D01*
X163209819Y-96091667D02*
X163209819Y-96710714D01*
X211691666Y-131884580D02*
X211739285Y-131932200D01*
X211739285Y-131932200D02*
X211882142Y-131979819D01*
X211882142Y-131979819D02*
X211977380Y-131979819D01*
X211977380Y-131979819D02*
X212120237Y-131932200D01*
X212120237Y-131932200D02*
X212215475Y-131836961D01*
X212215475Y-131836961D02*
X212263094Y-131741723D01*
X212263094Y-131741723D02*
X212310713Y-131551247D01*
X212310713Y-131551247D02*
X212310713Y-131408390D01*
X212310713Y-131408390D02*
X212263094Y-131217914D01*
X212263094Y-131217914D02*
X212215475Y-131122676D01*
X212215475Y-131122676D02*
X212120237Y-131027438D01*
X212120237Y-131027438D02*
X211977380Y-130979819D01*
X211977380Y-130979819D02*
X211882142Y-130979819D01*
X211882142Y-130979819D02*
X211739285Y-131027438D01*
X211739285Y-131027438D02*
X211691666Y-131075057D01*
X211310713Y-131075057D02*
X211263094Y-131027438D01*
X211263094Y-131027438D02*
X211167856Y-130979819D01*
X211167856Y-130979819D02*
X210929761Y-130979819D01*
X210929761Y-130979819D02*
X210834523Y-131027438D01*
X210834523Y-131027438D02*
X210786904Y-131075057D01*
X210786904Y-131075057D02*
X210739285Y-131170295D01*
X210739285Y-131170295D02*
X210739285Y-131265533D01*
X210739285Y-131265533D02*
X210786904Y-131408390D01*
X210786904Y-131408390D02*
X211358332Y-131979819D01*
X211358332Y-131979819D02*
X210739285Y-131979819D01*
X155309819Y-95758333D02*
X154833628Y-95425000D01*
X155309819Y-95186905D02*
X154309819Y-95186905D01*
X154309819Y-95186905D02*
X154309819Y-95567857D01*
X154309819Y-95567857D02*
X154357438Y-95663095D01*
X154357438Y-95663095D02*
X154405057Y-95710714D01*
X154405057Y-95710714D02*
X154500295Y-95758333D01*
X154500295Y-95758333D02*
X154643152Y-95758333D01*
X154643152Y-95758333D02*
X154738390Y-95710714D01*
X154738390Y-95710714D02*
X154786009Y-95663095D01*
X154786009Y-95663095D02*
X154833628Y-95567857D01*
X154833628Y-95567857D02*
X154833628Y-95186905D01*
X155309819Y-96710714D02*
X155309819Y-96139286D01*
X155309819Y-96425000D02*
X154309819Y-96425000D01*
X154309819Y-96425000D02*
X154452676Y-96329762D01*
X154452676Y-96329762D02*
X154547914Y-96234524D01*
X154547914Y-96234524D02*
X154595533Y-96139286D01*
X176764580Y-71933333D02*
X176812200Y-71885714D01*
X176812200Y-71885714D02*
X176859819Y-71742857D01*
X176859819Y-71742857D02*
X176859819Y-71647619D01*
X176859819Y-71647619D02*
X176812200Y-71504762D01*
X176812200Y-71504762D02*
X176716961Y-71409524D01*
X176716961Y-71409524D02*
X176621723Y-71361905D01*
X176621723Y-71361905D02*
X176431247Y-71314286D01*
X176431247Y-71314286D02*
X176288390Y-71314286D01*
X176288390Y-71314286D02*
X176097914Y-71361905D01*
X176097914Y-71361905D02*
X176002676Y-71409524D01*
X176002676Y-71409524D02*
X175907438Y-71504762D01*
X175907438Y-71504762D02*
X175859819Y-71647619D01*
X175859819Y-71647619D02*
X175859819Y-71742857D01*
X175859819Y-71742857D02*
X175907438Y-71885714D01*
X175907438Y-71885714D02*
X175955057Y-71933333D01*
X175859819Y-72790476D02*
X175859819Y-72600000D01*
X175859819Y-72600000D02*
X175907438Y-72504762D01*
X175907438Y-72504762D02*
X175955057Y-72457143D01*
X175955057Y-72457143D02*
X176097914Y-72361905D01*
X176097914Y-72361905D02*
X176288390Y-72314286D01*
X176288390Y-72314286D02*
X176669342Y-72314286D01*
X176669342Y-72314286D02*
X176764580Y-72361905D01*
X176764580Y-72361905D02*
X176812200Y-72409524D01*
X176812200Y-72409524D02*
X176859819Y-72504762D01*
X176859819Y-72504762D02*
X176859819Y-72695238D01*
X176859819Y-72695238D02*
X176812200Y-72790476D01*
X176812200Y-72790476D02*
X176764580Y-72838095D01*
X176764580Y-72838095D02*
X176669342Y-72885714D01*
X176669342Y-72885714D02*
X176431247Y-72885714D01*
X176431247Y-72885714D02*
X176336009Y-72838095D01*
X176336009Y-72838095D02*
X176288390Y-72790476D01*
X176288390Y-72790476D02*
X176240771Y-72695238D01*
X176240771Y-72695238D02*
X176240771Y-72504762D01*
X176240771Y-72504762D02*
X176288390Y-72409524D01*
X176288390Y-72409524D02*
X176336009Y-72361905D01*
X176336009Y-72361905D02*
X176431247Y-72314286D01*
X159084819Y-95758333D02*
X158608628Y-95425000D01*
X159084819Y-95186905D02*
X158084819Y-95186905D01*
X158084819Y-95186905D02*
X158084819Y-95567857D01*
X158084819Y-95567857D02*
X158132438Y-95663095D01*
X158132438Y-95663095D02*
X158180057Y-95710714D01*
X158180057Y-95710714D02*
X158275295Y-95758333D01*
X158275295Y-95758333D02*
X158418152Y-95758333D01*
X158418152Y-95758333D02*
X158513390Y-95710714D01*
X158513390Y-95710714D02*
X158561009Y-95663095D01*
X158561009Y-95663095D02*
X158608628Y-95567857D01*
X158608628Y-95567857D02*
X158608628Y-95186905D01*
X158084819Y-96091667D02*
X158084819Y-96710714D01*
X158084819Y-96710714D02*
X158465771Y-96377381D01*
X158465771Y-96377381D02*
X158465771Y-96520238D01*
X158465771Y-96520238D02*
X158513390Y-96615476D01*
X158513390Y-96615476D02*
X158561009Y-96663095D01*
X158561009Y-96663095D02*
X158656247Y-96710714D01*
X158656247Y-96710714D02*
X158894342Y-96710714D01*
X158894342Y-96710714D02*
X158989580Y-96663095D01*
X158989580Y-96663095D02*
X159037200Y-96615476D01*
X159037200Y-96615476D02*
X159084819Y-96520238D01*
X159084819Y-96520238D02*
X159084819Y-96234524D01*
X159084819Y-96234524D02*
X159037200Y-96139286D01*
X159037200Y-96139286D02*
X158989580Y-96091667D01*
X211316666Y-99784580D02*
X211364285Y-99832200D01*
X211364285Y-99832200D02*
X211507142Y-99879819D01*
X211507142Y-99879819D02*
X211602380Y-99879819D01*
X211602380Y-99879819D02*
X211745237Y-99832200D01*
X211745237Y-99832200D02*
X211840475Y-99736961D01*
X211840475Y-99736961D02*
X211888094Y-99641723D01*
X211888094Y-99641723D02*
X211935713Y-99451247D01*
X211935713Y-99451247D02*
X211935713Y-99308390D01*
X211935713Y-99308390D02*
X211888094Y-99117914D01*
X211888094Y-99117914D02*
X211840475Y-99022676D01*
X211840475Y-99022676D02*
X211745237Y-98927438D01*
X211745237Y-98927438D02*
X211602380Y-98879819D01*
X211602380Y-98879819D02*
X211507142Y-98879819D01*
X211507142Y-98879819D02*
X211364285Y-98927438D01*
X211364285Y-98927438D02*
X211316666Y-98975057D01*
X210411904Y-98879819D02*
X210888094Y-98879819D01*
X210888094Y-98879819D02*
X210935713Y-99356009D01*
X210935713Y-99356009D02*
X210888094Y-99308390D01*
X210888094Y-99308390D02*
X210792856Y-99260771D01*
X210792856Y-99260771D02*
X210554761Y-99260771D01*
X210554761Y-99260771D02*
X210459523Y-99308390D01*
X210459523Y-99308390D02*
X210411904Y-99356009D01*
X210411904Y-99356009D02*
X210364285Y-99451247D01*
X210364285Y-99451247D02*
X210364285Y-99689342D01*
X210364285Y-99689342D02*
X210411904Y-99784580D01*
X210411904Y-99784580D02*
X210459523Y-99832200D01*
X210459523Y-99832200D02*
X210554761Y-99879819D01*
X210554761Y-99879819D02*
X210792856Y-99879819D01*
X210792856Y-99879819D02*
X210888094Y-99832200D01*
X210888094Y-99832200D02*
X210935713Y-99784580D01*
X214996904Y-115457319D02*
X214996904Y-116266842D01*
X214996904Y-116266842D02*
X214949285Y-116362080D01*
X214949285Y-116362080D02*
X214901666Y-116409700D01*
X214901666Y-116409700D02*
X214806428Y-116457319D01*
X214806428Y-116457319D02*
X214615952Y-116457319D01*
X214615952Y-116457319D02*
X214520714Y-116409700D01*
X214520714Y-116409700D02*
X214473095Y-116362080D01*
X214473095Y-116362080D02*
X214425476Y-116266842D01*
X214425476Y-116266842D02*
X214425476Y-115457319D01*
X213425476Y-116457319D02*
X213996904Y-116457319D01*
X213711190Y-116457319D02*
X213711190Y-115457319D01*
X213711190Y-115457319D02*
X213806428Y-115600176D01*
X213806428Y-115600176D02*
X213901666Y-115695414D01*
X213901666Y-115695414D02*
X213996904Y-115743033D01*
X211366666Y-106209580D02*
X211414285Y-106257200D01*
X211414285Y-106257200D02*
X211557142Y-106304819D01*
X211557142Y-106304819D02*
X211652380Y-106304819D01*
X211652380Y-106304819D02*
X211795237Y-106257200D01*
X211795237Y-106257200D02*
X211890475Y-106161961D01*
X211890475Y-106161961D02*
X211938094Y-106066723D01*
X211938094Y-106066723D02*
X211985713Y-105876247D01*
X211985713Y-105876247D02*
X211985713Y-105733390D01*
X211985713Y-105733390D02*
X211938094Y-105542914D01*
X211938094Y-105542914D02*
X211890475Y-105447676D01*
X211890475Y-105447676D02*
X211795237Y-105352438D01*
X211795237Y-105352438D02*
X211652380Y-105304819D01*
X211652380Y-105304819D02*
X211557142Y-105304819D01*
X211557142Y-105304819D02*
X211414285Y-105352438D01*
X211414285Y-105352438D02*
X211366666Y-105400057D01*
X210509523Y-105638152D02*
X210509523Y-106304819D01*
X210747618Y-105257200D02*
X210985713Y-105971485D01*
X210985713Y-105971485D02*
X210366666Y-105971485D01*
X204441666Y-127084819D02*
X204774999Y-126608628D01*
X205013094Y-127084819D02*
X205013094Y-126084819D01*
X205013094Y-126084819D02*
X204632142Y-126084819D01*
X204632142Y-126084819D02*
X204536904Y-126132438D01*
X204536904Y-126132438D02*
X204489285Y-126180057D01*
X204489285Y-126180057D02*
X204441666Y-126275295D01*
X204441666Y-126275295D02*
X204441666Y-126418152D01*
X204441666Y-126418152D02*
X204489285Y-126513390D01*
X204489285Y-126513390D02*
X204536904Y-126561009D01*
X204536904Y-126561009D02*
X204632142Y-126608628D01*
X204632142Y-126608628D02*
X205013094Y-126608628D01*
X203584523Y-126418152D02*
X203584523Y-127084819D01*
X203822618Y-126037200D02*
X204060713Y-126751485D01*
X204060713Y-126751485D02*
X203441666Y-126751485D01*
X211691666Y-124034580D02*
X211739285Y-124082200D01*
X211739285Y-124082200D02*
X211882142Y-124129819D01*
X211882142Y-124129819D02*
X211977380Y-124129819D01*
X211977380Y-124129819D02*
X212120237Y-124082200D01*
X212120237Y-124082200D02*
X212215475Y-123986961D01*
X212215475Y-123986961D02*
X212263094Y-123891723D01*
X212263094Y-123891723D02*
X212310713Y-123701247D01*
X212310713Y-123701247D02*
X212310713Y-123558390D01*
X212310713Y-123558390D02*
X212263094Y-123367914D01*
X212263094Y-123367914D02*
X212215475Y-123272676D01*
X212215475Y-123272676D02*
X212120237Y-123177438D01*
X212120237Y-123177438D02*
X211977380Y-123129819D01*
X211977380Y-123129819D02*
X211882142Y-123129819D01*
X211882142Y-123129819D02*
X211739285Y-123177438D01*
X211739285Y-123177438D02*
X211691666Y-123225057D01*
X211358332Y-123129819D02*
X210739285Y-123129819D01*
X210739285Y-123129819D02*
X211072618Y-123510771D01*
X211072618Y-123510771D02*
X210929761Y-123510771D01*
X210929761Y-123510771D02*
X210834523Y-123558390D01*
X210834523Y-123558390D02*
X210786904Y-123606009D01*
X210786904Y-123606009D02*
X210739285Y-123701247D01*
X210739285Y-123701247D02*
X210739285Y-123939342D01*
X210739285Y-123939342D02*
X210786904Y-124034580D01*
X210786904Y-124034580D02*
X210834523Y-124082200D01*
X210834523Y-124082200D02*
X210929761Y-124129819D01*
X210929761Y-124129819D02*
X211215475Y-124129819D01*
X211215475Y-124129819D02*
X211310713Y-124082200D01*
X211310713Y-124082200D02*
X211358332Y-124034580D01*
X220633333Y-115671069D02*
X220633333Y-116385354D01*
X220633333Y-116385354D02*
X220680952Y-116528211D01*
X220680952Y-116528211D02*
X220776190Y-116623450D01*
X220776190Y-116623450D02*
X220919047Y-116671069D01*
X220919047Y-116671069D02*
X221014285Y-116671069D01*
X219633333Y-116671069D02*
X220204761Y-116671069D01*
X219919047Y-116671069D02*
X219919047Y-115671069D01*
X219919047Y-115671069D02*
X220014285Y-115813926D01*
X220014285Y-115813926D02*
X220109523Y-115909164D01*
X220109523Y-115909164D02*
X220204761Y-115956783D01*
D12*
%TO.C,R2*%
X163665000Y-95197936D02*
X163665000Y-96652064D01*
X165485000Y-95197936D02*
X165485000Y-96652064D01*
%TO.C,C2*%
X209265000Y-127129437D02*
X209265000Y-127265000D01*
X209265000Y-127129437D02*
X210329437Y-126065000D01*
X209265000Y-129520563D02*
X209265000Y-129385000D01*
X209265000Y-129520563D02*
X210329437Y-130585000D01*
X210329437Y-126065000D02*
X213785000Y-126065000D01*
X210329437Y-130585000D02*
X213785000Y-130585000D01*
X213785000Y-126065000D02*
X213785000Y-127265000D01*
X213785000Y-130585000D02*
X213785000Y-129385000D01*
%TO.C,R1*%
X155765000Y-95197936D02*
X155765000Y-96652064D01*
X157585000Y-95197936D02*
X157585000Y-96652064D01*
%TO.C,C6*%
X173990000Y-72361252D02*
X173990000Y-71838748D01*
X175460000Y-72361252D02*
X175460000Y-71838748D01*
%TO.C,R3*%
X159540000Y-95197936D02*
X159540000Y-96652064D01*
X161360000Y-95197936D02*
X161360000Y-96652064D01*
%TO.C,C5*%
X208890000Y-95029437D02*
X208890000Y-95165000D01*
X208890000Y-95029437D02*
X209954437Y-93965000D01*
X208890000Y-97420563D02*
X208890000Y-97285000D01*
X208890000Y-97420563D02*
X209954437Y-98485000D01*
X209954437Y-93965000D02*
X213410000Y-93965000D01*
X209954437Y-98485000D02*
X213410000Y-98485000D01*
X213410000Y-93965000D02*
X213410000Y-95165000D01*
X213410000Y-98485000D02*
X213410000Y-97285000D01*
%TO.C,U1*%
X210925000Y-108052500D02*
X210925000Y-108322500D01*
X210925000Y-114952500D02*
X210925000Y-114682500D01*
X217345000Y-108052500D02*
X210925000Y-108052500D01*
X217345000Y-114952500D02*
X210925000Y-114952500D01*
X209535000Y-115112500D02*
X208855000Y-115112500D01*
X209195000Y-114642500D01*
X209535000Y-115112500D01*
G36*
X209535000Y-115112500D02*
G01*
X208855000Y-115112500D01*
X209195000Y-114642500D01*
X209535000Y-115112500D01*
G37*
%TO.C,C4*%
X208940000Y-101454437D02*
X208940000Y-101590000D01*
X208940000Y-101454437D02*
X210004437Y-100390000D01*
X208940000Y-103845563D02*
X208940000Y-103710000D01*
X208940000Y-103845563D02*
X210004437Y-104910000D01*
X210004437Y-100390000D02*
X213460000Y-100390000D01*
X210004437Y-104910000D02*
X213460000Y-104910000D01*
X213460000Y-100390000D02*
X213460000Y-101590000D01*
X213460000Y-104910000D02*
X213460000Y-103710000D01*
%TO.C,R4*%
X205002064Y-127540000D02*
X203547936Y-127540000D01*
X205002064Y-129360000D02*
X203547936Y-129360000D01*
%TO.C,C3*%
X209265000Y-119279437D02*
X209265000Y-119415000D01*
X209265000Y-119279437D02*
X210329437Y-118215000D01*
X209265000Y-121670563D02*
X209265000Y-121535000D01*
X209265000Y-121670563D02*
X210329437Y-122735000D01*
X210329437Y-118215000D02*
X213785000Y-118215000D01*
X210329437Y-122735000D02*
X213785000Y-122735000D01*
X213785000Y-118215000D02*
X213785000Y-119415000D01*
X213785000Y-122735000D02*
X213785000Y-121535000D01*
%TD*%
M02*
